<svg width="64" height="65" viewBox="0 0 64 65" fill="none" xmlns="http://www.w3.org/2000/svg">
<circle cx="32" cy="32.9762" r="32" fill="url(#paint0_linear_647_2638)"/>
<path d="M28 27C28.1978 27 28.3911 26.9414 28.5556 26.8315C28.72 26.7216 28.8482 26.5654 28.9239 26.3827C28.9996 26.2 29.0194 25.9989 28.9808 25.8049C28.9422 25.6109 28.847 25.4327 28.7071 25.2929C28.5673 25.153 28.3891 25.0578 28.1951 25.0192C28.0011 24.9806 27.8 25.0004 27.6173 25.0761C27.4346 25.1518 27.2784 25.28 27.1685 25.4444C27.0586 25.6089 27 25.8022 27 26C27 26.2652 27.1054 26.5196 27.2929 26.7071C27.4804 26.8946 27.7348 27 28 27ZM41 40H34.82C34.6707 39.5806 34.4299 39.1997 34.1151 38.8849C33.8003 38.5701 33.4194 38.3293 33 38.18V36H37C37.7956 36 38.5587 35.6839 39.1213 35.1213C39.6839 34.5587 40 33.7956 40 33V31C39.9956 30.2599 39.7178 29.5476 39.22 29C39.7178 28.4524 39.9956 27.7401 40 27V25C40 24.2044 39.6839 23.4413 39.1213 22.8787C38.5587 22.3161 37.7956 22 37 22H27C26.2044 22 25.4413 22.3161 24.8787 22.8787C24.3161 23.4413 24 24.2044 24 25V27C24.0044 27.7401 24.2822 28.4524 24.78 29C24.2822 29.5476 24.0044 30.2599 24 31V33C24 33.7956 24.3161 34.5587 24.8787 35.1213C25.4413 35.6839 26.2044 36 27 36H31V38.18C30.5806 38.3293 30.1997 38.5701 29.8849 38.8849C29.5701 39.1997 29.3293 39.5806 29.18 40H23C22.7348 40 22.4804 40.1054 22.2929 40.2929C22.1054 40.4804 22 40.7348 22 41C22 41.2652 22.1054 41.5196 22.2929 41.7071C22.4804 41.8946 22.7348 42 23 42H29.18C29.3902 42.5792 29.7736 43.0795 30.2782 43.4332C30.7827 43.7868 31.3839 43.9765 32 43.9765C32.6161 43.9765 33.2173 43.7868 33.7218 43.4332C34.2264 43.0795 34.6098 42.5792 34.82 42H41C41.2652 42 41.5196 41.8946 41.7071 41.7071C41.8946 41.5196 42 41.2652 42 41C42 40.7348 41.8946 40.4804 41.7071 40.2929C41.5196 40.1054 41.2652 40 41 40ZM26 25C26 24.7348 26.1054 24.4804 26.2929 24.2929C26.4804 24.1054 26.7348 24 27 24H37C37.2652 24 37.5196 24.1054 37.7071 24.2929C37.8946 24.4804 38 24.7348 38 25V27C38 27.2652 37.8946 27.5196 37.7071 27.7071C37.5196 27.8946 37.2652 28 37 28H27C26.7348 28 26.4804 27.8946 26.2929 27.7071C26.1054 27.5196 26 27.2652 26 27V25ZM27 34C26.7348 34 26.4804 33.8946 26.2929 33.7071C26.1054 33.5196 26 33.2652 26 33V31C26 30.7348 26.1054 30.4804 26.2929 30.2929C26.4804 30.1054 26.7348 30 27 30H37C37.2652 30 37.5196 30.1054 37.7071 30.2929C37.8946 30.4804 38 30.7348 38 31V33C38 33.2652 37.8946 33.5196 37.7071 33.7071C37.5196 33.8946 37.2652 34 37 34H27ZM32 42C31.8022 42 31.6089 41.9414 31.4444 41.8315C31.28 41.7216 31.1518 41.5654 31.0761 41.3827C31.0004 41.2 30.9806 40.9989 31.0192 40.8049C31.0578 40.6109 31.153 40.4327 31.2929 40.2929C31.4327 40.153 31.6109 40.0578 31.8049 40.0192C31.9989 39.9806 32.2 40.0004 32.3827 40.0761C32.5654 40.1518 32.7216 40.28 32.8315 40.4444C32.9414 40.6089 33 40.8022 33 41C33 41.2652 32.8946 41.5196 32.7071 41.7071C32.5196 41.8946 32.2652 42 32 42ZM28 31C27.8022 31 27.6089 31.0586 27.4444 31.1685C27.28 31.2784 27.1518 31.4346 27.0761 31.6173C27.0004 31.8 26.9806 32.0011 27.0192 32.1951C27.0578 32.3891 27.153 32.5673 27.2929 32.7071C27.4327 32.847 27.6109 32.9422 27.8049 32.9808C27.9989 33.0194 28.2 32.9996 28.3827 32.9239C28.5654 32.8482 28.7216 32.72 28.8315 32.5556C28.9414 32.3911 29 32.1978 29 32C29 31.7348 28.8946 31.4804 28.7071 31.2929C28.5196 31.1054 28.2652 31 28 31Z" fill="#111111"/>
<defs>
<linearGradient id="paint0_linear_647_2638" x1="32" y1="-89.3279" x2="32" y2="195.305" gradientUnits="userSpaceOnUse">
<stop offset="0.236262" stop-color="#00D1FF"/>
<stop offset="0.518799" stop-color="#00E1AD"/>
</linearGradient>
</defs>
</svg>
