<svg width="64" height="65" viewBox="0 0 64 65" fill="none" xmlns="http://www.w3.org/2000/svg">
<circle cx="32" cy="32.9762" r="32" fill="url(#paint0_linear_647_2650)"/>
<path d="M30 34H23C22.7348 34 22.4804 34.1054 22.2929 34.2929C22.1054 34.4804 22 34.7348 22 35V42C22 42.2652 22.1054 42.5196 22.2929 42.7071C22.4804 42.8946 22.7348 43 23 43H30C30.2652 43 30.5196 42.8946 30.7071 42.7071C30.8946 42.5196 31 42.2652 31 42V35C31 34.7348 30.8946 34.4804 30.7071 34.2929C30.5196 34.1054 30.2652 34 30 34ZM29 41H24V36H29V41ZM41 23H34C33.7348 23 33.4804 23.1054 33.2929 23.2929C33.1054 23.4804 33 23.7348 33 24V31C33 31.2652 33.1054 31.5196 33.2929 31.7071C33.4804 31.8946 33.7348 32 34 32H41C41.2652 32 41.5196 31.8946 41.7071 31.7071C41.8946 31.5196 42 31.2652 42 31V24C42 23.7348 41.8946 23.4804 41.7071 23.2929C41.5196 23.1054 41.2652 23 41 23ZM40 30H35V25H40V30ZM41 34H34C33.7348 34 33.4804 34.1054 33.2929 34.2929C33.1054 34.4804 33 34.7348 33 35V42C33 42.2652 33.1054 42.5196 33.2929 42.7071C33.4804 42.8946 33.7348 43 34 43H41C41.2652 43 41.5196 42.8946 41.7071 42.7071C41.8946 42.5196 42 42.2652 42 42V35C42 34.7348 41.8946 34.4804 41.7071 34.2929C41.5196 34.1054 41.2652 34 41 34ZM40 41H35V36H40V41ZM30 23H23C22.7348 23 22.4804 23.1054 22.2929 23.2929C22.1054 23.4804 22 23.7348 22 24V31C22 31.2652 22.1054 31.5196 22.2929 31.7071C22.4804 31.8946 22.7348 32 23 32H30C30.2652 32 30.5196 31.8946 30.7071 31.7071C30.8946 31.5196 31 31.2652 31 31V24C31 23.7348 30.8946 23.4804 30.7071 23.2929C30.5196 23.1054 30.2652 23 30 23ZM29 30H24V25H29V30Z" fill="#111111"/>
<defs>
<linearGradient id="paint0_linear_647_2650" x1="32" y1="-89.3279" x2="32" y2="195.305" gradientUnits="userSpaceOnUse">
<stop offset="0.236262" stop-color="#00D1FF"/>
<stop offset="0.518799" stop-color="#00E1AD"/>
</linearGradient>
</defs>
</svg>
