<svg width="28" height="28" viewBox="0 0 28 28" fill="none" xmlns="http://www.w3.org/2000/svg">
<path d="M15.2943 2.8234C14.8368 2.12013 14.4054 1.39856 14.0002 0.658691C13.8381 0.954116 13.6707 1.24954 13.5008 1.53974C13.4982 1.54758 13.493 1.55281 13.4877 1.55804C12.5832 3.09791 11.5636 4.55411 10.4315 5.92143C9.75702 6.74235 9.04068 7.52666 8.29035 8.27699C6.04721 10.5227 3.48251 12.4469 0.669434 13.9868C3.48251 15.5267 6.04721 17.4508 8.29035 19.6966C10.5361 21.9397 12.4603 24.5044 14.0002 27.3175C15.54 24.5044 17.4642 21.9397 19.71 19.6966C21.9557 17.4508 24.5178 15.5267 27.3309 13.9868C22.4446 11.3149 18.3113 7.47176 15.2943 2.82078V2.8234ZM14.0028 5.65477C12.0394 9.00379 8.65113 12.2979 4.74787 13.9894C8.38447 11.6234 11.5322 8.26392 13.425 4.82863C13.5426 4.61686 13.8877 4.00771 14.0106 3.79072L14.4054 4.5149C14.9126 5.45346 15.5217 6.39464 16.1466 7.26C18.0734 9.92405 20.5178 12.1698 23.2603 13.9894C22.2407 13.545 21.2707 12.9907 20.34 12.3737C17.7649 10.643 15.5949 8.31882 14.0054 5.65477H14.0028Z" fill="url(#paint0_linear_647_1512)"/>
<defs>
<linearGradient id="paint0_linear_647_1512" x1="14.0002" y1="-36.957" x2="14.0002" y2="81.6051" gradientUnits="userSpaceOnUse">
<stop offset="0.236262" stop-color="#00D1FF"/>
<stop offset="0.518799" stop-color="#00E1AD"/>
</linearGradient>
</defs>
</svg>
