<svg width="64" height="65" viewBox="0 0 64 65" fill="none" xmlns="http://www.w3.org/2000/svg">
<circle cx="32" cy="32.9762" r="32" fill="url(#paint0_linear_647_2644)"/>
<path d="M22.4999 29.86L31.4999 35.06C31.6519 35.1478 31.8244 35.194 31.9999 35.194C32.1754 35.194 32.3479 35.1478 32.4999 35.06L41.4999 29.86C41.651 29.7727 41.7767 29.6475 41.8644 29.4966C41.9521 29.3457 41.9989 29.1745 41.9999 29C42.0006 28.8238 41.9547 28.6505 41.8669 28.4978C41.7791 28.345 41.6525 28.2181 41.4999 28.13L32.4999 22.94C32.3479 22.8522 32.1754 22.806 31.9999 22.806C31.8244 22.806 31.6519 22.8522 31.4999 22.94L22.4999 28.13C22.3473 28.2181 22.2207 28.345 22.1329 28.4978C22.0451 28.6505 21.9992 28.8238 21.9999 29C22.001 29.1745 22.0477 29.3457 22.1354 29.4966C22.2231 29.6475 22.3488 29.7727 22.4999 29.86ZM31.9999 25L38.9999 29L31.9999 33L24.9999 29L31.9999 25ZM40.4999 32.17L31.9999 37L23.4999 32.13C23.3858 32.0639 23.2597 32.021 23.1289 32.0038C22.9981 31.9866 22.8652 31.9955 22.7379 32.0299C22.6106 32.0643 22.4913 32.1235 22.3869 32.2042C22.2826 32.2849 22.1952 32.3854 22.1299 32.5C21.9995 32.7296 21.9653 33.0015 22.0346 33.2563C22.1039 33.5111 22.2712 33.7281 22.4999 33.86L31.4999 39.06C31.6519 39.1478 31.8244 39.194 31.9999 39.194C32.1754 39.194 32.3479 39.1478 32.4999 39.06L41.4999 33.86C41.7286 33.7281 41.8959 33.5111 41.9652 33.2563C42.0345 33.0015 42.0003 32.7296 41.8699 32.5C41.8046 32.3854 41.7172 32.2849 41.6129 32.2042C41.5085 32.1235 41.3893 32.0643 41.2619 32.0299C41.1346 31.9955 41.0017 31.9866 40.8709 32.0038C40.7401 32.021 40.614 32.0639 40.4999 32.13V32.17ZM40.4999 36.17L31.9999 41L23.4999 36.13C23.3858 36.0639 23.2597 36.021 23.1289 36.0038C22.9981 35.9866 22.8652 35.9955 22.7379 36.0299C22.6106 36.0643 22.4913 36.1235 22.3869 36.2042C22.2826 36.2849 22.1952 36.3854 22.1299 36.5C21.9995 36.7296 21.9653 37.0015 22.0346 37.2563C22.1039 37.5111 22.2712 37.7281 22.4999 37.86L31.4999 43.06C31.6519 43.1478 31.8244 43.194 31.9999 43.194C32.1754 43.194 32.3479 43.1478 32.4999 43.06L41.4999 37.86C41.7286 37.7281 41.8959 37.5111 41.9652 37.2563C42.0345 37.0015 42.0003 36.7296 41.8699 36.5C41.8046 36.3854 41.7172 36.2849 41.6129 36.2042C41.5085 36.1235 41.3893 36.0643 41.2619 36.0299C41.1346 35.9955 41.0017 35.9866 40.8709 36.0038C40.7401 36.021 40.614 36.0639 40.4999 36.13V36.17Z" fill="#111111"/>
<defs>
<linearGradient id="paint0_linear_647_2644" x1="32" y1="-89.3279" x2="32" y2="195.305" gradientUnits="userSpaceOnUse">
<stop offset="0.236262" stop-color="#00D1FF"/>
<stop offset="0.518799" stop-color="#00E1AD"/>
</linearGradient>
</defs>
</svg>
