<svg width="27" height="28" viewBox="0 0 27 28" fill="none" xmlns="http://www.w3.org/2000/svg">
<path d="M14.6248 3.14127C14.1673 2.438 13.7359 1.71643 13.3307 0.976562C13.1686 1.27199 13.0013 1.56741 12.8314 1.85761C12.8288 1.86545 12.8235 1.87068 12.8183 1.87591C11.9137 3.41578 10.8941 4.87198 9.76209 6.2393C9.08758 7.06022 8.37124 7.84454 7.62092 8.59486C5.37778 10.8406 2.81307 12.7648 0 14.3047C2.81307 15.8445 5.37778 17.7687 7.62092 20.0145C9.86667 22.2576 11.7909 24.8223 13.3307 27.6354C14.8706 24.8223 16.7948 22.2576 19.0405 20.0145C21.2863 17.7687 23.8484 15.8445 26.6614 14.3047C21.7752 11.6328 17.6418 7.78963 14.6248 3.13865V3.14127ZM13.3333 5.97264C11.3699 9.32166 7.9817 12.6158 4.07843 14.3073C7.71503 11.9413 10.8627 8.58179 12.7556 5.1465C12.8732 4.93473 13.2183 4.32558 13.3412 4.10859L13.7359 4.83277C14.2431 5.77133 14.8523 6.71251 15.4771 7.57787C17.4039 10.2419 19.8484 12.4877 22.5908 14.3073C21.5712 13.8628 20.6013 13.3086 19.6706 12.6916C17.0954 10.9609 14.9255 8.63669 13.3359 5.97264H13.3333Z" fill="#414141"/>
</svg>
