<svg width="438" height="164" viewBox="0 0 438 164" fill="none" xmlns="http://www.w3.org/2000/svg">
<path fill-rule="evenodd" clip-rule="evenodd" d="M138.306 71.5765V79.2098L156.549 79.2017C155.989 83.4115 154.57 86.4941 152.412 88.6517C149.751 91.3123 145.598 94.2407 138.306 94.2407C127.063 94.2407 118.269 85.1799 118.269 73.9369C118.269 62.6941 127.063 53.6332 138.306 53.6332C144.373 53.6332 148.802 56.0181 152.071 59.0843L157.458 53.6981C152.899 49.3421 146.831 46 138.314 46C122.917 46 109.971 58.5408 109.971 73.9369C109.971 89.3332 122.917 101.874 138.314 101.874C146.62 101.874 152.891 99.1486 157.798 94.038C162.844 88.9924 164.409 81.9108 164.409 76.1841C164.409 74.4803 164.28 72.907 164.028 71.5765H138.306ZM292.193 100.779V48.0522H284.487V100.779H292.193ZM185.52 101.882C195.465 101.882 203.569 94.2486 203.569 83.8898C203.569 73.4579 195.465 65.8979 185.52 65.8979C175.575 65.8979 167.471 73.4579 167.471 83.8898C167.471 94.2486 175.575 101.882 185.52 101.882ZM185.52 72.9876C190.971 72.9876 195.668 77.4166 195.668 83.8898C195.668 90.2899 190.971 94.7921 185.52 94.7921C180.069 94.7921 175.372 90.298 175.372 83.8898C175.372 77.4166 180.069 72.9876 185.52 72.9876ZM224.462 101.882C234.407 101.882 242.51 94.2487 242.51 83.8899C242.51 73.458 234.407 65.898 224.462 65.898C214.517 65.898 206.413 73.4665 206.413 83.8899C206.413 94.2487 214.517 101.882 224.462 101.882ZM224.462 72.9876C229.912 72.9876 234.609 77.4167 234.609 83.8899C234.609 90.29 229.912 94.7921 224.462 94.7921C219.01 94.7921 214.313 90.2981 214.313 83.8899C214.313 77.4167 219.01 72.9876 224.462 72.9876ZM279.83 66.993V99.2861C279.83 112.573 271.994 118 262.73 118C254.01 118 248.762 112.167 246.782 107.398L253.661 104.534C254.886 107.463 257.887 110.918 262.722 110.918C268.652 110.918 272.326 107.26 272.326 100.373V97.7854H272.051C270.282 99.9676 266.875 101.874 262.576 101.874C253.58 101.874 245.338 94.0379 245.338 83.9548C245.338 73.7987 253.58 65.8979 262.576 65.8979C266.867 65.8979 270.274 67.8042 272.051 69.9214H272.326V66.993H279.83ZM272.886 83.9548C272.886 77.6193 268.66 72.9876 263.282 72.9876C257.83 72.9876 253.264 77.6193 253.264 83.9548C253.264 90.2253 257.83 94.7921 263.282 94.7921C268.66 94.7921 272.886 90.2253 272.886 83.9548ZM322.222 89.812L328.355 93.9003C326.376 96.8286 321.606 101.874 313.364 101.874C303.143 101.874 295.51 93.973 295.51 83.8822C295.51 73.1827 303.208 65.8901 312.48 65.8901C321.816 65.8901 326.384 73.3204 327.876 77.336L328.695 79.3801L304.644 89.3412C306.485 92.9511 309.349 94.7926 313.364 94.7926C317.387 94.7926 320.178 92.813 322.222 89.812ZM303.346 83.3388L319.423 76.6625C318.539 74.4157 315.879 72.85 312.748 72.85C308.732 72.85 303.143 76.3948 303.346 83.3388Z" fill="white"/>
</svg>
