<svg width="214" height="81" viewBox="0 0 214 81" fill="none" xmlns="http://www.w3.org/2000/svg">
<g clip-path="url(#clip0_2660_3260)">
<path d="M47.5794 52.1762C47.5794 54.5096 46.6209 57.647 43.7905 57.647C42.3715 57.647 41.5362 56.9158 41.5362 55.4626C41.5368 52.7197 45.5543 52.1762 47.5794 52.1762ZM51.6388 60.2084V47.2415C51.6388 43.0375 48.88 41.585 45.0151 41.585C41.2352 41.585 38.0875 43.1907 38.0875 47.3618H42.2279C42.2279 45.5602 43.1851 44.5708 45.0154 44.5708C47.1159 44.5708 47.5797 46.0943 47.5797 47.8939V49.6929C43.448 49.807 37.4048 50.3827 37.4048 55.8528C37.4048 58.9499 39.8549 60.6328 42.7581 60.6328C44.749 60.6328 46.5838 59.9813 47.5062 58.1066H47.58V60.2087H51.6388M64.2261 48.2384H68.7396C68.7396 43.7616 66.2582 41.585 61.8163 41.585C56.3559 41.585 53.4771 45.0229 53.4771 50.2992C53.4771 56.6488 56.7293 60.6328 63.2282 60.6328C65.0291 60.6328 66.8249 60.3303 68.5487 59.7907V57.1903C67.5509 57.5331 66.5182 57.647 65.4936 57.647C60.663 57.647 57.9913 54.1284 57.9913 49.541C57.9913 47.3627 58.7944 44.5708 61.4735 44.5708C63.6904 44.5708 64.2261 46.3668 64.2261 48.2384ZM80.5368 48.2384H85.0551C85.0551 43.7616 82.5634 41.585 78.1289 41.585C72.6607 41.585 69.7907 45.0229 69.7907 50.2992C69.7907 56.6488 73.0393 60.6328 79.5428 60.6328C81.3388 60.6328 83.1414 60.3303 84.8584 59.7907V57.1903C83.867 57.5331 82.8317 57.647 81.8 57.647C76.983 57.647 74.2978 54.1284 74.2978 49.541C74.2978 47.3627 75.1083 44.5708 77.7825 44.5708C80.0001 44.5708 80.5368 46.3668 80.5368 48.2384ZM97.1809 47.4337H90.5256C90.7197 45.5963 92.1291 44.2908 93.951 44.2908C95.9099 44.2908 97.1809 45.4851 97.1809 47.4337ZM101.197 50.0025V48.9653C101.197 44.5295 98.9028 41.585 94.2732 41.585C88.8453 41.585 86.4661 44.9887 86.4661 50.1528C86.4661 56.1515 89.1807 60.6334 95.6441 60.6334C97.3683 60.6334 99.0982 60.4441 100.728 59.9058V56.9623C99.6555 57.3419 98.401 57.6467 97.2544 57.6467C93.1263 57.6467 90.4017 53.8636 90.4017 50.0028H101.197M113.779 60.2084H118.034V47.5878C118.034 44.4556 116.566 41.585 113.091 41.585C110.49 41.585 108.659 43.0808 107.698 45.407H107.623V41.9952H103.369V60.2096H107.623V52.3317C107.623 49.8786 108.849 45.5615 111.897 45.5615C112.334 45.5615 112.814 45.5963 113.131 45.9085C113.848 46.5932 113.779 48.9243 113.779 49.8071V60.2084ZM126.855 44.9494H132.263V41.9952H126.855V35.9597L122.627 37.6797V41.9942H119.065V44.9484H122.627V55.6177C122.627 59.4082 124.482 60.6321 128.204 60.6321C129.357 60.6321 130.533 60.5215 131.674 60.3296V57.3409C131.035 57.4986 130.388 57.645 129.727 57.645C127.08 57.645 126.854 55.6955 126.854 53.5495V44.9494M144.547 60.2084H148.793V41.9949H144.547V49.878C144.547 52.3307 143.321 56.6491 140.255 56.6491C139.841 56.6491 139.336 56.6185 139.03 56.3108C138.299 55.619 138.382 53.2847 138.382 52.4097V41.9945H134.142V54.6267C134.142 57.7657 135.583 60.6331 139.072 60.6331C141.642 60.6331 143.514 59.0999 144.474 56.812H144.547V60.2084ZM155.718 52.2175C155.718 47.9326 157.323 46.0243 161.679 46.0243V41.585C158.625 41.585 157.201 42.8482 155.79 45.3648H155.718V41.9942H151.465V60.2087H155.718V52.2175M173.25 47.4337H166.592C166.784 45.5963 168.198 44.2908 170.03 44.2908C171.987 44.2908 173.25 45.4851 173.25 47.4337ZM177.265 50.0025V48.9653C177.265 44.5295 174.972 41.585 170.339 41.585C164.91 41.585 162.537 44.9887 162.537 50.1528C162.537 56.1515 165.253 60.6334 171.712 60.6334C173.435 60.6334 175.16 60.4441 176.803 59.9058V56.9623C175.734 57.3419 174.471 57.6467 173.331 57.6467C169.189 57.6467 166.474 53.8636 166.474 50.0028H177.264" fill="white"/>
<path d="M119.06 20.637V23.6315C119.06 23.6315 127.539 26.9172 128.753 27.3897C127.539 27.8551 119.06 31.1244 119.06 31.1244V34.1147L132.266 28.7494V26.0048L119.06 20.637Z" fill="white"/>
</g>
<defs>
<clipPath id="clip0_2660_3260">
<rect width="139.86" height="40" fill="white" transform="translate(37.4038 20.6353)"/>
</clipPath>
</defs>
</svg>
