<svg width="214" height="81" viewBox="0 0 214 81" fill="none" xmlns="http://www.w3.org/2000/svg">
<path fill-rule="evenodd" clip-rule="evenodd" d="M58.8101 27.296H70.4487L71.7247 27.3492L72.9468 27.4556L74.1163 27.7212L75.2326 27.9872L76.242 28.4123L77.1987 28.8374L78.1021 29.369L78.9524 29.9537L79.6968 30.5917L80.4406 31.2823L81.0786 32.0267L81.6628 32.8238L82.1412 33.674L82.6195 34.5248L82.9914 35.4283L83.3107 36.3317L99.8376 25.7019L105.843 29.7409L92.9818 38.0312L95.0542 39.413L108.022 31.1759L113.601 34.8957L100.794 43.3456L102.973 44.6742L115.992 36.3839V27.296H125.558V45.4181H134.061V53.9207H115.992V45.2053L99.8903 55.5686L83.4687 44.4614L83.1495 45.4181L82.8308 46.3216L82.3524 47.225L81.8741 48.129L81.2894 48.9261L80.6514 49.7236L79.9608 50.4675L79.1637 51.1049L78.3666 51.7429L77.41 52.2744L76.4533 52.7528L75.3902 53.1779L74.2739 53.4966L73.1049 53.7089L71.8827 53.8686L70.5541 53.9218H58.8101V27.296ZM67.9512 35.6396H70.4487L71.565 35.746L72.4685 36.0647L73.2656 36.543L73.9562 37.181L74.4351 37.9248L74.807 38.7224L75.0193 39.6259L75.0725 40.5293L75.0193 41.4328L74.807 42.3368L74.4351 43.1338L73.9035 43.8782L73.2656 44.5156L72.4685 44.9945L71.5118 45.3132L70.4487 45.4196H67.9512V35.6396ZM136.453 27.296H146.073V45.4181H154.523V53.9207H136.454L136.453 27.296Z" fill="white"/>
</svg>
