<svg width="214" height="81" viewBox="0 0 214 81" fill="none" xmlns="http://www.w3.org/2000/svg">
<g clip-path="url(#clip0_2660_3162)">
<path fill-rule="evenodd" clip-rule="evenodd" d="M107.103 47.8207L102.688 52.2354C101.728 53.1959 100.453 53.7224 99.0957 53.7224C97.738 53.7224 96.4635 53.1959 95.503 52.2354C94.5425 51.275 94.0159 50.0004 94.0159 48.6428C94.0159 47.285 94.5425 46.0106 95.503 45.05L99.9177 40.6353L95.503 36.2205C93.5173 34.2441 93.5173 31.0208 95.503 29.0351C96.4635 28.0745 97.738 27.5481 99.0957 27.5481C100.453 27.5481 101.728 28.0745 102.688 29.0351L107.103 33.4498L108.409 32.1436L103.995 27.7289C102.687 26.4211 100.942 25.7009 99.0957 25.7009C97.2493 25.7009 95.5046 26.4211 94.1968 27.7289C91.492 30.4338 91.487 34.8278 94.1982 37.5281L94.1998 37.5297L97.3054 40.6353L94.1968 43.7439C92.889 45.0516 92.1688 46.7964 92.1688 48.6428C92.1688 50.4891 92.889 52.2338 94.1968 53.5416C95.5046 54.8494 97.2493 55.5696 99.0957 55.5696C100.942 55.5696 102.687 54.8494 103.995 53.5416L108.409 49.1269L107.103 47.8207Z" fill="white"/>
<path fill-rule="evenodd" clip-rule="evenodd" d="M107.104 33.4498L111.519 29.0351C112.479 28.0745 113.754 27.5481 115.111 27.5481C116.469 27.5481 117.744 28.0745 118.704 29.0351C120.69 31.0208 120.69 34.2441 118.704 36.2205L114.289 40.6353L118.704 45.05C119.665 46.0106 120.191 47.285 120.191 48.6428C120.191 50.0004 119.665 51.275 118.704 52.2354C117.744 53.1959 116.469 53.7224 115.111 53.7224C113.754 53.7224 112.479 53.1959 111.519 52.2354L107.104 47.8207L105.798 49.1269L110.213 53.5416C111.52 54.8494 113.265 55.5696 115.111 55.5696C116.958 55.5696 118.703 54.8494 120.01 53.5416C121.318 52.2338 122.038 50.4891 122.038 48.6428C122.038 46.7964 121.318 45.0516 120.01 43.7439L116.902 40.6353L120.007 37.5297L120.009 37.5282C122.72 34.8278 122.715 30.4338 120.01 27.7289C118.703 26.4211 116.958 25.7009 115.111 25.7009C113.265 25.7009 111.52 26.4211 110.213 27.7289L105.798 32.1436L107.104 33.4498Z" fill="white"/>
<path fill-rule="evenodd" clip-rule="evenodd" d="M107.102 30.8374L116.898 40.6335L107.102 50.4296L97.3062 40.6335L107.102 30.8374ZM114.286 40.6335L107.102 47.8173L99.9184 40.6335L107.102 33.4497L114.286 40.6335Z" fill="white"/>
<path d="M33.6498 40.4779L37.9814 46.7306H35.617L32.4584 42.1404L29.2997 46.7306H27L31.3131 40.5149L27.2032 34.5393H29.5676L32.5046 38.8524L35.5062 34.5393H37.7874L33.659 40.4779H33.6498Z" fill="white"/>
<path d="M49.2869 34.5393L53.9695 46.7306H51.8637L50.6168 43.3595H45.9527L44.7059 46.7306H42.6187L47.3012 34.5393H49.2869ZM46.6085 41.5677H49.9426L48.2709 37.0607L46.5992 41.5677H46.6085Z" fill="white"/>
<path d="M61.81 42.1866V46.7306H59.7412V34.5393H64.4515C66.9729 34.5393 68.6168 35.8508 68.6168 38.3722C68.6168 40.8936 66.9729 42.1866 64.4515 42.1866H61.81ZM64.4146 36.3311H61.81V40.4041H64.4146C65.8461 40.4041 66.5758 39.5544 66.5758 38.3814C66.5758 37.2085 65.8461 36.3403 64.4146 36.3403V36.3311Z" fill="white"/>
<path d="M79.5612 46.9339C76.264 46.9339 73.9458 44.274 73.9458 40.635C73.9458 36.9961 76.264 34.3455 79.5612 34.3455C82.8584 34.3455 85.2043 36.9869 85.2043 40.635C85.2043 44.2833 82.8584 46.9339 79.5612 46.9339ZM79.5612 36.1926C77.4184 36.1926 76.0239 38.0583 76.0239 40.6443C76.0239 43.2303 77.4093 45.0959 79.5612 45.0959C81.7132 45.0959 83.117 43.2303 83.117 40.6443C83.117 38.0583 81.7039 36.1926 79.5612 36.1926Z" fill="white"/>
<path d="M138.347 43.2394C138.347 45.5207 136.757 46.7306 134.218 46.7306H129.554V34.5393H133.821C136.361 34.5393 137.949 35.6753 137.949 37.855C137.949 39.1664 137.257 40.1177 136.361 40.4317C137.515 40.8104 138.347 41.9372 138.347 43.2302V43.2394ZM133.802 39.6652C135.215 39.6652 135.964 39.1295 135.964 37.975C135.964 36.8205 135.207 36.3311 133.802 36.3311H131.558V39.6652H133.802ZM131.558 44.9481H134.18C135.566 44.9481 136.323 44.2554 136.323 43.1563C136.323 42.0572 135.566 41.3738 134.18 41.3738H131.558V44.9481Z" fill="white"/>
<path d="M149.936 34.5393L154.618 46.7306H152.513L151.266 43.3595H146.602L145.356 46.7306H143.268L147.951 34.5393H149.936ZM147.257 41.5677H150.592L148.92 37.0607L147.249 41.5677H147.257Z" fill="white"/>
<path d="M170.21 46.7306H168.622L162.387 37.855V46.7306H160.401V34.5393H162.35L168.224 42.9993V34.5393H170.21V46.7306Z" fill="white"/>
<path d="M179.012 39.8407L183.897 34.5393H186.456L180.951 40.3764L186.631 46.7306H184.008L179.002 41.1521V46.7306H176.933V34.5393H179.002V39.8407H179.012Z" fill="white"/>
</g>
<defs>
<clipPath id="clip0_2660_3162">
<rect width="160" height="29.8667" fill="white" transform="translate(27 25.7019)"/>
</clipPath>
</defs>
</svg>
