<svg width="214" height="81" viewBox="0 0 214 81" fill="none" xmlns="http://www.w3.org/2000/svg">
<g clip-path="url(#clip0_2660_4075)">
<path d="M101.584 21.8721C103.795 19.5679 106.874 18.1387 110.279 18.1387C114.806 18.1387 118.755 20.6628 120.858 24.4098C122.686 23.5932 124.709 23.139 126.837 23.139C135.001 23.139 141.62 29.8155 141.62 38.0508C141.62 46.2871 135.001 52.9636 126.837 52.9636C125.859 52.9642 124.884 52.867 123.925 52.6735C122.073 55.977 118.544 58.209 114.493 58.209C112.797 58.209 111.193 57.8174 109.765 57.1209C107.888 61.537 103.514 64.6334 98.4159 64.6334C93.107 64.6334 88.5824 61.2742 86.8457 56.5631C86.0867 56.7243 85.3004 56.8083 84.4935 56.8083C78.1727 56.8084 73.0483 51.6313 73.0483 45.244C73.0483 40.9637 75.3507 37.2264 78.7714 35.2269C78.0672 33.6064 77.6754 31.8179 77.6754 29.9375C77.6754 22.592 83.6388 16.6375 90.9941 16.6375C95.3126 16.6375 99.1504 18.6907 101.584 21.8721Z" fill="white"/>
<path d="M82.9798 41.5266C82.9369 41.6389 82.9955 41.6624 83.0092 41.6819C83.1381 41.7757 83.269 41.8431 83.4009 41.9183C84.1003 42.2894 84.7606 42.3978 85.4512 42.3978C86.8578 42.3978 87.731 41.6496 87.731 40.4452V40.4218C87.731 39.3082 86.7455 38.9038 85.8204 38.6118L85.7003 38.5727C85.0029 38.3461 84.4012 38.1508 84.4012 37.6916V37.6673C84.4012 37.2746 84.7528 36.9854 85.2979 36.9854C85.9035 36.9854 86.6224 37.1867 87.0854 37.4425C87.0854 37.4425 87.2212 37.5305 87.271 37.3986C87.2983 37.3283 87.5328 36.6973 87.5572 36.6289C87.5836 36.5546 87.5367 36.4999 87.4889 36.4706C86.9604 36.1492 86.2297 35.9294 85.4737 35.9294L85.3331 35.9304C84.0457 35.9304 83.1471 36.708 83.1471 37.8225V37.8459C83.1471 39.021 84.1385 39.4019 85.0675 39.6677L85.2169 39.7136C85.8938 39.9216 86.477 40.1004 86.477 40.5771V40.6005C86.477 41.0362 86.098 41.3605 85.4865 41.3605C85.2492 41.3605 84.4921 41.3556 83.6746 40.8388C83.5758 40.7811 83.5183 40.7392 83.4421 40.6933C83.402 40.6679 83.3014 40.6239 83.2575 40.7568L82.9798 41.5266ZM103.572 41.5266C103.529 41.6389 103.587 41.6624 103.601 41.6819C103.73 41.7757 103.861 41.8431 103.993 41.9183C104.692 42.2894 105.353 42.3978 106.043 42.3978C107.45 42.3978 108.323 41.6496 108.323 40.4452V40.4218C108.323 39.3082 107.337 38.9038 106.412 38.6118L106.292 38.5727C105.595 38.3461 104.993 38.1508 104.993 37.6916V37.6673C104.993 37.2746 105.345 36.9854 105.89 36.9854C106.495 36.9854 107.214 37.1867 107.677 37.4425C107.677 37.4425 107.813 37.5305 107.863 37.3986C107.89 37.3283 108.125 36.6973 108.149 36.6289C108.175 36.5546 108.128 36.4999 108.081 36.4706C107.552 36.1492 106.821 35.9294 106.065 35.9294L105.925 35.9304C104.637 35.9304 103.739 36.708 103.739 37.8225V37.8459C103.739 39.021 104.73 39.4019 105.659 39.6677L105.809 39.7136C106.485 39.9216 107.07 40.1004 107.07 40.5771V40.6005C107.07 41.0362 106.69 41.3605 106.078 41.3605C105.841 41.3605 105.084 41.3556 104.266 40.8388C104.168 40.7811 104.109 40.7411 104.035 40.6933C104.009 40.6767 103.89 40.6307 103.849 40.7568L103.572 41.5266ZM117.629 39.1674C117.629 39.8482 117.502 40.3845 117.252 40.7635C117.005 41.1386 116.631 41.3213 116.109 41.3213C115.587 41.3213 115.215 41.1396 114.971 40.7635C114.725 40.3855 114.6 39.8482 114.6 39.1674C114.6 38.4876 114.725 37.9523 114.971 37.5771C115.215 37.206 115.587 37.0253 116.109 37.0253C116.631 37.0253 117.005 37.206 117.253 37.5771C117.502 37.9522 117.629 38.4875 117.629 39.1674ZM118.803 37.9054C118.688 37.5156 118.508 37.1718 118.269 36.8856C118.03 36.5984 117.727 36.3679 117.367 36.1999C117.009 36.0329 116.585 35.9479 116.109 35.9479C115.633 35.9479 115.209 36.0329 114.85 36.1999C114.491 36.3679 114.188 36.5985 113.948 36.8856C113.709 37.1728 113.53 37.5166 113.413 37.9054C113.299 38.2931 113.242 38.7171 113.242 39.1674C113.242 39.6177 113.299 40.0426 113.413 40.4294C113.53 40.8182 113.708 41.1621 113.949 41.4492C114.188 41.7364 114.492 41.9659 114.85 42.129C115.21 42.2922 115.633 42.3752 116.11 42.3752C116.585 42.3752 117.008 42.2922 117.368 42.129C117.726 41.9659 118.03 41.7363 118.269 41.4492C118.508 41.163 118.688 40.8192 118.804 40.4294C118.919 40.0417 118.976 39.6167 118.976 39.1674C118.976 38.7181 118.919 38.2931 118.803 37.9054ZM128.445 41.1394C128.406 41.0251 128.296 41.0681 128.296 41.0681C128.125 41.1336 127.943 41.1941 127.75 41.2244C127.553 41.2546 127.337 41.2703 127.106 41.2703C126.537 41.2703 126.086 41.1013 125.763 40.7673C125.439 40.4332 125.257 39.8931 125.259 39.1624C125.261 38.4972 125.421 37.997 125.709 37.6161C125.995 37.2372 126.431 37.0427 127.012 37.0427C127.497 37.0427 127.866 37.0984 128.253 37.2205C128.253 37.2205 128.345 37.2605 128.389 37.1394C128.492 36.8542 128.568 36.65 128.678 36.3365C128.709 36.2476 128.633 36.2095 128.605 36.1987C128.453 36.1391 128.093 36.0425 127.822 36.0014C127.568 35.9624 127.271 35.9419 126.941 35.9419C126.447 35.9419 126.008 36.0259 125.632 36.1939C125.257 36.3609 124.938 36.5914 124.686 36.8787C124.434 37.1659 124.243 37.5096 124.115 37.8984C123.988 38.2861 123.924 38.712 123.924 39.1624C123.924 40.1363 124.186 40.9235 124.705 41.4999C125.225 42.0782 126.005 42.3721 127.023 42.3721C127.625 42.3721 128.242 42.2501 128.685 42.0752C128.685 42.0752 128.77 42.0342 128.733 41.9356L128.445 41.1394ZM130.499 38.5152C130.555 38.1372 130.66 37.8226 130.821 37.5775C131.064 37.2053 131.435 37.0012 131.957 37.0012C132.479 37.0012 132.823 37.2063 133.07 37.5775C133.235 37.8226 133.306 38.1509 133.334 38.5152H130.499ZM134.453 37.6839C134.353 37.3078 134.106 36.9278 133.944 36.7539C133.688 36.4785 133.438 36.2861 133.19 36.1786C132.865 36.0399 132.476 35.9481 132.051 35.9481C131.554 35.9481 131.104 36.0312 130.739 36.203C130.373 36.375 130.065 36.6095 129.824 36.9015C129.582 37.1926 129.401 37.5393 129.285 37.933C129.169 38.3247 129.11 38.7516 129.11 39.2018C129.11 39.66 129.171 40.0868 129.291 40.4707C129.412 40.8575 129.606 41.1984 129.867 41.4806C130.128 41.7649 130.464 41.9877 130.867 42.1429C131.266 42.2973 131.752 42.3774 132.309 42.3763C133.457 42.3724 134.062 42.1165 134.311 41.9788C134.355 41.9544 134.397 41.9114 134.344 41.7884L134.084 41.0606C134.045 40.9522 133.935 40.9922 133.935 40.9922C133.651 41.0977 133.246 41.2872 132.304 41.2853C131.687 41.2843 131.23 41.1026 130.944 40.8183C130.65 40.5273 130.506 40.0994 130.481 39.4958L134.455 39.4997C134.455 39.4997 134.56 39.4978 134.571 39.3961C134.575 39.3533 134.708 38.5796 134.453 37.6839ZM98.6686 38.5152C98.7253 38.1372 98.8288 37.8226 98.99 37.5775C99.2332 37.2053 99.6044 37.0012 100.126 37.0012C100.648 37.0012 100.992 37.2063 101.241 37.5775C101.404 37.8226 101.475 38.1509 101.503 38.5152H98.6686ZM102.621 37.6839C102.521 37.3078 102.275 36.9278 102.113 36.7539C101.857 36.4785 101.607 36.2861 101.359 36.1786C101.034 36.0399 100.646 35.9481 100.22 35.9481C99.7246 35.9481 99.2733 36.0312 98.908 36.203C98.5417 36.375 98.234 36.6095 97.9927 36.9015C97.7515 37.1926 97.5698 37.5393 97.4545 37.933C97.3393 38.3247 97.2797 38.7516 97.2797 39.2018C97.2797 39.66 97.3402 40.0868 97.4604 40.4707C97.5816 40.8575 97.775 41.1984 98.0367 41.4806C98.2976 41.7649 98.6336 41.9877 99.036 42.1429C99.4355 42.2973 99.921 42.3774 100.479 42.3763C101.626 42.3724 102.231 42.1165 102.48 41.9788C102.524 41.9544 102.566 41.9114 102.513 41.7884L102.255 41.0606C102.215 40.9522 102.104 40.9922 102.104 40.9922C101.82 41.0977 101.416 41.2872 100.472 41.2853C99.8566 41.2843 99.3994 41.1026 99.1132 40.8183C98.8192 40.5273 98.6756 40.0994 98.6502 39.4958L102.625 39.4997C102.625 39.4997 102.729 39.4978 102.74 39.3961C102.744 39.3533 102.877 38.5796 102.621 37.6839ZM90.0776 41.1177C89.9222 40.9936 89.9008 40.9623 89.848 40.8822C89.7699 40.7601 89.7298 40.5863 89.7298 40.3655C89.7298 40.0158 89.8451 39.7648 90.0844 39.5958C90.0816 39.5968 90.4263 39.2979 91.237 39.3086C91.8065 39.3164 92.3154 39.4004 92.3154 39.4004V41.2075H92.3163C92.3163 41.2075 91.8113 41.3159 91.2429 41.3501C90.4341 41.399 90.0746 41.1167 90.0776 41.1177ZM91.659 38.325C91.4978 38.3132 91.2887 38.3064 91.0387 38.3064C90.6978 38.3064 90.3686 38.3494 90.0599 38.4324C89.7493 38.5154 89.47 38.6454 89.2297 38.8172C88.9897 38.9885 88.7925 39.2128 88.6534 39.4726C88.5127 39.7344 88.4414 40.0431 88.4414 40.3889C88.4414 40.7406 88.5019 41.0463 88.6231 41.2964C88.7442 41.5474 88.9191 41.7564 89.1417 41.9177C89.3625 42.0788 89.635 42.197 89.9515 42.2683C90.2631 42.3396 90.6167 42.3757 91.0035 42.3757C91.4108 42.3757 91.8172 42.3426 92.2108 42.2751C92.6006 42.2086 93.0792 42.1119 93.212 42.0817C93.3052 42.0593 93.398 42.0355 93.4904 42.0104C93.5891 41.986 93.5813 41.8805 93.5813 41.8805L93.5793 38.2458C93.5793 37.4487 93.3664 36.8577 92.9473 36.4915C92.5302 36.1262 91.9158 35.9415 91.1217 35.9415C90.8238 35.9415 90.3442 35.9826 90.057 36.0402C90.057 36.0402 89.1886 36.2082 88.8311 36.4876C88.8311 36.4876 88.753 36.5364 88.7959 36.6458L89.0773 37.4019C89.1124 37.4996 89.2072 37.4664 89.2072 37.4664C89.2072 37.4664 89.2375 37.4546 89.2727 37.4341C90.0376 37.018 91.0046 37.0307 91.0046 37.0307C91.4344 37.0307 91.7645 37.1166 91.9872 37.2876C92.204 37.4536 92.3144 37.7046 92.3144 38.234V38.4021C91.9725 38.3533 91.659 38.325 91.659 38.325ZM123.716 36.277C123.746 36.1871 123.683 36.1442 123.656 36.1344C123.589 36.108 123.251 36.0367 122.99 36.0201C122.491 35.9898 122.214 36.0739 121.965 36.1852C121.719 36.2965 121.446 36.4762 121.293 36.6804V36.1969C121.293 36.1295 121.246 36.0758 121.179 36.0758H120.16C120.094 36.0758 120.046 36.1295 120.046 36.1969V42.1251C120.046 42.1915 120.101 42.2463 120.167 42.2463H121.211C121.243 42.2461 121.274 42.2332 121.296 42.2105C121.319 42.1878 121.332 42.1571 121.331 42.1251V39.1635C121.331 38.7659 121.375 38.3694 121.463 38.1203C121.549 37.8741 121.667 37.6768 121.811 37.5351C121.957 37.3945 122.122 37.2959 122.302 37.2402C122.487 37.1835 122.691 37.165 122.836 37.165C123.044 37.165 123.272 37.2186 123.272 37.2186C123.349 37.2274 123.392 37.1805 123.417 37.1112C123.485 36.9295 123.679 36.3854 123.716 36.277Z" fill="#111111"/>
<path d="M113.914 33.5301C113.787 33.491 113.672 33.4646 113.522 33.4363C113.369 33.409 113.188 33.3953 112.982 33.3953C112.263 33.3953 111.696 33.5984 111.298 33.9989C110.903 34.3975 110.634 35.004 110.499 35.8021L110.45 36.0707H109.548C109.548 36.0707 109.439 36.0668 109.415 36.186L109.268 37.0133C109.257 37.0915 109.291 37.1413 109.397 37.1413H110.275L109.384 42.1152C109.314 42.5157 109.234 42.8449 109.146 43.0949C109.059 43.3411 108.974 43.5256 108.868 43.6605C108.767 43.7894 108.671 43.8851 108.505 43.9408C108.368 43.9867 108.21 44.0082 108.037 44.0082C107.941 44.0082 107.813 43.9925 107.718 43.973C107.625 43.9544 107.575 43.9339 107.503 43.9036C107.503 43.9036 107.401 43.8646 107.36 43.9671C107.328 44.0521 107.093 44.6957 107.065 44.775C107.038 44.854 107.077 44.9156 107.126 44.9341C107.244 44.9752 107.331 45.0025 107.49 45.0406C107.711 45.0924 107.897 45.0953 108.072 45.0953C108.437 45.0953 108.771 45.0435 109.048 44.944C109.325 44.8433 109.567 44.6684 109.782 44.4321C110.014 44.1761 110.159 43.9085 110.298 43.5423C110.436 43.1808 110.554 42.7315 110.648 42.208L111.544 37.1413H112.852C112.852 37.1413 112.963 37.1452 112.985 37.0251L113.134 36.1987C113.144 36.1197 113.11 36.0708 113.004 36.0708H111.733C111.74 36.0425 111.797 35.595 111.943 35.1741C112.006 34.9954 112.123 34.8498 112.221 34.7501C112.319 34.6525 112.431 34.5831 112.555 34.5431C112.681 34.502 112.824 34.4825 112.981 34.4825C113.101 34.4825 113.219 34.4962 113.308 34.5147C113.431 34.5411 113.479 34.5548 113.511 34.5646C113.641 34.6037 113.658 34.5656 113.684 34.5031L113.988 33.6689C114.019 33.5789 113.942 33.5408 113.914 33.5301ZM96.1585 42.1259C96.1585 42.1924 96.1107 42.2461 96.0442 42.2461H94.9903C94.9238 42.2461 94.877 42.1924 94.877 42.1259V33.6434C94.877 33.577 94.9238 33.5233 94.9903 33.5233H96.0442C96.1107 33.5233 96.1585 33.577 96.1585 33.6434V42.1259Z" fill="#111111"/>
</g>
<defs>
<clipPath id="clip0_2660_4075">
<rect width="68.5714" height="48" fill="white" transform="translate(73.0479 16.6353)"/>
</clipPath>
</defs>
</svg>
