<svg width="214" height="81" viewBox="0 0 214 81" fill="none" xmlns="http://www.w3.org/2000/svg">
<path fill-rule="evenodd" clip-rule="evenodd" d="M175.017 46.5575C178.268 46.5575 180.778 43.9087 180.81 40.7682C180.584 39.3968 180.104 36.8596 176.544 36.8596C172.652 36.8596 171.361 42.3001 168.191 45.8068C167.934 47.8016 166.048 49.5864 163.69 49.8854C164.269 50.4905 165.552 50.8157 167.085 50.8157C169.892 50.8157 173.291 49.9709 175.069 48.2158C172.697 48.2463 171.171 46.7223 171.021 44.6097C172.178 46.0117 173.485 46.5575 175.017 46.5575Z" fill="white"/>
<path fill-rule="evenodd" clip-rule="evenodd" d="M150.048 37.9015C150.048 36.1743 149.943 35.02 148.813 35.02C148.298 35.02 148.046 35.1211 147.595 35.2719C147.995 41.1135 146.676 46.2575 145.065 46.2575C142.952 46.2575 144.007 33.7374 139.53 33.7374C135.404 33.7374 134.812 43.7317 134.343 43.7317C134.023 43.7317 133.975 41.1074 133.991 39.1073C134.165 38.1465 134.258 37.2868 134.258 36.6329C134.258 35.7018 133.88 34.0923 131.766 34.897C131.841 42.042 130.41 46.3622 128.799 46.3622C126.435 46.3622 126.41 39.8824 126.41 38.0968C126.41 36.3531 126.535 34.0225 123.945 34.8526C123.556 41.0865 121.924 45.792 120.893 45.792C119.357 45.792 119.666 35.0208 116.344 35.0208C113.36 35.0208 112.437 45.2218 111.814 45.2218C110.701 45.2218 112.162 33.7374 107.852 33.7374C105.589 33.7374 104.691 37.5728 103.805 41.8633C103.633 42.6951 103.452 42.7195 103.423 41.7822C103.4 40.9809 103.393 40.1792 103.402 39.3776C104.491 35.0644 103.163 33.4715 101.165 34.6206C101.809 42.58 98.1563 46.4711 95.3524 46.4711C94.3384 46.4711 93.5424 46.0404 92.946 45.3595C96.3079 43.2984 97.8015 40.9321 97.8015 38.6217C97.8015 36.1159 96.3629 34.6738 93.9739 34.6738C90.6382 34.6738 88.7741 38.1073 88.7741 41.0254C88.7741 42.5965 89.0662 43.9305 89.55 45.0308C88.4044 45.5775 87.3242 46.05 86.3189 46.5086C86.2317 43.5059 85.8917 40.3523 85.6336 37.4438C83.8593 36.9546 83.3406 37.8082 83.2037 39.388C82.8898 42.9932 81.5541 45.2296 80.3736 45.2296C79.4843 45.2296 78.9428 44.1485 78.8775 43.0002C78.5479 37.2214 83.2394 35.6137 85.692 36.4516C86.2012 35.1778 85.6423 34.2597 83.4295 34.2597C80.7441 34.2597 78.738 35.8901 77.2671 37.9826C76.2845 39.3776 75.1511 40.3672 73.6436 41.5642C73.682 41.2199 73.7029 40.8755 73.7029 40.5372C73.7029 36.462 71.4944 34.6738 69.3862 34.6738C67.6416 34.6738 66.5457 35.7201 65.9092 37.3243C65.7523 35.7157 65.4323 35.0208 64.4968 35.0208C64.0957 35.0208 63.5403 35.1342 62.9422 35.4236C63.216 36.3217 63.3224 38.3139 63.3224 39.6252C63.3224 44.5251 61.9186 46.7205 60.5672 46.7205C59.024 46.7205 58.7782 40.9086 58.6491 38.647C58.4076 38.5543 58.151 38.507 57.8923 38.5075C56.4965 38.5075 56.3142 40.3837 55.9699 42.1083C55.588 44.0194 54.4868 46.4232 52.8564 46.4232C51.8712 46.4232 51.2565 45.4729 51.1798 43.764C51.0194 40.3 53.9018 36.1944 58.412 37.4717C59.0031 36.0915 58.0754 35.0409 56.2035 35.0409C52.907 35.0409 50.1815 37.5083 48.9931 40.4282C47.7865 43.1048 45.6739 47.037 41.3773 47.037C38.3432 47.037 36.0223 44.3917 36.0223 38.8388C36.0223 34.0522 39.0389 29.5054 42.2588 29.5054C44.5108 29.5054 45.0331 31.7199 44.8352 33.8002C46 34.7375 47.9146 33.8665 47.9146 31.5264C47.9146 29.9134 46.6051 27.1792 42.3782 27.1792C37.1461 27.1792 32.5234 32.3965 32.5234 39.2529C32.5234 45.8896 35.8924 49.813 40.6615 49.813C43.6695 49.813 46.5092 48.0954 48.4691 44.9288C48.9617 47.7014 50.852 48.8688 52.2688 48.8688C54.5609 48.8688 56.0579 47.3857 56.8757 45.3752C57.3858 47.3892 58.4625 48.8766 60.2499 48.8766C61.5106 48.8766 62.4932 48.2393 63.2334 47.2149C62.9405 54.2099 62.5691 58.6695 66.7026 57.7907C66.0644 55.8028 65.8604 52.1819 65.8604 48.9316C65.8604 40.0359 67.3277 37.109 69.1665 37.109C70.4987 37.109 70.9303 38.8074 70.9303 40.6191C70.9303 41.5895 70.8379 42.7047 70.5903 43.7117C68.3313 45.1372 66.5265 46.2619 66.5265 47.6918C66.5265 48.8226 67.3652 48.9281 68.0915 48.9281C69.8265 48.9281 71.9147 47.2253 73.069 44.0125C74.0787 43.4022 75.09 42.702 76.0587 41.7491C76.0264 42.0752 76.0064 42.403 76.0064 42.7378C76.0064 45.928 77.404 47.8539 79.6325 47.8539C81.3789 47.8539 82.6893 46.6159 83.6135 44.7614C83.6719 45.8303 83.7076 46.8147 83.7242 47.7214C80.1818 49.3579 76.261 51.0232 76.261 55.6441C76.261 58.0348 77.9873 59.8352 80.2367 59.8352C85.1715 59.8352 86.2962 54.6267 86.3433 48.5759C87.9493 47.8784 89.1464 47.3413 90.5274 46.6595C91.7079 48.1364 93.3122 48.8775 94.7848 48.8775C97.5704 48.8775 99.6612 47.4014 101.341 44.4092C101.639 46.6865 102.23 48.8775 103.44 48.8775C105.648 48.8775 106.095 37.3339 107.737 37.3339C108.995 37.3339 107.961 49.8244 111.281 49.8244C114.124 49.8244 114.657 38.8327 116.041 38.8327C117.022 38.8327 117.096 48.8793 120.191 48.8793C121.713 48.8793 123.365 47.0501 124.193 43.2173C124.581 45.7667 125.87 48.8793 128.385 48.8793C129.852 48.8793 131.114 47.3945 132.088 45.4205C132.356 47.452 132.932 48.8793 134.043 48.8793C136.935 48.8793 136.839 37.3601 139.128 37.3601C140.914 37.3601 140.361 48.8793 144.612 48.8793C146.635 48.8793 147.594 47.1547 148.164 44.9925C148.946 48.1739 150.211 48.8793 151.25 48.8793C151.908 48.8793 152.406 48.6473 153.058 47.8696C149.771 46.4432 150.048 41.2539 150.048 37.9015ZM80.4433 57.6808C79.4224 57.6808 78.8827 56.7122 78.8827 55.6145C78.8827 52.6614 81.0519 51.0929 83.7251 49.7468C83.603 56.2047 82.1025 57.6808 80.4433 57.6808ZM93.722 36.7471C94.7159 36.7471 95.2852 37.66 95.1867 38.973C95.0708 40.5154 93.9487 42.2792 91.9983 43.6663C90.9782 40.7674 91.7358 36.7471 93.722 36.7471ZM125.218 32.3808C126.165 32.3485 126.827 31.5351 126.83 30.5673C126.834 29.5995 126.18 28.8401 125.232 28.8741C124.285 28.9064 123.512 29.7181 123.508 30.6868C123.503 31.6545 124.269 32.4131 125.218 32.3808ZM148.777 32.8717C149.64 32.8412 150.343 32.0669 150.347 31.1454C150.351 30.222 149.654 29.5001 148.79 29.5306C147.926 29.562 147.224 30.3363 147.22 31.2578C147.217 32.1803 147.914 32.9031 148.777 32.8717ZM180.805 40.5372C180.734 36.8866 178.996 33.8063 176.319 31.3476C174.286 29.4905 171.87 28.0807 169.337 27.0188C169.133 26.9327 168.928 26.8493 168.722 26.7686H168.721C165.603 30.5045 154.804 33.2928 154.804 41.1257C154.804 44.1877 156.737 47.0509 159.577 48.2001C161.223 48.8226 162.87 48.8566 164.518 48.303C165.983 47.8217 167.188 46.9132 168.19 45.8059C171.361 42.2992 172.652 36.8605 176.543 36.8605C180.104 36.8605 180.583 39.395 180.811 40.7674C180.811 40.7639 180.809 40.668 180.805 40.5372Z" fill="white"/>
</svg>
