<svg width="214" height="81" viewBox="0 0 214 81" fill="none" xmlns="http://www.w3.org/2000/svg">
<path d="M98.3683 43.2051H107.043L102.456 35.8254L94.0375 49.1682H90.2062L100.446 33.1405C100.891 32.4931 101.633 32.1018 102.456 32.1018C103.252 32.1018 103.994 32.4795 104.426 33.1136L114.706 49.1682H110.875L109.067 46.1867H100.284L98.3685 43.2051H98.3683ZM138.167 46.1864V32.2636H134.916V47.5492C134.916 47.9674 135.078 48.3723 135.388 48.6826C135.699 48.9928 136.117 49.1682 136.575 49.1682H151.402L153.318 46.1867H138.167L138.167 46.1864ZM84.3777 43.6905C87.5349 43.6905 90.0983 41.1408 90.0983 37.9839C90.0983 34.8267 87.5349 32.2633 84.3777 32.2633H70.1539V49.1685H73.4042V35.2454H84.1621C85.6731 35.2454 86.8872 36.4733 86.8872 37.9844C86.8872 39.4951 85.6731 40.7228 84.1621 40.7228L74.9962 40.7095L84.7016 49.1685H89.4236L82.8939 43.691H84.378L84.3777 43.6905ZM50.1467 49.1682C45.4801 49.1685 41.6929 45.3908 41.6929 40.7228C41.6929 36.0546 45.4801 32.2639 50.1467 32.2639H59.9724C64.6401 32.2639 68.4244 36.0546 68.4244 40.7228C68.4244 45.3908 64.6401 49.1682 59.9721 49.1682H50.1467ZM59.7539 46.1867C62.7772 46.1867 65.2259 43.7446 65.2259 40.7226C65.2259 37.7008 62.7772 35.2454 59.7539 35.2454H50.3642C47.3418 35.2454 44.8918 37.7008 44.8918 40.7228C44.8918 43.7446 47.3418 46.1867 50.3639 46.1867H59.7536H59.7539ZM121.492 49.1682C116.825 49.1682 113.033 45.3908 113.033 40.7228C113.033 36.0546 116.825 32.2639 121.492 32.2639H133.163L131.26 35.2454H121.708C118.686 35.2454 116.231 37.7008 116.231 40.7228C116.231 43.7446 118.686 46.1867 121.708 46.1867H133.432L131.516 49.1682H121.492ZM161.251 46.1867C158.755 46.1867 156.637 44.5139 155.99 42.2067H169.886L171.801 39.2251H155.99C156.637 36.9316 158.755 35.2454 161.251 35.2454H170.79L172.719 32.2633H161.035C156.367 32.2633 152.576 36.0544 152.576 40.7223C152.576 45.3905 156.367 49.168 161.035 49.168H171.059L172.975 46.1867H161.251H161.251Z" fill="white"/>
</svg>
