<svg width="214" height="81" viewBox="0 0 214 81" fill="none" xmlns="http://www.w3.org/2000/svg">
<path d="M60.6243 20.5637C59.8386 21.5822 59.4022 22.8349 59.4022 24.1153C59.4022 24.5518 59.4022 34.8866 59.4022 35.2649C59.344 36.1087 59.0239 36.8944 58.5001 37.5652C58.2091 37.8562 56.4907 39.3985 56.3452 39.5745L57.3055 39.6036C57.6256 39.3126 60.9444 36.3721 61.2645 35.9647C62.2248 34.9171 62.7777 33.548 62.7777 32.1221C62.7777 31.6565 62.7777 21.847 62.7777 21.409C62.7486 20.3323 63.156 19.2542 63.9126 18.4685C64.32 18.032 65.6004 16.9553 65.8332 16.6934L64.8147 16.6643C64.6125 16.9247 60.9735 20.2145 60.6243 20.5637Z" fill="white"/>
<path d="M52.4458 61.1127L56.4921 64.6353H59.1999C61.7912 64.6353 64.2938 63.6168 66.1285 61.782C67.7872 60.1234 68.3998 57.8812 68.3998 55.786V49.9937C68.3707 48.6842 67.8178 47.4315 66.8284 46.5585C66.6538 46.3839 65.4607 45.249 65.4607 45.249V49.7027C65.4607 49.7027 66.7702 51.0413 67.003 51.3032C68.1961 52.5836 68.1961 54.913 64.3825 58.6102C63.7133 59.2504 61.8203 61.056 59.2013 61.056L52.4458 61.1127Z" fill="white"/>
<path d="M63.7106 37.331C63.2741 37.7966 62.8376 38.9606 62.8376 40.0096V42.1921H65.0506C65.9236 42.1921 67.06 41.4064 67.2928 40.999C67.2928 40.9699 67.2928 38.8165 67.2928 38.8165C67.6129 39.2821 68.0203 39.7186 68.4859 40.0678C68.7187 39.7768 70.7571 37.331 72.4449 37.3019C75.269 37.2728 74.6288 40.8535 73.4925 41.9884C73.1142 42.3667 71.4555 43.8799 70.9303 44.3761C69.5917 45.6564 67.2913 45.0453 67.2913 41.7556C67.2913 41.7556 64.8455 44.0851 64.4672 44.4052C64.0889 44.7252 62.8376 46.0638 62.8376 46.0638V51.8561C62.8376 54.6221 61.9355 55.5533 61.1789 56.3972C60.8879 56.7173 57.7728 59.5705 57.3363 59.8906L56.3178 59.9197C56.3178 59.9197 58.1511 58.261 58.5003 57.8827C58.9077 57.4462 59.4024 56.5732 59.4024 55.1168C59.4024 54.7385 59.3442 46.0347 59.3442 46.0347H45.1391C40.1907 46.0347 39.1431 40.5625 39.114 39.077C39.114 38.6405 39.114 34.2741 39.114 33.5757C39.114 32.6736 38.532 31.159 37.6299 30.6934H39.0267C39.2013 30.7516 40.0743 31.1008 40.0743 34.4778C40.0743 34.4778 40.0161 38.3786 40.0161 38.6114C40.0161 40.3283 41.3838 42.2794 43.3349 42.2794L59.4038 42.2503C59.4038 41.8138 59.8403 40.1842 60.626 39.3098C61.0625 38.8151 64.5268 35.6709 64.9051 35.3508H65.9236C65.7781 35.4963 64.0904 36.9804 63.7397 37.3877L63.7106 37.331ZM68.9791 40.6207C69.3865 41.1736 69.8521 41.7265 70.3468 42.2212C72.0928 43.618 72.9091 42.1048 71.7436 40.5334C71.2795 39.8918 69.5029 40.0664 68.9791 40.6207Z" fill="white"/>
<path d="M51.7446 50.9828C51.7446 51.7685 49.2696 53.836 49.1241 53.9524C48.9496 53.1086 48.3094 52.2065 46.4746 50.3426L49.1823 47.6349C51.0171 49.4696 51.7446 49.877 51.7446 50.9828Z" fill="white"/>
<path d="M56.4619 19.8653C57.0148 20.4182 58.1788 21.8732 57.4804 22.6022C56.8693 23.2132 55.909 24.2026 55.909 24.2026C55.8508 23.8534 54.9487 22.9805 54.9487 22.9805C54.9487 22.9805 54.9487 25.6009 54.9487 25.921C54.9196 27.1141 54.4831 27.4342 54.4831 27.4342C54.4831 27.4342 56.667 29.589 56.667 32.3826C56.667 33.7212 56.667 34.9739 56.667 35.2358C56.6961 35.7596 56.4924 36.3125 56.1142 36.6908C55.9105 36.9236 53.9011 38.9606 53.581 39.2239C53.1154 39.6313 52.5334 39.8641 51.9223 39.835H44.3826C43.1895 39.835 41.9658 38.9038 41.9658 37.9726C41.9658 37.7398 41.9949 35.1776 41.9949 35.1776C42.3732 35.6141 42.7806 36.1379 43.7118 36.1379C44.4684 36.1379 45.225 35.5559 45.4287 35.3231C45.6324 35.0903 51.1337 29.3853 51.1337 29.3853C51.1337 29.3853 48.5715 26.9977 46.8837 25.8628C46.0689 25.3099 44.9631 26.0083 44.7885 26.7358C44.2647 29.007 44.7885 32.4408 44.7885 32.4408L42.7224 30.3747C41.8785 29.5308 41.9076 27.6379 42.9261 26.6485C43.0716 26.4739 44.6139 24.7861 46.5359 24.7861H49.5347C51.5426 24.7861 53.7556 26.794 53.7556 26.794C53.9302 26.5903 54.0466 26.3575 54.0757 26.0956C54.0757 25.048 54.0466 22.2821 54.0466 22.2821C52.5334 20.7689 52.3297 19.196 53.0572 18.4685C54.4249 17.1008 54.9196 16.6353 54.9196 16.6353C54.9196 16.6353 54.8614 18.2925 56.4619 19.8653ZM47.0015 35.0015C46.2449 35.7872 46.1285 35.9618 45.4302 36.3983H53.9302C56.2306 36.3983 55.7635 34.9725 55.3561 34.2435C54.5122 32.7594 51.8336 30.0226 51.8336 30.0226C51.8336 30.0226 47.147 34.8561 47.0015 35.0015Z" fill="white"/>
<path d="M37.3084 42.7449H35.9116C35.9116 42.7449 37.3957 43.5597 37.3957 45.6854V52.4685C37.3957 56.8641 41.0346 60.9395 45.4593 60.9395H49.1564C51.3694 60.9395 52.1551 60.4157 53.4937 59.2226C53.9884 58.7861 54.6286 58.0586 54.8614 57.7967C55.618 56.9237 56.4619 56.2253 56.4619 53.9541V51.7411C56.4619 49.8205 55.3561 49.0333 54.8032 48.4804C54.454 48.1312 53.5228 47.2291 53.5228 47.2291V51.7702C53.5228 51.7702 54.454 52.7595 54.8614 53.0796C56.782 54.5928 55.2688 57.2133 53.4646 57.2133C53.1154 57.2133 45.8667 57.2133 45.3429 57.2133C42.3732 57.2715 38.3269 54.6219 38.3269 50.1391V46.4711C38.356 42.7449 37.3084 42.7449 37.3084 42.7449Z" fill="white"/>
<path d="M46.2143 51.012C46.2143 51.7977 43.7394 53.8652 43.5939 53.9816C43.4193 53.1377 42.7791 52.2356 40.9443 50.3718L43.6521 47.6641C45.4577 49.4697 46.2143 49.8771 46.2143 51.012Z" fill="white"/>
<path d="M92.218 48.8909H87.8515C86.4838 48.8909 86.6002 47.756 86.4547 46.7957V40.5669C86.4547 40.5669 87.415 40.5378 88.4917 40.5378C89.6848 40.5378 91.1995 40.3632 92.6545 41.178C91.8979 39.5775 90.2668 38.5867 88.4917 38.6449H86.4838V36.637C86.4838 36.637 86.4838 34.891 86.0473 34.3948H88.9297C91.4046 34.3948 93.3252 34.3657 95.3345 35.6752C95.3345 35.6752 94.9563 32.3855 90.1533 32.3855H80.7803C80.7803 32.3855 82.4099 33.7823 82.3517 36.6064L82.4099 47.9597C82.4099 50.8129 83.5448 50.9002 83.5448 50.9002H92.7723C94.869 50.9002 95.5964 49.4161 95.5964 48.5999L95.6255 47.5232C95.6241 47.5232 94.9548 48.8909 92.218 48.8909Z" fill="white"/>
<path d="M116.786 47.9293V39.9821C116.786 36.8961 114.282 36.0813 112.39 36.0813C109.915 36.0813 109.159 38.1474 108.839 38.8763C108.286 36.9557 106.335 36.0813 104.763 36.0813C101.764 36.0813 101.008 38.9345 101.008 38.9345C101.008 38.9345 100.95 36.1686 98.5329 36.1686H96.1758C96.1758 36.1686 97.5435 36.7215 97.5435 39.1091V47.9293C97.5435 50.8407 98.7075 50.8989 98.7075 50.8989H102.608C101.677 50.2005 101.124 49.0947 101.124 47.9002V40.0694C101.182 39.7202 101.764 38.5562 103.425 38.5562C104.385 38.5562 105.434 39.5456 105.403 40.6529V47.9307C105.403 50.8712 106.567 50.9003 106.567 50.9003H110.468C109.537 50.1728 108.984 49.0962 108.984 47.9016V40.0709C109.362 38.936 110.585 38.2958 111.75 38.6741C112.623 38.9651 113.234 39.7508 113.263 40.6834C113.263 40.6834 113.263 47.3211 113.263 47.9322C113.292 50.9018 114.427 50.8727 114.427 50.8727C116.464 50.8727 118.328 50.8727 118.328 50.8727C117.368 50.1714 116.815 49.0947 116.786 47.9293Z" fill="white"/>
<path d="M123.598 47.9304C123.598 49.0944 124.151 50.2016 125.082 50.9C125.082 50.9 123.22 50.9 121.181 50.9C121.181 50.9 119.988 50.9291 119.988 47.9595V39.0812C119.988 36.7517 118.649 36.1406 118.649 36.1406H121.008C121.852 36.1406 123.57 36.1406 123.57 39.4304V47.8722L123.598 47.9304Z" fill="white"/>
<path d="M135.591 37.2757C135.591 37.2757 135.213 36.2281 133.612 36.2281C131.167 36.2281 130.585 39.1396 130.585 39.1396C130.381 36.8392 129.77 36.1699 128.051 36.1699H125.693C125.693 36.1699 127.061 36.7228 127.061 39.1104V47.9306C127.061 50.842 128.225 50.9002 128.225 50.9002H132.125C131.194 50.2018 130.641 49.096 130.641 47.9306V40.6818C130.729 40.0707 131.078 39.5178 131.602 39.1977C132.911 38.3248 134.629 38.5867 135.648 39.7797L135.591 37.2757Z" fill="white"/>
<path d="M153.726 37.7996C154.541 37.7996 155.328 38.0033 156.025 38.3816V36.1685H152.766V32.7915C152.068 33.8973 151.164 34.8867 150.146 35.732C149.04 36.6341 146.712 37.769 146.712 37.769L149.185 37.7981V48.0441C149.185 50.8974 150.38 50.8974 150.38 50.8974C152.504 50.8974 154.252 50.8974 154.252 50.8974C153.32 50.2281 152.768 49.1514 152.737 48.015V37.7981C153.785 37.7996 153.086 37.7996 153.726 37.7996Z" fill="white"/>
<path d="M165.544 42.2529C163.36 44.5241 161.643 44.1735 160.275 45.8627C160.275 45.8627 160.508 48.1339 162.225 48.9196C162.807 49.1815 165.224 50.0545 166.766 47.3773V49.765C166.766 49.765 165.777 50.929 162.603 50.929C158.791 50.929 156.171 47.9302 156.171 43.8548C156.171 39.8376 158.295 36.1405 162.343 36.1114C166.271 36.0532 168.426 39.2556 165.544 42.2529ZM163.158 41.3217C163.798 40.1286 164.322 37.1008 162.109 37.2754C159.546 37.4791 160.043 44.2622 160.043 44.2622C160.887 43.331 162.168 43.1273 163.158 41.3217Z" fill="white"/>
<path d="M121.793 34.9755C122.783 34.9464 123.539 34.1316 123.539 33.1713C123.51 32.1819 122.696 31.4253 121.735 31.4253C120.775 31.4544 119.989 32.2401 119.989 33.2004C119.988 34.1898 120.803 34.9755 121.793 34.9755Z" fill="white"/>
<path d="M139.638 49.2092C138.765 49.2092 138.125 48.278 138.125 47.3468C138.125 43.6788 141.123 43.155 141.938 42.1947V48.3944C141.558 48.6854 141.209 49.2092 139.638 49.2092ZM141.937 40.7688C141.035 42.3402 133.99 42.6894 135.066 48.1339C135.503 50.2873 136.929 50.929 138.734 50.929C140.48 50.929 141.558 50.0269 141.995 49.1539C142.257 50.7835 143.101 50.8999 143.101 50.8999C145.139 50.8999 147.001 50.8999 147.001 50.8999C146.07 50.2015 145.488 49.1248 145.488 47.9593V39.663C145.488 37.6842 143.304 36.1405 140.976 36.1405C139.667 36.1114 138.414 36.4897 137.337 37.2172V39.7794C137.337 39.7794 138.152 37.7424 140.162 37.7424C142.14 37.7424 142.286 38.7318 142.286 39.2265C142.315 39.7488 142.228 40.3017 141.937 40.7688Z" fill="white"/>
<path d="M174.162 46.8814C174.191 47.929 173.259 49.2982 171.279 49.2982C169.241 49.2982 168.426 47.2321 168.426 47.2321V49.8525C169.533 50.5509 170.812 50.9001 172.123 50.9001C174.773 50.9001 177.48 48.8908 177.421 46.0681C177.392 45.1369 177.073 44.2348 176.519 43.5059C175.617 42.3128 173.987 41.4689 172.705 40.6817C171.978 40.2452 171.599 39.4304 171.599 39.1685C171.57 38.6739 171.832 37.6845 173.782 37.6845C175.704 37.6845 176.548 39.7214 176.548 39.7214V37.2465C175.471 36.4899 174.162 36.0825 172.822 36.0825C170.492 36.0825 168.368 37.6248 168.426 39.605C168.455 41.351 169.183 42.4583 170.61 43.535C171.25 44.0006 171.919 44.408 172.618 44.7863C173.725 45.3973 174.132 46.1539 174.162 46.8814Z" fill="white"/>
</svg>
