<svg width="214" height="81" viewBox="0 0 214 81" fill="none" xmlns="http://www.w3.org/2000/svg">
<path d="M59.6205 33.4191C59.3628 32.9037 58.9333 32.2164 58.3319 31.701C58.0742 31.4433 57.7306 31.2714 57.3011 31.1855C56.9574 31.0996 56.6138 31.0137 56.2702 31.0137H56.1843C55.7547 31.0137 54.8957 31.0996 54.3802 31.7869C54.1225 32.0446 54.0366 32.4741 54.1225 32.9037C54.2084 33.2473 54.3802 33.505 54.7239 33.5909C54.7239 33.5909 54.8098 33.5909 54.9816 33.6768C54.8957 33.6768 54.8098 33.8486 54.8098 33.8486C54.638 34.1063 54.2084 34.5359 53.0057 34.5359H52.9198C52.3185 34.5359 51.8031 34.3641 51.2017 33.5909C50.8581 33.0755 50.6004 32.3023 50.6004 30.9278C50.6004 30.2406 50.5145 29.6392 50.3427 29.2097C50.2568 28.8661 49.999 28.6084 49.7413 28.4365C49.5695 28.2647 49.3118 28.1788 48.9682 28.0929C48.6245 27.8352 48.1091 27.8352 47.6796 27.8352C47.1641 27.8352 46.9064 27.9211 46.7346 28.1788C46.7346 28.1788 46.7346 28.2647 46.6487 28.2647H46.3051C46.0474 28.2647 45.7896 28.3506 45.5319 28.3506C45.0165 28.4365 44.7588 28.6084 44.4151 28.8661C44.3292 28.952 44.0715 29.2097 43.9856 29.5533C43.8997 29.811 43.9856 29.9829 44.0715 30.0688C44.0715 30.0688 44.0715 30.1547 44.1574 30.1547C44.3292 29.9829 44.587 29.8969 45.0165 29.8969C45.5319 29.8969 46.3051 30.1547 46.5628 30.5842C46.9064 31.1855 46.8205 31.6151 46.7346 32.2164C46.5628 33.6768 45.9615 34.45 44.8447 34.6218H44.2433C43.3843 34.6218 42.7829 34.3641 42.5252 33.8486C42.3534 33.6768 42.3534 33.5909 42.3534 33.5909C42.3534 33.5909 42.4393 33.5909 42.5252 33.505C42.8688 33.3332 43.0406 33.1614 43.1266 32.8178C43.2125 32.4741 43.1266 32.0446 42.8688 31.701C42.4393 31.2714 41.838 31.0137 41.0648 31.0137C40.6353 31.0137 40.2917 31.0996 40.0339 31.1855C39.0031 31.4433 38.2299 32.1305 37.6286 33.4191C37.199 34.2782 36.8554 35.4808 36.7695 36.6835C36.6836 37.8862 36.6836 38.9171 36.7695 39.862C36.9413 41.4084 37.199 42.3533 37.5427 43.2983C37.8863 44.3292 38.4017 45.2741 38.9172 46.1332C39.089 46.4768 39.1749 46.6486 39.2608 46.7345C39.3467 46.6486 39.4326 46.5627 39.5185 46.3909C39.6903 46.2191 40.2917 45.4459 40.4635 45.1882C40.7212 45.0164 40.9789 44.501 41.1507 44.1574L41.2366 43.9855L41.4084 44.1574C41.5802 44.3292 41.6662 44.501 41.6662 44.7587C41.6662 45.0164 41.5802 45.2741 41.4943 45.7896C41.3225 46.305 41.0648 46.9923 40.7212 47.5077C40.7212 47.5936 40.6353 47.6795 40.6353 47.6795C40.4635 48.0231 40.3776 48.1949 40.4635 48.2808C40.5494 48.2808 40.8071 48.1949 41.0648 47.9372C41.3225 47.7654 41.9239 47.25 42.697 46.1332C43.2984 45.36 43.7279 44.501 44.1574 43.556L44.2433 43.3842L44.4151 43.4701C44.5011 43.4701 44.587 43.556 44.587 43.6419C44.6729 43.8137 44.6729 43.9855 44.6729 44.2433C44.587 44.8446 44.2433 45.7037 43.9856 46.305C43.5561 47.3359 42.697 48.5386 42.0957 49.3976C42.0957 49.3976 41.9239 49.5694 41.9239 49.6553C42.0098 49.7412 42.0957 49.8272 42.2675 49.9131L42.5252 50.0849C43.3843 50.7721 44.1574 51.3735 45.1883 51.8889C45.9615 52.3184 47.5937 53.1775 48.6245 53.4352C49.6554 53.1775 51.2876 52.3184 52.0608 51.8889C53.0917 51.2876 53.8648 50.7721 54.7239 50.0849L54.9816 49.9131C55.1534 49.8272 55.2393 49.6553 55.3252 49.6553C55.3252 49.6553 55.2393 49.5694 55.2393 49.4835L55.1534 49.3976C54.5521 48.5386 53.693 47.3359 53.2635 46.305C53.0057 45.7037 52.6621 44.7587 52.5762 44.2433C52.5762 43.9855 52.5762 43.8137 52.6621 43.6419C52.6621 43.556 52.748 43.556 52.8339 43.4701C52.9198 43.3842 53.0057 43.3842 53.0057 43.3842L53.0917 43.556C53.5212 44.501 54.0366 45.2741 54.5521 46.1332C55.3252 47.25 55.9266 47.7654 56.1843 47.9372C56.442 48.109 56.6997 48.2808 56.7856 48.2808H56.8715C56.9574 48.1949 56.8715 48.0231 56.6997 47.6795C56.6997 47.5936 56.6138 47.5077 56.6138 47.5077C56.2702 46.9063 56.0125 46.305 55.8406 45.7896C55.6688 45.2741 55.5829 45.0164 55.5829 44.7587C55.5829 44.501 55.6688 44.2433 55.8406 44.1574L56.0125 44.0714L56.0984 44.2433C56.2702 44.5869 56.6138 45.1023 56.6997 45.2741C56.8715 45.5318 57.4729 46.2191 57.6447 46.4768L57.9024 46.7345C57.9883 46.6486 58.0742 46.4768 58.246 46.2191V46.1332C58.7615 45.2741 59.191 44.3292 59.6205 43.2983C59.9641 42.2674 60.2219 41.4084 60.3937 39.862C60.4796 38.9171 60.5655 37.8862 60.3937 36.6835C60.3937 35.4808 60.136 34.2782 59.6205 33.4191Z" fill="white"/>
<path d="M176.85 35.9085C176.136 34.6142 174.597 33.6327 172.925 33.6327C171.454 33.6327 170.16 34.235 170.16 35.7966C170.16 37.1116 171.789 38.0035 173.484 39.0969C175.334 40.2563 177.252 41.6825 177.252 44.159C177.252 47.3927 174.108 49.3766 170.473 49.3766C168.979 49.3766 167.419 49.0869 165.657 48.418L165.946 44.1138C166.794 45.8317 168.378 47.1912 170.718 47.1912C172.524 47.1912 173.862 46.3222 173.862 44.805C173.862 43.5115 172.768 42.7092 171.432 41.9069C168.621 40.2126 166.839 38.851 166.839 36.3989C166.839 32.7185 169.915 31.4924 173.104 31.4924C174.954 31.4924 176.114 31.8273 177.295 31.8273L176.85 35.9085ZM161.264 39.7652C160.861 40.4349 160.35 41.3476 160.036 42.018C159.77 43.2886 159.636 44.9843 159.636 46.8564C159.636 47.6372 159.77 48.6847 160.126 49.0418H155.466C156.29 48.2617 156.626 43.4685 156.582 41.9513C155.957 39.7888 155.108 37.7146 153.816 35.1943C152.993 33.6119 152.033 32.1162 151.43 31.8273C152.478 31.7391 153.816 31.6717 154.463 31.6717C155.622 31.6717 155.935 31.8273 156.649 33.3889C157.762 35.9091 158.587 37.8028 159.079 39.2088C160.261 37.3575 161.085 36.087 162.156 34.3475C162.423 33.9238 162.646 33.3889 162.646 32.8755C162.646 32.4733 162.579 32.028 162.401 31.8273H167.017C166.125 32.028 162.111 38.3391 161.264 39.7652ZM145.053 35.8647L142.289 41.8617H146.792L145.053 35.8647ZM150.472 49.1974C148.999 49.1974 148.888 49.1536 147.706 45.0954L147.283 43.6011C146.57 43.9353 145.298 44.0916 143.269 44.0916H141.218L140.861 44.8495C140.348 45.9881 139.657 47.3238 139.657 48.2624C139.657 48.4854 139.679 48.7299 139.769 49.0425H127.594C128.285 48.2624 128.508 45.7428 128.843 41.1705L128.909 40.0785C129.088 37.4693 129.223 35.4625 129.2 34.0586C129.177 32.8992 129.066 32.1628 128.754 31.8287H133.459C132.79 32.3421 132.544 35.1061 132.233 39.6784L132.143 40.7704C132.031 42.4654 131.809 44.2042 131.809 45.8991C131.809 46.6785 132.121 46.8571 132.924 46.8571C135.777 46.8571 136.492 46.7904 137.784 45.9207C138.587 44.4487 139.502 42.5973 140.393 40.6801L141.599 38.1161C142.735 35.7077 143.849 33.2541 143.849 32.7866C143.849 32.4511 143.76 32.1399 143.628 31.8273H147.373C147.373 31.8273 148.889 37.4471 149.224 38.6502L149.959 41.3713C151.23 45.9429 152.033 48.172 153.104 49.0418C152.21 49.1536 150.94 49.1974 150.472 49.1974ZM120.125 49.3766C115.687 49.3766 113.122 45.7199 113.122 41.6172C113.122 35.9091 116.221 31.4924 122.131 31.4924C123.981 31.4924 124.852 31.8273 126.344 31.8273L125.899 36.2203C125.052 34.6816 123.669 33.6334 121.819 33.6334C118.14 33.6334 116.646 37.6034 116.646 41.0149C116.646 44.7161 118.72 46.7445 121.484 46.7445C122.978 46.7445 124.293 46.343 126.502 44.805C125.61 47.6601 123.535 49.3766 120.125 49.3766ZM104.739 33.9238C104.315 33.9238 103.801 33.9238 103.401 33.9682C103.267 34.7038 103.155 35.9751 102.999 38.0257L102.909 39.231C103.134 39.2762 103.423 39.2991 103.691 39.2991C105.83 39.2991 107.303 38.0042 107.303 36.0432C107.303 34.7038 106.367 33.9238 104.739 33.9238ZM110.959 49.7781C109.689 49.7781 109.376 49.5767 108.953 48.9966L104.136 42.307C103.757 41.7943 103.467 41.3706 102.866 41.3706H102.754L102.666 42.664C102.553 44.4257 102.486 45.8317 102.486 46.8793C102.508 48.0387 102.643 48.7514 102.955 49.0418H98.2947C98.9629 48.4395 99.2074 46.4326 99.5874 41.1698L99.6548 40.0778C99.8334 37.4916 99.9674 35.484 99.9445 34.0801C99.9215 32.8533 99.7889 32.0947 99.4534 31.8273H105.808C107.882 31.8273 110.736 32.185 110.736 35.5514C110.736 38.3154 108.885 39.8326 106.589 40.5453C106.812 40.7468 107.213 41.2594 107.459 41.5721L110.959 46.2103C113.144 49.0869 113.322 49.2203 114.104 49.6218C113.122 49.733 111.807 49.7781 110.959 49.7781ZM89.2425 35.8647L86.4534 41.8617H90.9799L89.2425 35.8647ZM94.6595 49.1974C93.1889 49.1974 93.077 49.1536 91.8954 45.0954L91.4717 43.6011C90.7568 43.9353 89.4863 44.0916 87.4572 44.0916H85.4058L85.0495 44.8495C84.6924 45.6532 83.8227 47.3038 83.8449 48.2624C83.8449 48.4854 83.8672 48.7084 83.9568 49.0425H79.8319C81.0135 47.8609 82.5077 45.1183 84.5813 40.6808L85.7859 38.1168C86.8778 35.798 88.0379 33.1666 88.0379 32.7873C88.0379 32.4518 87.9498 32.1406 87.815 31.828H91.562C91.562 31.828 92.5414 35.5521 93.4119 38.651L94.1475 41.372C95.4188 45.9436 96.2211 48.1728 97.2916 49.0425C96.333 49.1536 95.1284 49.1974 94.6595 49.1974ZM73.4312 33.9016C73.0964 33.9016 72.6511 33.9016 72.2273 33.9467C72.0488 35.1506 71.937 36.3099 71.8488 37.5805C71.8488 37.5805 71.7814 38.6725 71.7814 38.628H72.2273C74.4128 38.628 76.4204 37.8702 76.4204 35.8647C76.4204 34.7039 75.461 33.9016 73.4312 33.9016ZM72.8748 40.7245H71.6487L71.4702 43.2663C71.3813 44.382 71.3361 45.3177 71.3139 46.4326C71.3139 46.5896 71.8043 46.9237 72.963 46.9237C75.3714 46.9237 76.9553 45.7199 76.9553 43.7345C76.9553 41.5269 75.1484 40.7245 72.8748 40.7245ZM73.1423 49.0418H67.1216C67.8802 48.3721 68.0809 45.7636 68.415 41.1698L68.4817 40.1C68.661 37.4909 68.7943 35.484 68.7721 34.0801C68.7499 32.8755 68.6158 32.0947 68.281 31.8273H75.0151C76.6204 31.8273 79.8319 31.9169 79.8319 35.261C79.8319 37.4908 77.7576 38.8732 75.8625 39.3651C78.5384 39.6325 80.5453 40.9253 80.5453 43.6901C80.5446 46.6778 77.7354 49.0418 73.1423 49.0418Z" fill="white"/>
</svg>
