<svg width="214" height="81" viewBox="0 0 214 81" fill="none" xmlns="http://www.w3.org/2000/svg">
<path d="M141.656 51.1521C140.364 51.0566 138.971 50.7319 137.865 50.2687C137.615 50.164 137.438 49.2115 137.312 49.1636L137.053 47.8883C137.019 46.752 136.977 45.4966 136.958 45.0988L136.924 44.3752H137.851L137.968 45.2652C138.409 48.5901 140.165 50.2634 143.214 50.2634C145.238 50.2634 146.494 49.504 147.126 47.8963C147.323 47.3949 147.353 47.1363 147.357 45.9208C147.362 44.5376 147.359 44.5152 147.036 43.8552C146.47 42.6971 145.898 42.3131 143.046 41.1777C142.2 40.8408 141.195 40.4078 140.813 40.2152C138.323 38.9603 137.089 37.1798 137.094 34.8482C137.101 31.8653 138.761 29.7123 141.657 28.9329C142.665 28.6618 145.12 28.6914 146.171 28.9876C147.157 29.2651 148.46 29.781 148.598 29.9487C148.657 30.0202 148.724 30.8644 148.755 31.9102C148.784 32.9201 148.824 33.9821 148.844 34.2703L148.881 34.7942H147.942L147.736 33.7433C147.256 31.2962 146.13 30.0064 144.19 29.6831C142.62 29.4212 140.717 30.0274 139.968 31.0278C139.398 31.7883 139.226 32.3841 139.226 33.5966C139.226 34.5607 139.25 34.6913 139.521 35.2293C139.873 35.9282 140.373 36.3853 141.31 36.8638C141.966 37.199 144.181 38.0878 144.361 38.0878C144.536 38.0878 146.526 39.0801 147.04 39.4235C148.472 40.3789 149.269 41.661 149.552 43.4643C149.691 44.3458 149.698 44.6397 149.595 45.4565C149.364 47.307 148.824 48.4537 147.686 49.5152C146.227 50.876 144.449 51.3585 141.656 51.152V51.1521ZM106.446 51.0172C103.287 50.4121 101.794 48.7497 101.378 45.3758C101.314 44.8548 101.274 41.7225 101.274 37.217V29.9039H98.8926V29.0059H106.731V29.8981L105.466 29.9261L104.201 29.954L104.172 36.4411C104.134 44.8821 104.229 46.2414 104.965 47.7439C105.69 49.226 107.092 49.9642 109.18 49.9642C111.549 49.9642 112.869 49.0785 113.581 47.0119C114.037 45.6902 114.072 44.9918 114.073 37.2146L114.073 29.9041H111.692V29.0059H117.447V29.9041H115.272L115.241 37.8632C115.21 45.7385 115.208 45.8309 114.989 46.6208C114.343 48.9547 113.067 50.2623 110.849 50.8617C109.813 51.1417 107.518 51.2228 106.446 51.0175L106.446 51.0172ZM118.756 50.443L118.786 50.014L119.977 49.9981L121.168 49.9823L121.193 39.9462L121.218 29.9102L120.002 29.8821L118.786 29.8541L118.756 29.4299L118.725 29.0059H123.599C126.681 29.0059 128.734 29.0465 129.186 29.1167C130.909 29.3846 132.085 30.1456 132.718 31.4009C133.264 32.4835 133.432 33.8393 133.177 35.1058C132.904 36.4642 132.341 37.3015 131.212 38.0279C130.448 38.5186 129.957 38.7217 129.006 38.9392C128.57 39.039 128.175 39.1522 128.13 39.1906C128.086 39.2291 128.353 39.2915 128.726 39.3292C132.559 39.7187 134.237 41.4077 134.237 44.8742C134.237 46.7827 133.787 48.0023 132.67 49.1179C131.985 49.8016 131.154 50.2559 129.983 50.5861C129.234 50.7973 129.007 50.8068 123.965 50.8389L118.725 50.8722L118.756 50.443ZM127.796 49.8151C129.49 49.3715 130.623 48.1975 130.999 46.496C131.236 45.426 131.155 43.4644 130.84 42.6287C130.457 41.6125 129.81 40.7989 129.023 40.341C128.235 39.8832 127.664 39.7843 125.813 39.7843H124.095V49.964H125.661C126.73 49.964 127.409 49.9168 127.796 49.8151ZM127.791 38.6495C129.432 38.1165 130.389 36.4779 130.372 34.2298C130.355 31.885 129.17 30.1978 127.353 29.9315C127.062 29.889 126.209 29.8678 125.459 29.8845L124.095 29.9148V34.3337C124.095 36.7642 124.128 38.7878 124.169 38.8305C124.298 38.9654 127.277 38.8165 127.791 38.6495Z" fill="white"/>
<path d="M78.18 57.0738C77.8676 56.9831 77.8575 56.9635 77.8575 56.4421C77.8575 55.9145 77.8512 55.9027 77.5351 55.841C76.9452 55.726 75.9286 55.2591 75.4538 54.8849C73.7046 53.5067 73.1053 51.3515 73.8929 49.2727C74.3964 47.9434 75.7858 46.755 77.2884 46.3682C78.0144 46.1814 77.9801 45.9723 77.2126 45.908L76.6173 45.8581V44.8601L77.2373 44.8304L77.8575 44.8007V42.2604C77.8575 40.8634 77.8366 39.7202 77.8114 39.7202C77.7859 39.7202 77.0377 40.3153 76.1485 41.0426C75.2593 41.7699 74.4094 42.4612 74.2599 42.579C74.1104 42.6967 73.9886 42.8315 73.9894 42.8784C73.9902 42.9254 74.1422 43.1434 74.3272 43.363C74.6536 43.7505 74.6589 43.7703 74.5044 44.0339C74.417 44.1833 74.2223 44.3487 74.0721 44.4012C73.8216 44.4891 73.7658 44.4581 73.4046 44.0299C73.1206 43.6932 72.9799 43.5926 72.901 43.6701C72.8217 43.7483 72.8789 43.965 73.1092 44.4602C73.3845 45.0517 73.4327 45.2782 73.4719 46.1644C73.509 47.0055 73.4804 47.3067 73.3101 47.8694C72.8418 49.4162 71.7206 50.5437 70.1825 51.0148C69.6235 51.1861 69.332 51.2142 68.5453 51.173C67.4505 51.1157 66.8189 50.9029 65.9273 50.2909C65.6141 50.0758 65.324 49.9019 65.2824 49.9041C65.2408 49.9064 65.0551 50.0387 64.8696 50.1982C64.5503 50.4729 64.517 50.4806 64.2512 50.3423C63.9778 50.2002 63.6689 49.7432 63.6689 49.4809C63.6689 49.4094 63.8339 49.2119 64.0355 49.0416L64.4022 48.7319L64.1378 48.1187C62.9759 45.4237 64.1593 42.4808 66.8017 41.494C67.2804 41.3152 67.5833 41.2765 68.4316 41.2858C69.6577 41.2991 70.2593 41.4872 71.2829 42.1777C72.0929 42.7238 72.2934 42.6328 71.7497 41.9654C71.3817 41.5134 71.3759 41.4941 71.5309 41.2345C71.6186 41.0877 71.8107 40.9236 71.9579 40.8695C72.2026 40.7795 72.2606 40.8116 72.6355 41.2431L73.0453 41.7148L75.1787 39.9745C76.3518 39.0173 77.3117 38.1874 77.3117 38.13C77.3117 38.0729 76.3742 37.2651 75.2283 36.3351L73.1445 34.6442L72.8716 34.9054C72.5212 35.2411 72.5273 35.4379 72.8965 35.7124C73.2599 35.9827 73.2623 36.0307 72.9322 36.4252L72.6704 36.7384L72.357 36.4329C71.9824 36.0677 71.9416 36.0627 71.6952 36.352C71.2932 36.8242 71.2901 36.8873 71.658 37.1392C71.8473 37.2688 72.0025 37.4251 72.0028 37.4861C72.0036 37.6167 71.6233 38.1238 71.525 38.1231C71.4349 38.1225 69.5805 36.6318 69.5434 36.5298C69.5273 36.4858 69.9848 36.1904 70.5603 35.8733C71.1358 35.5564 71.6066 35.2625 71.6066 35.2201C71.6066 35.1776 71.4776 35.0506 71.3199 34.9377L71.0332 34.7322L70.0662 35.2832C69.5342 35.5861 69.0827 35.8176 69.0626 35.7975C69.0427 35.7774 69.1778 35.2814 69.3627 34.6951L69.699 33.6291L69.4454 33.4285C69.306 33.3181 69.1494 33.2421 69.0975 33.2595C69.0455 33.2768 68.8505 33.7812 68.6641 34.3802C68.4778 34.9793 68.3076 35.487 68.2859 35.5088C68.2457 35.549 66.2487 33.9364 66.2487 33.8638C66.2487 33.7683 66.6912 33.2332 66.7701 33.2332C66.8181 33.2332 67.0142 33.3536 67.2058 33.5006L67.5544 33.768L67.8442 33.4561C68.0035 33.2846 68.1339 33.1128 68.1339 33.0745C68.1339 33.0361 67.9685 32.861 67.7664 32.6853L67.3989 32.3656L67.6424 32.0564C67.9409 31.6774 67.9813 31.6734 68.3504 31.9858C68.5127 32.1229 68.6791 32.2352 68.7205 32.2352C68.8162 32.2352 69.3261 31.6632 69.3201 31.5624C69.3175 31.5206 68.9401 31.1947 68.4812 30.838C67.5525 30.116 67.4794 29.9449 67.8901 29.4537C68.4057 28.8374 67.9161 28.5173 73.7894 33.3094C76.9646 35.9 77.7456 36.5267 77.799 36.5267C77.8312 36.5267 77.8575 35.3815 77.8575 33.9817V31.4368H76.8653V32.4347H75.9723V31.4368H74.9801V32.4347H74.0871V29.743L74.5585 29.9301C74.8177 30.0329 75.3166 30.2343 75.6669 30.3778C76.0173 30.5212 76.3412 30.6383 76.3864 30.6383C76.4315 30.6383 76.4683 30.47 76.4678 30.2641L76.4672 29.8898L75.3626 29.4511L74.2578 29.0123L75.3632 28.5674L76.4684 28.1225V27.7338C76.4684 27.5198 76.4471 27.3449 76.4209 27.3449C76.3947 27.3449 75.9146 27.5295 75.3544 27.755L74.2112 28.2148C74.1157 28.2531 74.0872 27.9529 74.0872 26.9064V25.5485H74.9803V26.5465H75.9723V25.5485H76.8653V26.5465H77.8575V24.2587L78.2398 24.1553C78.5096 24.0822 78.7143 24.084 78.9345 24.1611L79.2467 24.2706V30.4093C79.2467 35.6006 79.2679 36.5397 79.3842 36.4949C79.5061 36.4478 82.216 34.2618 86.8888 30.4406C87.7359 29.748 88.4843 29.1469 88.5517 29.1048C88.7406 28.9876 89.0447 29.1249 89.2524 29.4217C89.6648 30.0109 89.6441 30.0652 88.7262 30.7994C88.2602 31.1721 87.8789 31.5147 87.8789 31.5608C87.8789 31.6886 88.3013 32.2352 88.4003 32.2352C88.4483 32.2352 88.6457 32.1138 88.8391 31.9654L89.1907 31.6957L89.4718 32.0402L89.7532 32.3849L89.3622 32.7341L88.9713 33.0835L89.2814 33.424C89.4938 33.6572 89.63 33.7359 89.7135 33.6736C90.3848 33.1724 90.3526 33.1806 90.6082 33.4418C90.7375 33.5742 90.8571 33.7341 90.8742 33.7973C90.9081 33.9235 88.9772 35.5448 88.8715 35.479C88.8354 35.4565 88.6573 34.942 88.4756 34.3357C88.2939 33.7293 88.0965 33.2346 88.0369 33.2365C87.9774 33.2383 87.8249 33.3265 87.6985 33.4326L87.4683 33.6256L87.8108 34.7268C87.9992 35.3323 88.1317 35.828 88.1054 35.828C88.079 35.828 87.6116 35.5763 87.0666 35.2687L86.0759 34.7093L85.7874 34.9871L85.4989 35.2652L86.1185 35.6096C86.459 35.7991 86.9539 36.0763 87.2181 36.2259L87.6982 36.4978L86.6627 37.3483L85.627 38.1988L85.3494 37.849L85.0719 37.499L85.4509 37.1788L85.83 36.8587L85.5529 36.4931C85.4003 36.292 85.2538 36.1274 85.2272 36.1274C85.2007 36.1274 85.01 36.2618 84.8038 36.4262L84.4287 36.7249L84.1598 36.3703L83.8908 36.0156L84.2657 35.6895L84.6406 35.3636L84.3519 35C84.1052 34.6889 84.0387 34.6539 83.8926 34.7581C83.4719 35.058 79.7533 38.079 79.7485 38.1247C79.7453 38.153 79.9996 38.3776 80.3133 38.6238C80.6271 38.87 81.6109 39.6666 82.4995 40.3939C83.3881 41.1211 84.1333 41.7163 84.1553 41.7163C84.1773 41.7163 84.3397 41.5142 84.5161 41.2672C84.8953 40.7358 85.103 40.7053 85.5157 41.1203L85.8162 41.4226L85.5553 41.7442C85.2166 42.1612 85.0505 42.4975 85.139 42.5865C85.1777 42.6254 85.2664 42.614 85.3361 42.5611C85.9958 42.0595 86.7952 41.6001 87.2173 41.4801C89.6671 40.784 91.8943 41.7179 92.9643 43.8896L93.3857 44.7453V46.0002C93.3857 47.2968 93.3781 47.3297 92.7822 48.6564C92.7565 48.7134 92.9157 48.893 93.1359 49.0556C93.4682 49.301 93.5262 49.3935 93.4783 49.6006C93.416 49.8696 93.0969 50.2589 92.8121 50.4133C92.6741 50.4882 92.5471 50.4332 92.2326 50.1623L91.8297 49.8153L91.3772 50.1627C90.4501 50.8746 89.492 51.1991 88.3293 51.1951C86.9537 51.1902 85.9569 50.7827 85.051 49.8553C84.3474 49.1346 83.9708 48.473 83.7654 47.596C83.5026 46.4748 83.601 45.4828 84.0842 44.3816C84.2724 43.9526 84.3091 43.7745 84.226 43.6909C84.143 43.6074 84.0654 43.6407 83.9247 43.8199C83.3175 44.5938 83.3845 44.5522 83.0389 44.3725C82.8664 44.2827 82.6762 44.1169 82.6161 44.004C82.5024 43.7904 82.527 43.7342 83.0132 43.1008L83.2143 42.8387L81.3314 41.3051C80.2959 40.4615 79.4024 39.7559 79.346 39.7369C79.2764 39.7136 79.2519 40.5204 79.2697 42.2314L79.2962 44.7602L79.8892 44.7907C80.5314 44.824 80.6327 44.9016 80.6327 45.359C80.6327 45.8166 80.5314 45.894 79.8892 45.9273C79.0435 45.971 79.1047 46.1742 80.0458 46.4471C81.2966 46.8101 82.1874 47.4667 82.8961 48.5485C83.7522 49.8551 83.8453 51.732 83.1278 53.2178C82.6392 54.2297 81.335 55.3332 80.2566 55.6472C79.2207 55.9487 79.2467 55.9275 79.2467 56.475C79.2467 56.9365 79.2276 56.973 78.9342 57.0759C78.5811 57.1996 78.6137 57.1998 78.18 57.0738ZM77.8761 54.1947C77.9044 53.7873 77.9349 53.7408 78.2295 53.6563C78.4276 53.5996 78.6765 53.5996 78.8746 53.6563C79.1724 53.7417 79.2008 53.7869 79.2467 54.2446C79.2925 54.7027 79.3152 54.7384 79.5444 54.7143C80.0274 54.6635 81.0027 54.0948 81.4718 53.5904C82.1999 52.8072 82.4619 52.1361 82.4642 51.0478C82.4653 50.5537 82.4076 49.9799 82.3361 49.7727C81.8498 48.3625 80.1207 47.9651 79.3727 49.0914C78.9269 49.7625 79.1733 50.7998 79.8635 51.1588C80.1674 51.3168 80.9011 51.3146 81.256 51.1546C81.4097 51.0852 81.4294 51.1392 81.4294 51.6262C81.4294 52.153 81.4166 52.1805 81.117 52.2855C80.4042 52.5354 79.3306 52.2935 78.9072 51.7873C78.7735 51.6276 78.6452 51.4969 78.6221 51.4969C78.5988 51.4969 78.4237 51.645 78.2327 51.8261C77.6797 52.3507 76.861 52.5213 76.0582 52.2794L75.6747 52.1638V51.6201C75.6747 51.1366 75.6939 51.0857 75.8483 51.161C75.9439 51.2076 76.298 51.2461 76.6357 51.2465C77.1811 51.2473 77.2836 51.2143 77.5557 50.952C78.1651 50.3646 78.1645 49.3704 77.5547 48.7974C76.636 47.9341 75.1277 48.6482 74.7789 50.1118C74.4196 51.6178 75.0204 53.2611 76.2383 54.1041C76.7315 54.4454 77.671 54.8147 77.7769 54.7087C77.8143 54.6712 77.859 54.4399 77.8761 54.1947ZM69.9767 49.9059C71.0368 49.5312 71.98 48.6333 72.2078 47.7822C72.3931 47.09 72.2486 46.5274 71.759 46.0351C71.3807 45.6544 71.2852 45.6086 70.8706 45.6086C70.073 45.6086 69.4775 46.0961 69.3561 46.8486C69.2729 47.3649 69.6303 48.0372 70.1165 48.2793L70.5013 48.4709L70.0934 48.7862C69.869 48.9597 69.6255 49.1017 69.5524 49.1017C69.4791 49.1017 69.2218 48.9186 68.9802 48.6945C68.4365 48.1903 68.1829 47.5761 68.2661 46.9647L68.3262 46.5246L67.8356 46.4569C67.0835 46.3528 66.3419 45.7312 66.0505 44.9605C65.9559 44.7103 65.9801 44.6556 66.3208 44.3527C66.5267 44.1698 66.7216 44.0181 66.7539 44.0159C66.7861 44.0136 66.8644 44.1852 66.9273 44.3974C67.0822 44.9165 67.7052 45.359 68.2814 45.359C69.0633 45.359 69.7215 44.6934 69.7215 43.9026C69.7215 43.0361 68.9894 42.4142 67.9715 42.4159C66.1339 42.419 64.5418 44.5731 64.8685 46.6141C64.9801 47.3112 65.1982 47.9039 65.3431 47.9039C65.3961 47.9039 65.575 47.7895 65.7403 47.6495C66.0296 47.4047 66.0526 47.401 66.347 47.5542C66.5153 47.6418 66.7286 47.8727 66.821 48.0676L66.989 48.4219L66.6188 48.7631C66.4153 48.9507 66.2487 49.1214 66.2487 49.1425C66.2487 49.2544 67.331 49.8551 67.7251 49.962C68.4208 50.1505 69.3503 50.1274 69.9767 49.9057V49.9059ZM89.9324 49.7572C90.2707 49.6038 90.6279 49.3887 90.7262 49.2791C90.9002 49.0856 90.8963 49.0728 90.5826 48.8092C90.209 48.4952 90.1771 48.2367 90.4664 47.867C90.8478 47.3792 91.0268 47.3496 91.4632 47.7023L91.8528 48.0173L92.0735 47.5366C92.255 47.1411 92.2942 46.8785 92.2942 46.0577C92.2942 45.1647 92.2647 44.9992 92.0141 44.4859C91.5933 43.6236 90.8581 42.8668 90.2016 42.6198C89.0314 42.1793 88.0308 42.4553 87.5951 43.3389C87.2864 43.9653 87.361 44.3892 87.8709 44.9017C88.5214 45.5562 89.3595 45.5357 89.9575 44.8505C90.1241 44.6598 90.2603 44.393 90.2603 44.2578C90.2603 43.9388 90.3359 43.9475 90.7833 44.3183C91.206 44.6688 91.2259 44.7753 90.9644 45.2882C90.6316 45.9409 89.9366 46.4066 89.2543 46.434L88.855 46.4501L88.9181 46.8729C89.0135 47.5134 88.8005 48.0799 88.2584 48.6275C88.0003 48.8884 87.7175 49.1017 87.6298 49.1017C87.5421 49.1017 87.2936 48.9587 87.0774 48.784L86.6845 48.4664L86.9592 48.3475C87.4417 48.1391 87.7045 47.7597 87.7584 47.1928C87.8211 46.536 87.5888 46.0667 87.069 45.7999C86.3016 45.4061 85.5757 45.6178 85.1422 46.3619C84.5458 47.3856 85.1165 48.7756 86.4577 49.5663C87.1609 49.9807 87.6559 50.1007 88.5238 50.067C89.1342 50.0432 89.4597 49.9716 89.9324 49.7572Z" fill="white"/>
</svg>
