<svg width="214" height="81" viewBox="0 0 214 81" fill="none" xmlns="http://www.w3.org/2000/svg">
<g clip-path="url(#clip0_2660_3161)">
<path d="M38.6685 28.0737H43.4579V38.7145H53.5592V28.0737H58.3548V54.1936H53.5592V43.3293H43.4579V54.1936H38.6685V28.0737ZM73.5277 45.6859C73.5277 47.8725 71.7463 49.6517 69.5603 49.6517C67.3735 49.6517 65.5931 47.8725 65.5931 45.6859V34.4404H61.0511V45.6859C61.0511 50.3774 64.8685 54.1936 69.5603 54.1936C74.251 54.1936 78.0682 50.3774 78.0682 45.6859V34.4404H73.5277V45.6859ZM90.7479 34.5722C88.4949 34.5722 86.9222 35.226 85.4034 36.7168V28.0737H80.8466V44.0918C80.8466 50.0874 85.1815 54.1936 90.0517 54.1936C95.466 54.1936 100.21 50.0142 100.21 44.3831C100.21 38.8234 95.8354 34.5722 90.7479 34.5722ZM90.8612 49.978C87.7734 49.978 85.4123 47.3992 85.4123 44.3831C85.4123 41.3665 87.7734 38.7869 90.8612 38.7869C93.4775 38.7869 95.84 41.3665 95.84 44.3831C95.84 47.3992 93.4775 49.978 90.8612 49.978ZM107.863 35.7202C107.863 33.4295 109.39 32.7033 111.06 32.7033C112.406 32.7033 114.186 33.7206 115.347 34.9563L118.326 31.4684C116.837 29.4702 113.822 28.089 111.351 28.089C106.409 28.089 102.848 30.9597 102.848 35.7202C102.848 44.5495 113.713 41.7507 113.713 46.6936C113.713 48.218 112.224 49.5637 110.517 49.5637C107.827 49.5637 106.955 48.2556 105.72 46.8744L102.412 50.2895C104.521 52.8696 107.136 54.1783 110.262 54.1783C114.949 54.1783 118.728 51.2714 118.728 46.7288C118.728 36.9186 107.863 39.9712 107.863 35.7202ZM130.724 34.3162C125.854 34.3162 121.519 38.4199 121.519 44.4169V60.4763H126.075V51.7921C127.594 53.2819 129.166 53.9368 131.42 53.9368C136.507 53.9368 140.882 49.6861 140.882 44.1264C140.882 38.4945 136.137 34.3162 130.724 34.3162ZM131.534 49.7226C128.446 49.7226 126.085 47.1403 126.085 44.1264C126.085 41.1098 128.446 38.5302 131.534 38.5302C134.149 38.5302 136.512 41.1098 136.512 44.1264C136.512 47.1403 134.149 49.7226 131.534 49.7226ZM174.424 49.978C171.736 49.978 170.973 48.8158 170.973 47.0346V39.1502H175.151V35.1538H170.973V29.8847L166.36 31.9553V48.0157C166.36 52.1221 169.193 54.1936 173.079 54.1936C173.66 54.1936 174.461 54.156 174.897 54.0484L176.024 49.9066C175.515 49.9418 174.934 49.978 174.424 49.978Z" fill="white"/>
<path d="M162.407 39.3826C161.533 37.8797 160.304 36.6748 158.768 35.7677C157.62 35.0994 156.43 34.6753 155.088 34.4931V29.7176C156.43 29.148 157.262 27.8873 157.262 26.4166C157.262 24.412 155.655 22.7875 153.652 22.7875C151.647 22.7875 150.011 24.412 150.011 26.4166C150.011 27.8873 150.796 29.148 152.137 29.7176V34.4952C151.064 34.6503 149.951 34.9849 148.935 35.4989C146.859 33.9224 140.053 28.7507 136.071 25.73C136.166 25.3896 136.238 25.0387 136.238 24.6684C136.238 22.4481 134.44 20.6484 132.219 20.6484C129.998 20.6484 128.201 22.4481 128.201 24.6684C128.201 26.8885 130 28.6887 132.221 28.6887C132.979 28.6887 133.679 28.4671 134.284 28.1028L135.124 28.7402L146.67 37.0592C146.06 37.6197 145.491 38.2571 145.037 38.9724C144.115 40.4305 143.552 42.0349 143.552 43.7849V44.1501C143.552 45.3785 143.785 46.5383 144.183 47.6279C144.533 48.5792 145.045 49.4442 145.679 50.2262L141.847 54.0675C141.292 53.8608 140.689 53.8184 140.11 53.9453C139.531 54.0723 139.001 54.3632 138.583 54.7833C138.294 55.0712 138.064 55.4137 137.908 55.7909C137.752 56.168 137.673 56.5724 137.674 56.9806C137.674 57.8104 137.998 58.5903 138.585 59.177C138.872 59.4666 139.215 59.6962 139.592 59.8525C139.969 60.0088 140.373 60.0887 140.781 60.0876C141.19 60.0887 141.594 60.0087 141.971 59.8524C142.349 59.6961 142.691 59.4666 142.979 59.177C143.268 58.8891 143.497 58.5468 143.653 58.1698C143.81 57.7928 143.889 57.3886 143.888 56.9806C143.888 56.6594 143.839 56.3461 143.745 56.0483L147.706 52.087C148.249 52.4621 148.836 52.7779 149.466 53.0502C150.71 53.5878 152.082 53.9154 153.584 53.9154H153.86C155.52 53.9154 157.087 53.5253 158.559 52.7274C160.111 51.8842 161.326 50.7311 162.243 49.259C163.166 47.7829 163.674 46.152 163.674 44.3577V44.2681C163.674 42.503 163.265 40.8745 162.407 39.3826ZM157.567 47.6922C156.492 48.8869 155.257 49.6228 153.86 49.6228H153.629C152.832 49.6228 152.051 49.4023 151.287 49.0012C150.426 48.5596 149.771 47.9297 149.235 47.1321C148.682 46.3492 148.381 45.4944 148.381 44.5882V44.3129C148.381 43.4219 148.552 42.5771 148.983 41.7792C149.444 40.907 150.066 40.2288 150.893 39.6895C151.706 39.154 152.573 38.8914 153.54 38.8914H153.629C154.506 38.8914 155.335 39.0642 156.118 39.4647C156.916 39.8918 157.567 40.4753 158.072 41.2429C158.563 42.0107 158.855 42.8389 158.949 43.7412C158.964 43.9287 158.971 44.1208 158.971 44.3043C158.971 45.5288 158.503 46.6628 157.567 47.6922Z" fill="white"/>
</g>
<defs>
<clipPath id="clip0_2660_3161">
<rect width="137.363" height="40" fill="white" transform="translate(38.6523 20.6353)"/>
</clipPath>
</defs>
</svg>
