<?xml version="1.0" encoding="UTF-8"?>
<svg version="1.1" xmlns="http://www.w3.org/2000/svg" width="319" height="81">
<path d="M0 0 C0.66 0 1.32 0 2 0 C1.896875 1.03125 1.79375 2.0625 1.6875 3.125 C2.06520135 7.80849676 3.64829369 9.94780106 7 13 C12.25337799 17.18275285 17.22215803 19.44573226 23.5625 21.5625 C36.86358302 26.04472579 36.86358302 26.04472579 40.35546875 30.875 C41.18757685 33.61843518 41.2445063 36.13710752 41.3125 39 C41.51812289 43.86602583 41.51812289 43.86602583 44.5625 47.5625 C45.366875 48.036875 46.17125 48.51125 47 49 C47 49.99 47 50.98 47 52 C47.99 50.68 48.98 49.36 50 48 C50.67546875 48.74765625 51.3509375 49.4953125 52.046875 50.265625 C52.94786268 51.26046556 53.84890738 52.25525449 54.75 53.25 C55.63171875 54.22453125 56.5134375 55.1990625 57.421875 56.203125 C59.56498967 58.5280797 61.74365438 60.78582907 64 63 C63.48050781 63.35191406 62.96101563 63.70382813 62.42578125 64.06640625 C58.71773 66.69151462 55.69146185 69.09081751 53.125 72.875 C52.073125 74.421875 52.073125 74.421875 51 76 C50.34 76 49.68 76 49 76 C47.88554105 74.62383433 46.83270135 73.19742526 45.8125 71.75 C41.29308794 65.81710927 37.28626777 63.57716114 30.1875 61.625 C18.7736862 58.38617878 10.01311136 51.04082321 3.6875 41.125 C-0.9028947 32.83227061 -2.24950253 25.72162155 -2.3125 16.3125 C-2.32095947 15.10025757 -2.32095947 15.10025757 -2.32958984 13.86352539 C-2.26919867 8.88432418 -1.58665348 4.72203247 0 0 Z M1 17 C1.32094577 19.99549387 1.9549481 20.95752249 4.1875 23.0625 C9.64156561 26.85007767 9.64156561 26.85007767 16 28 C16 27.34 16 26.68 16 26 C15.33613281 25.68546875 14.67226563 25.3709375 13.98828125 25.046875 C9.24303558 22.74698951 4.95396814 20.55857132 1 17 Z M5 31 C6.42866181 34.43020287 6.83202458 34.91601229 10.375 36.6875 C16.74856501 38.82369487 24.49126867 40.04560127 31 38 C30.814375 38.763125 30.62875 39.52625 30.4375 40.3125 C29.77180827 43.08967375 29.77180827 43.08967375 31 46 C25.39 46 19.78 46 14 46 C14.99 47.485 14.99 47.485 16 49 C18.75863351 49.4038693 18.75863351 49.4038693 21.875 49.25 C23.44894531 49.22679687 23.44894531 49.22679687 25.0546875 49.203125 C27.52498345 49.03275976 29.63875322 48.70723334 32 48 C32.33 49.32 32.66 50.64 33 52 C30.36 52.99 27.72 53.98 25 55 C25.33 55.66 25.66 56.32 26 57 C26.73605469 56.77183594 27.47210937 56.54367188 28.23046875 56.30859375 C29.69419922 55.87740234 29.69419922 55.87740234 31.1875 55.4375 C32.63189453 55.00244141 32.63189453 55.00244141 34.10546875 54.55859375 C37.15830163 53.96945056 39.05578582 54.04299965 42 55 C42.495 55.99 42.495 55.99 43 57 C43.66 56.01 44.32 55.02 45 54 C44.45730469 53.82984375 43.91460937 53.6596875 43.35546875 53.484375 C42.64003906 53.24203125 41.92460938 52.9996875 41.1875 52.75 C40.47980469 52.51796875 39.77210937 52.2859375 39.04296875 52.046875 C36.45245934 50.71942467 35.43489942 49.53088088 34 47 C33.55859375 44.23828125 33.55859375 44.23828125 33.4375 41.3125 C33.35495277 38.45430027 33.35495277 38.45430027 33 36 C30.47204216 34.73602108 28.4118711 35.01587768 25.640625 35.11523438 C17.92928411 35.37556249 11.94106262 34.73749526 5 31 Z M34 60 C35.83700789 60.77242269 35.83700789 60.77242269 38 61 C39.77190909 59.64555699 39.77190909 59.64555699 41 58 C38.3534665 58 36.4191837 58.98139634 34 60 Z " fill="#00DACE" transform="translate(2,1)"/>
<path d="M0 0 C0.81791016 0.47179687 0.81791016 0.47179687 1.65234375 0.953125 C6.38577466 3.63944818 11.12351903 6.02121159 16.15234375 8.10546875 C18 9 18 9 20 11 C20 11.99 20 12.98 20 14 C20.99 14.33 21.98 14.66 23 15 C23.3125 17.3125 23.3125 17.3125 23 20 C20.5 21.8125 20.5 21.8125 18 23 C18 22.01 18 21.02 18 20 C16.68 20.33 15.36 20.66 14 21 C14.58652352 25.48993869 15.7643538 29.22543184 17.5625 33.375 C18.24505859 34.96441406 18.24505859 34.96441406 18.94140625 36.5859375 C19.29074219 37.38257813 19.64007813 38.17921875 20 39 C19.01 39 18.02 39 17 39 C17.66 39.61875 18.32 40.2375 19 40.875 C21 43 21 43 21 45 C11.5865656 40.64890143 6.51367965 33.0273593 2 24 C1.34 25.98 0.68 27.96 0 30 C-0.99 29.67 -1.98 29.34 -3 29 C-3.76681614 20.37757848 -3.76681614 20.37757848 -1.88671875 17 C-0.5 15.375 -0.5 15.375 2 13 C1.15115234 12.52820313 1.15115234 12.52820313 0.28515625 12.046875 C-0.44832031 11.61890625 -1.18179688 11.1909375 -1.9375 10.75 C-2.66839844 10.33234375 -3.39929687 9.9146875 -4.15234375 9.484375 C-6 8 -6 8 -7 4 C-2.545 4.99 -2.545 4.99 2 6 C1.34 5.01 0.68 4.02 0 3 C0 2.01 0 1.02 0 0 Z M13 12 C13.33 12.66 13.66 13.32 14 14 C14.99 13.67 15.98 13.34 17 13 C15.68 12.67 14.36 12.34 13 12 Z " fill="#00D7E1" transform="translate(47,17)"/>
<path d="M0 0 C0.639375 0.495 1.27875 0.99 1.9375 1.5 C1.2775 3.15 0.6175 4.8 -0.0625 6.5 C-1.0834375 6.005 -1.0834375 6.005 -2.125 5.5 C-5.70746824 4.28043634 -8.29695682 4.09654895 -12.0625 4.5 C-15.45189556 6.63679285 -16.78832557 7.6774767 -18.0625 11.5 C-18.40797151 16.85480837 -18.52612011 20.1384043 -15.0625 24.5 C-11.85869983 26.63586678 -11.04310033 26.73132175 -7.375 26.625 C-6.56675781 26.60695313 -5.75851563 26.58890625 -4.92578125 26.5703125 C-4.31089844 26.54710938 -3.69601563 26.52390625 -3.0625 26.5 C-3.0625 23.86 -3.0625 21.22 -3.0625 18.5 C-4.7125 18.5 -6.3625 18.5 -8.0625 18.5 C-8.0625 16.85 -8.0625 15.2 -8.0625 13.5 C-4.4325 13.5 -0.8025 13.5 2.9375 13.5 C2.9375 18.78 2.9375 24.06 2.9375 29.5 C-3.94271288 32.44866266 -8.88163428 34.06607918 -16.1171875 31.87890625 C-20.32502487 29.84722511 -22.5699485 27.03706778 -24.40234375 22.77734375 C-26.00546415 17.24705265 -26.08564798 11.79182696 -23.375 6.625 C-17.70553469 -1.03643961 -8.97108841 -4.39400249 0 0 Z " fill="#00D8DA" transform="translate(102.0625,29.5)"/>
<path d="M0 0 C15 0 15 0 20 3 C23.15045989 6.69364263 23.51984525 10.08477861 23.35546875 14.78125 C22.67926313 19.00196201 20.53714409 21.83389069 17.1875 24.375 C13.45202434 25.44227876 9.52479098 25.76239549 6 24 C6 27.63 6 31.26 6 35 C4.02 35 2.04 35 0 35 C0 23.45 0 11.9 0 0 Z M6 6 C5.9010706 8.16480797 5.870289 10.33293785 5.875 12.5 C5.87242187 13.6859375 5.86984375 14.871875 5.8671875 16.09375 C5.66789781 18.89259422 5.66789781 18.89259422 7 20 C10.52371092 20.39152344 12.37616451 20.41041808 15.375 18.4375 C17.62340519 15.06489221 17.56783945 12.97487617 17 9 C15.52006844 6.43661311 15.52006844 6.43661311 13 5 C9.19887944 4.39556412 9.19887944 4.39556412 6 6 Z " fill="#00DAD0" transform="translate(156,37)"/>
<path d="M0 0 C3.40457873 1.59740162 4.10407 4.73560344 5.37402344 8.06640625 C5.65691223 8.77289307 5.93980103 9.47937988 6.23126221 10.20727539 C7.13198335 12.46734603 8.01071416 14.73528615 8.88964844 17.00390625 C9.49634284 18.53309972 10.10439954 20.06175346 10.71386719 21.58984375 C15.13964844 32.74592955 15.13964844 32.74592955 15.13964844 34.00390625 C13.15964844 34.00390625 11.17964844 34.00390625 9.13964844 34.00390625 C8.14964844 32.02390625 7.15964844 30.04390625 6.13964844 28.00390625 C1.84964844 28.00390625 -2.44035156 28.00390625 -6.86035156 28.00390625 C-7.85035156 29.98390625 -8.84035156 31.96390625 -9.86035156 34.00390625 C-11.84035156 34.00390625 -13.82035156 34.00390625 -15.86035156 34.00390625 C-12.72431907 25.46884346 -9.49937231 16.97954435 -6.04785156 8.56640625 C-5.74613037 7.82720947 -5.44440918 7.0880127 -5.13354492 6.32641602 C-2.52019684 0.00529175 -2.52019684 0.00529175 0 0 Z M-0.86035156 10.00390625 C-1.53122276 11.62717495 -2.19692185 13.25258203 -2.86035156 14.87890625 C-3.23160156 15.78382812 -3.60285156 16.68875 -3.98535156 17.62109375 C-4.97525382 19.89374483 -4.97525382 19.89374483 -4.86035156 22.00390625 C-1.89035156 22.00390625 1.07964844 22.00390625 4.13964844 22.00390625 C3.68703486 20.56459508 3.22731865 19.12751626 2.76464844 17.69140625 C2.50941406 16.89089844 2.25417969 16.09039062 1.99121094 15.265625 C1.15133033 12.77666097 1.15133033 12.77666097 -0.86035156 10.00390625 Z " fill="#00D8D7" transform="translate(292.8603515625,27.99609375)"/>
<path d="M0 0 C0.33 3.96 0.66 7.92 1 12 C1.66 11.67 2.32 11.34 3 11 C7.18144011 10.60552452 9.30946048 10.54964814 12.875 12.875 C15.02147173 15.02147173 15.94012319 15.96033249 16.11352539 18.97119141 C16.10828857 19.75671387 16.10305176 20.54223633 16.09765625 21.3515625 C16.09443359 22.20234375 16.09121094 23.053125 16.08789062 23.9296875 C16.07951172 24.81914063 16.07113281 25.70859375 16.0625 26.625 C16.05798828 27.5221875 16.05347656 28.419375 16.04882812 29.34375 C16.03702591 31.56256648 16.02056155 33.78125018 16 36 C14.02 36 12.04 36 10 36 C9.67 29.73 9.34 23.46 9 17 C3.52174919 16.5527864 3.52174919 16.5527864 1 18 C0.67 23.94 0.34 29.88 0 36 C-1.98 36 -3.96 36 -6 36 C-6 24.45 -6 12.9 -6 1 C-2 0 -2 0 0 0 Z " fill="#00D8DB" transform="translate(190,26)"/>
<path d="M0 0 C0.61875 0.639375 1.2375 1.27875 1.875 1.9375 C6.07201536 6.14668062 10.56422757 10.04656399 15 14 C14.25234375 14.57492188 13.5046875 15.14984375 12.734375 15.7421875 C10.30361295 17.74930245 8.29833529 19.74131778 6.25 22.125 C5.65703125 22.80820313 5.0640625 23.49140625 4.453125 24.1953125 C2.93897026 25.94487827 2.93897026 25.94487827 2 28 C1.34 28 0.68 28 0 28 C-1.11445895 26.62383433 -2.16729865 25.19742526 -3.1875 23.75 C-6.40752692 19.45437585 -9.17006546 17.26711213 -14 15 C-14 14.34 -14 13.68 -14 13 C-13.154375 12.67 -12.30875 12.34 -11.4375 12 C-6.61963309 9.19687743 -2.51937817 5.03875635 0 0 Z " fill="#00E0AE" transform="translate(51,49)"/>
<path d="M0 0 C3.16645088 2.62363073 4.87863659 4.77475479 5.5078125 8.92578125 C5.78177436 14.35935813 4.88279544 17.60396909 1.1875 21.8125 C-1.80062362 24.16031141 -5.03161188 24.23075081 -8.78125 24.1328125 C-12.16679158 23.59893864 -14.25430448 22.00523902 -16.8125 19.8125 C-19.38014245 15.60930448 -19.49480714 11.61361245 -18.8125 6.8125 C-17.20535226 3.65560266 -15.83811766 1.61834244 -13.0625 -0.5625 C-8.41962268 -1.85218814 -4.38633678 -1.85200886 0 0 Z M-12.8125 7.8125 C-13.27298843 11.49640741 -13.24891373 13.86693692 -11.6875 17.25 C-9.82434014 19.07013262 -9.82434014 19.07013262 -6.8125 19.3125 C-3.80065986 19.07013262 -3.80065986 19.07013262 -1.9375 17.25 C-0.39059092 13.89836365 -0.42123824 11.46427642 -0.8125 7.8125 C-1.83240794 5.31151018 -1.83240794 5.31151018 -3.8125 3.8125 C-8.21431182 2.90956424 -10.30190294 4.18608202 -12.8125 7.8125 Z " fill="#00D9D4" transform="translate(230.8125,38.1875)"/>
<path d="M0 0 C1.98 0 3.96 0 6 0 C6.79423861 1.56119422 7.58527123 3.12401964 8.375 4.6875 C8.81585938 5.55761719 9.25671875 6.42773438 9.7109375 7.32421875 C10.92664268 9.84772799 11.99260958 12.38737532 13 15 C15.00384991 11.99422513 16.26119742 9.15022736 17.625 5.8125 C18.07101563 4.72582031 18.51703125 3.63914063 18.9765625 2.51953125 C19.31429687 1.68808594 19.65203125 0.85664062 20 0 C21.98 0 23.96 0 26 0 C24.05583467 5.35535651 22.05258299 10.68525617 20 16 C19.5671167 17.12849365 19.5671167 17.12849365 19.12548828 18.27978516 C18.27404851 20.46777071 17.39220872 22.64086448 16.5 24.8125 C16.24017334 25.48732422 15.98034668 26.16214844 15.71264648 26.85742188 C14.27441851 30.267716 13.15309304 31.89948233 10.03125 33.94921875 C7 35 7 35 3 35 C3 33.35 3 31.7 3 30 C4.98 29.34 6.96 28.68 9 28 C8.4556722 21.69270965 6.37192416 16.43566354 3.9375 10.625 C3.19533691 8.82604741 2.45438193 7.02659576 1.71484375 5.2265625 C1.38605225 4.43846191 1.05726074 3.65036133 0.71850586 2.83837891 C0 1 0 1 0 0 Z " fill="#00DACF" transform="translate(128,37)"/>
<path d="M0 0 C2.97 0.495 2.97 0.495 6 1 C6.99 0.67 7.98 0.34 9 0 C13.19987818 -0.38887761 15.29607238 -0.45908323 18.875 1.875 C21.02147173 4.02147173 21.94012319 4.96033249 22.11352539 7.97119141 C22.10828857 8.75671387 22.10305176 9.54223633 22.09765625 10.3515625 C22.09443359 11.20234375 22.09121094 12.053125 22.08789062 12.9296875 C22.07951172 13.81914063 22.07113281 14.70859375 22.0625 15.625 C22.05798828 16.5221875 22.05347656 17.419375 22.04882812 18.34375 C22.03702591 20.56256648 22.02056155 22.78125018 22 25 C20.02 25 18.04 25 16 25 C15.93941406 23.79601562 15.87882813 22.59203125 15.81640625 21.3515625 C15.73200268 19.77602923 15.64735459 18.20050904 15.5625 16.625 C15.52318359 15.8309375 15.48386719 15.036875 15.44335938 14.21875 C15.31106596 9.97398779 15.31106596 9.97398779 14 6 C11.69 6.33 9.38 6.66 7 7 C6.67 12.94 6.34 18.88 6 25 C4.02 25 2.04 25 0 25 C0 16.75 0 8.5 0 0 Z " fill="#00D9D6" transform="translate(240,37)"/>
<path d="M0 0 C1.98 0 3.96 0 6 0 C6 11.22 6 22.44 6 34 C4.02 34 2.04 34 0 34 C0 22.78 0 11.56 0 0 Z " fill="#00D7DD" transform="translate(311,28)"/>
<path d="M0 0 C1.98 0 3.96 0 6 0 C6 0.66 6 1.32 6 2 C6.99 1.34 7.98 0.68 9 0 C11.33199388 -0.07905064 13.66832622 -0.08798769 16 0 C16.33 0.66 16.66 1.32 17 2 C15.8125 4 15.8125 4 14 6 C11.4375 6.125 11.4375 6.125 9 6 C5.97906785 9.02093215 6.53323166 12.56372072 6.375 16.625 C6.33632812 17.42679688 6.29765625 18.22859375 6.2578125 19.0546875 C6.16346069 21.03607556 6.08063785 23.01800645 6 25 C4.02 25 2.04 25 0 25 C0 16.75 0 8.5 0 0 Z " fill="#00D8D9" transform="translate(110,37)"/>
</svg>
