<svg width="64" height="65" viewBox="0 0 64 65" fill="none" xmlns="http://www.w3.org/2000/svg">
<circle cx="32" cy="32.3169" r="32" fill="#00E1AD"/>
<path d="M27 31L31 22C31.7956 22 32.5587 22.3161 33.1213 22.8787C33.6839 23.4413 34 24.2044 34 25V29H39.66C39.9499 28.9967 40.2371 29.0565 40.5016 29.1752C40.7661 29.2939 41.0016 29.4687 41.1919 29.6875C41.3821 29.9063 41.5225 30.1638 41.6033 30.4423C41.6842 30.7207 41.7035 31.0134 41.66 31.3L40.28 40.3C40.2077 40.7769 39.9654 41.2116 39.5979 41.524C39.2304 41.8364 38.7623 42.0055 38.28 42H27M27 31V42M27 31H24C23.4696 31 22.9609 31.2107 22.5858 31.5858C22.2107 31.9609 22 32.4696 22 33V40C22 40.5304 22.2107 41.0391 22.5858 41.4142C22.9609 41.7893 23.4696 42 24 42H27" stroke="#111111" stroke-width="2" stroke-linecap="round" stroke-linejoin="round"/>
</svg>
