<svg width="64" height="65" viewBox="0 0 64 65" fill="none" xmlns="http://www.w3.org/2000/svg">
<circle cx="32" cy="32.4844" r="32" fill="#00E1AD"/>
<path fill-rule="evenodd" clip-rule="evenodd" d="M35.0598 25.8368L36.7463 26.5843C37.1444 26.7609 37.4645 27.0813 37.6369 27.4838L38.3344 29.1102C38.3919 29.2376 38.5724 29.2417 38.6299 29.1102L39.3521 27.455C39.5286 27.0525 39.8446 26.7363 40.2467 26.5596L41.9046 25.8368C42.0318 25.7793 42.0318 25.5985 41.9046 25.541L40.2467 24.8182C39.8446 24.6416 39.5286 24.3253 39.3521 23.9228L38.6299 22.2635C38.5724 22.1361 38.3919 22.1361 38.3344 22.2635L37.6122 23.9228C37.4358 24.3253 37.1197 24.6416 36.7177 24.8182L35.0598 25.541C34.9325 25.5985 34.9325 25.7793 35.0598 25.8368ZM26.0831 34.9977L27.1542 37.4867C27.2403 37.6838 27.5194 37.6838 27.6056 37.4867L28.7094 34.9524C28.9762 34.3404 29.4645 33.8517 30.076 33.5847L32.6079 32.4799C32.8049 32.3936 32.8049 32.1143 32.6079 32.0281L30.076 30.9232C29.4645 30.6563 28.9762 30.1675 28.7094 29.5555L27.6056 27.0214C27.5194 26.8242 27.2403 26.8242 27.1542 27.0214L26.0503 29.5555C25.7836 30.1675 25.2952 30.6563 24.6838 30.9232L22.1477 32.0322C21.9508 32.1185 21.9508 32.3977 22.1477 32.484L24.7289 33.6258C25.3404 33.8969 25.8246 34.3898 26.0913 35.0018L26.0831 34.9977Z" fill="#111111"/>
<path d="M35.6865 39.5475L34 38.8C33.8728 38.7425 33.8728 38.5618 34 38.5043L35.6579 37.7814C36.0599 37.6048 36.376 37.2885 36.5524 36.886L37.2747 35.2267C37.3321 35.0994 37.5127 35.0994 37.5702 35.2267L38.2924 36.886C38.4688 37.2885 38.7849 37.6048 39.1869 37.7814L40.8448 38.5043C40.9721 38.5618 40.9721 38.7425 40.8448 38.8L39.1869 39.5229C38.7849 39.6995 38.4688 40.0157 38.2924 40.4183L37.5702 42.0735C37.5127 42.2049 37.3321 42.2008 37.2747 42.0735L36.5771 40.447C36.4048 40.0445 36.0846 39.7241 35.6865 39.5475Z" fill="#111111"/>
</svg>
