<svg width="65" height="65" viewBox="0 0 65 65" fill="none" xmlns="http://www.w3.org/2000/svg">
<circle cx="32.667" cy="32.4844" r="32" fill="#00E1AD"/>
<path d="M35.3673 26.4677C35.1841 26.6546 35.0815 26.906 35.0815 27.1677C35.0815 27.4295 35.1841 27.6808 35.3673 27.8677L36.9673 29.4677C37.1543 29.6509 37.4056 29.7536 37.6673 29.7536C37.9291 29.7536 38.1804 29.6509 38.3673 29.4677L42.1373 25.6977C42.6402 26.8089 42.7924 28.0469 42.5738 29.2469C42.3552 30.4468 41.776 31.5515 40.9136 32.414C40.0512 33.2764 38.9464 33.8555 37.7465 34.0742C36.5466 34.2928 35.3085 34.1405 34.1973 33.6377L27.2873 40.5477C26.8895 40.9455 26.3499 41.169 25.7873 41.169C25.2247 41.169 24.6852 40.9455 24.2873 40.5477C23.8895 40.1499 23.666 39.6103 23.666 39.0477C23.666 38.4851 23.8895 37.9455 24.2873 37.5477L31.1973 30.6377C30.6945 29.5265 30.5423 28.2885 30.7609 27.0886C30.9795 25.8886 31.5586 24.7839 32.4211 23.9214C33.2835 23.059 34.3883 22.4799 35.5882 22.2612C36.7881 22.0426 38.0261 22.1949 39.1373 22.6977L35.3773 26.4577L35.3673 26.4677Z" stroke="#111111" stroke-width="2" stroke-linecap="round" stroke-linejoin="round"/>
</svg>
