<svg width="68" height="19" viewBox="0 0 68 19" fill="none" xmlns="http://www.w3.org/2000/svg">
<g id="Layer_1" clip-path="url(#clip0_4669_3012)">
<path id="Vector" d="M10.318 9.75375C11.338 7.43655 12.3519 5.26948 13.2393 3.05155C13.6043 2.13811 14.051 1.74041 15.0595 1.86208C15.9342 1.96741 16.8313 1.88387 17.795 1.88387C18.5293 6.74769 19.2538 11.5504 19.9869 16.4057H15.9112C15.5426 13.761 15.1691 11.0843 14.7635 8.17687C13.9457 9.93656 13.2224 11.4892 12.5032 13.0437C12.0625 13.9959 11.6122 14.9444 11.1993 15.9093C11.0292 16.3064 10.8192 16.482 10.3585 16.4747C9.89304 16.4681 9.63275 16.3397 9.43481 15.899C8.42209 13.6418 7.3773 11.3984 6.34158 9.15085C6.2308 8.91053 6.10732 8.67687 5.8785 8.21622C5.48806 11.0752 5.1285 13.712 4.76228 16.3948H0.666016C0.953547 14.4493 1.22897 12.5358 1.52013 10.6248C1.92934 7.93716 2.3682 5.25374 2.75137 2.56184C2.82341 2.05639 2.96263 1.83908 3.48987 1.876C4.02741 1.91353 4.57039 1.88387 5.11034 1.88387C6.91482 1.88387 6.90817 1.8869 7.63274 3.57092C8.502 5.59091 9.38396 7.60605 10.3174 9.75375H10.318Z" fill="#111111"/>
<path id="Vector_2" d="M62.4341 4.9457C58.468 4.35732 55.3778 6.59522 55.0854 10.4475C54.8287 13.8313 57.1998 16.5214 60.5503 16.7581C63.8215 16.9899 66.9371 14.907 66.9402 12.5916C65.9958 12.5916 65.0503 12.6098 64.1066 12.5837C63.5969 12.5698 63.2204 12.6866 62.8221 13.0674C62.1296 13.7278 61.241 13.8543 60.33 13.5244C59.5249 13.2326 59.0921 12.6291 58.9486 11.7181H67.2216C67.8663 8.52985 65.6417 5.42149 62.4341 4.9457ZM59.1266 9.59826C59.238 8.61883 59.8457 8.06859 60.9559 7.92089C62.0866 7.77077 62.9801 8.34644 63.4462 9.59826H59.1266Z" fill="#111111"/>
<path id="Vector_3" d="M43.3728 12.9469H47.5514V16.3997H37.6543C39.0411 13.6884 40.6797 11.3089 42.1259 8.68238H38.3377V5.31433H47.9031C46.4134 7.82523 44.9406 10.3071 43.3734 12.9469H43.3728Z" fill="#111111"/>
<path id="Vector_4" d="M53.2922 16.4003H49.4629V1.25684H53.2922V16.4003Z" fill="#111111"/>
<path id="Vector_5" d="M25.457 18.8876C27.092 16.6612 28.727 14.4348 30.4661 12.0673H28.6477C29.6205 10.8645 30.454 9.83427 31.3711 8.69928H27.6556V5.30823H37.1647C36.247 6.85605 35.3505 8.36816 34.3893 9.99044H36.4867C32.7186 13.0897 29.1447 16.0298 25.5702 18.9699L25.457 18.8876Z" fill="#111111"/>
<path id="Vector_6" d="M25.4437 16.4034H21.6465V5.31616H25.4437V16.4034Z" fill="#111111"/>
<path id="Vector_7" d="M36.8177 13.0607V16.3822H29.5938C30.2693 15.8198 30.8716 15.3168 31.4763 14.8168C31.6422 14.6794 31.8444 14.5747 31.9806 14.4137C33.2633 12.8949 34.9334 12.7296 36.8177 13.0607Z" fill="#111111"/>
<path id="Vector_8" d="M21.6719 3.79012V0.592163H25.4407V3.79012H21.6719Z" fill="#111111"/>
</g>
<defs>
<clipPath id="clip0_4669_3012">
<rect width="66.6667" height="18.3772" fill="white" transform="translate(0.666016 0.592163)"/>
</clipPath>
</defs>
</svg>
