<svg width="68" height="21" viewBox="0 0 68 21" fill="none" xmlns="http://www.w3.org/2000/svg">
<g id="671b493192b96b2118d466ea_brillion-white 1" clip-path="url(#clip0_4669_828)">
<g id="Lager 1">
<g id="Group">
<path id="Vector" d="M10.8195 11.4635L9.4415 10.6115L10.8195 9.75945C12.4758 8.73353 12.4758 6.32524 10.8195 5.29932L3.97285 1.04786C2.65568 0.230607 0.951613 1.17827 0.951613 2.73019V7.06859C0.951613 7.91193 1.38632 8.69876 2.10794 9.14216L3.76419 10.1681L6.25073 8.62485L3.55118 6.95122V3.86913L8.61989 7.01643C8.99809 7.25117 8.99809 7.79891 8.61989 8.03365L2.10359 12.0721C1.38632 12.5155 0.947266 13.3023 0.947266 14.1457V18.4841C0.947266 20.036 2.65133 20.9837 3.9685 20.1664L10.8152 15.9236C12.4758 14.8977 12.4758 12.4894 10.8195 11.4635ZM3.54683 14.263L6.95496 12.1504L8.62424 13.185C9.00244 13.4197 9.00244 13.9674 8.62424 14.2022L3.55118 17.3451V14.263H3.54683Z" fill="#111111"/>
<g id="Group_2">
<path id="Vector_2" d="M19.5006 15.2316C19.2606 14.9969 19.1406 14.6943 19.1406 14.3244V5.08508H24.105C25.0349 5.08508 25.7821 5.30765 26.3472 5.75236C26.9119 6.19751 27.1945 6.7848 27.1945 7.51468V8.27977C27.1945 8.62971 27.1093 8.95965 26.9393 9.2696C26.7693 9.57955 26.5342 9.82951 26.2342 10.0195V10.0343C26.7241 10.1942 27.1167 10.4642 27.4114 10.8441C27.7061 11.2241 27.8539 11.654 27.8539 12.1339V12.8838C27.8539 13.7136 27.5688 14.3714 26.9989 14.8561C26.429 15.3412 25.6587 15.5833 24.6893 15.5833H20.4295C20.0496 15.5833 19.7397 15.466 19.4997 15.2308L19.5006 15.2316ZM24.195 9.56955C24.5649 9.56955 24.8649 9.44957 25.0948 9.20961C25.3248 8.96965 25.44 8.6597 25.44 8.27977V7.66465C25.44 7.3447 25.3126 7.08997 25.0575 6.89956C24.8023 6.70959 24.465 6.61439 24.045 6.61439H20.8955V9.56912H24.1954L24.195 9.56955ZM24.5402 14.054C25.0301 14.054 25.4122 13.944 25.6874 13.7241C25.9621 13.5041 26.0999 13.1989 26.0999 12.809V12.1339C26.0999 11.794 25.9799 11.5214 25.74 11.3166C25.5 11.1119 25.18 11.0093 24.7801 11.0093H20.8955V14.054H24.5402Z" fill="#111111"/>
<path id="Vector_3" d="M29.2949 8.0997H30.8999V9.11953C31.0998 8.80958 31.3872 8.55701 31.7623 8.36226C32.1375 8.16751 32.5248 8.0697 32.9247 8.0697H33.8246V9.56945H32.9247C32.3548 9.56945 31.8949 9.74464 31.545 10.0946C31.195 10.4445 31.0199 10.8997 31.0199 11.4596V15.5841H29.2949V8.0997Z" fill="#111111"/>
<path id="Vector_4" d="M35.2116 6.95254C35.0065 6.74779 34.9043 6.48522 34.9043 6.16528C34.9043 5.84533 35.0069 5.58277 35.2116 5.37802C35.4164 5.17327 35.6889 5.07068 36.0289 5.07068C36.3688 5.07068 36.644 5.17327 36.854 5.37802C37.0639 5.5832 37.1691 5.84533 37.1691 6.16528C37.1691 6.48522 37.0639 6.74779 36.854 6.95254C36.644 7.15772 36.3688 7.25988 36.0289 7.25988C35.6889 7.25988 35.4164 7.15729 35.2116 6.95254ZM35.1743 8.09974H36.8992V15.5841H35.1743V8.09974Z" fill="#111111"/>
<path id="Vector_5" d="M39.6652 15.0517C39.28 14.697 39.0879 14.1344 39.0879 13.3641V5.08508H40.8128V13.2894C40.8128 13.5793 40.8728 13.7867 40.9928 13.9119C41.1128 14.0371 41.3127 14.0992 41.5927 14.0992H42.3126V15.5842H41.5027C40.6628 15.5842 40.0503 15.4068 39.6656 15.0517H39.6652Z" fill="#111111"/>
<path id="Vector_6" d="M43.88 15.0517C43.4949 14.697 43.3027 14.1344 43.3027 13.3641V5.08508H45.0277V13.2894C45.0277 13.5793 45.0877 13.7867 45.2076 13.9119C45.3276 14.0371 45.5276 14.0992 45.8075 14.0992H46.5274V15.5842H45.7175C44.8777 15.5842 44.2652 15.4068 43.8805 15.0517H43.88Z" fill="#111111"/>
<path id="Vector_7" d="M47.9148 6.95254C47.7096 6.74779 47.6074 6.48522 47.6074 6.16528C47.6074 5.84533 47.71 5.58277 47.9148 5.37802C48.1195 5.17327 48.3921 5.07068 48.732 5.07068C49.072 5.07068 49.3471 5.17327 49.5571 5.37802C49.7671 5.5832 49.8723 5.84533 49.8723 6.16528C49.8723 6.48522 49.7671 6.74779 49.5571 6.95254C49.3471 7.15772 49.072 7.25988 48.732 7.25988C48.3921 7.25988 48.1195 7.15729 47.9148 6.95254ZM47.8774 8.09974H49.6023V15.5841H47.8774V8.09974Z" fill="#111111"/>
<path id="Vector_8" d="M52.332 14.9017C51.7721 14.367 51.4922 13.6593 51.4922 12.7794V10.9197C51.4922 10.3398 51.6196 9.82731 51.8747 9.3826C52.1299 8.93789 52.4898 8.59273 52.9546 8.34755C53.4197 8.10281 53.957 7.98022 54.5669 7.98022H55.8867C56.4966 7.98022 57.0339 8.10281 57.499 8.34755C57.9642 8.59273 58.3241 8.93746 58.5788 9.3826C58.834 9.82774 58.9614 10.3403 58.9614 10.9197V12.7794C58.9614 13.6593 58.6788 14.367 58.1141 14.9017C57.549 15.4368 56.7965 15.7041 55.8567 15.7041H54.5517C53.6314 15.7041 52.892 15.4368 52.332 14.9017ZM55.8415 14.2192C56.2614 14.2192 56.5987 14.0766 56.8539 13.7919C57.1091 13.5071 57.2364 13.1346 57.2364 12.6747V11.0097C57.2364 10.5498 57.1112 10.1772 56.8617 9.89251C56.6118 9.60734 56.2766 9.46519 55.8567 9.46519H54.5969C54.177 9.46519 53.8418 9.60778 53.5918 9.89251C53.3419 10.1777 53.2167 10.5502 53.2167 11.0097V12.6747C53.2167 13.1346 53.3414 13.5071 53.5918 13.7919C53.8418 14.077 54.1665 14.2192 54.5669 14.2192H55.8419H55.8415Z" fill="#111111"/>
<path id="Vector_9" d="M60.5801 8.09972H62.185V9.07477C62.405 8.74483 62.6949 8.48009 63.0549 8.27969C63.4148 8.07972 63.7748 7.97974 64.1347 7.97974H65.0645C65.8344 7.97974 66.4517 8.22491 66.9168 8.71483C67.382 9.20475 67.6141 9.84986 67.6141 10.6497V15.5841H65.8892V10.6945C65.8892 10.3346 65.7966 10.042 65.6118 9.81726C65.4267 9.59251 65.1845 9.47992 64.8846 9.47992H63.9547C63.5648 9.47992 63.2149 9.62772 62.9049 9.92245C62.595 10.2176 62.395 10.595 62.305 11.0549V15.5846H60.5801V8.10015V8.09972Z" fill="#111111"/>
</g>
</g>
</g>
</g>
<defs>
<clipPath id="clip0_4669_828">
<rect width="66.6667" height="19.7189" fill="white" transform="translate(0.945312 0.747437)"/>
</clipPath>
</defs>
</svg>
