<svg width="81" height="81" viewBox="0 0 81 81" fill="none" xmlns="http://www.w3.org/2000/svg">
<rect x="0.666016" y="0.658691" width="80" height="80" rx="4" fill="white"/>
<g clip-path="url(#clip0_4578_10369)">
<path d="M30.348 43.147H30.9147V38.0196H30.348V37.2861H33.0149C33.2986 37.2788 33.5811 37.324 33.8483 37.4195C34.0737 37.4963 34.2821 37.6164 34.4617 37.773C34.6277 37.9245 34.7576 38.1113 34.8419 38.3196C34.9259 38.532 34.969 38.758 34.9687 38.9865V39.1463C34.972 39.317 34.9426 39.4867 34.8819 39.6463C34.8295 39.795 34.7504 39.9328 34.6486 40.0531C34.5469 40.1726 34.4277 40.276 34.2952 40.3598C34.159 40.446 34.0106 40.5112 33.855 40.5531V40.6666C34.1631 40.7546 34.4389 40.9306 34.6483 41.1732C34.8656 41.4269 34.9798 41.7528 34.9684 42.0867V42.2001C34.9688 42.4284 34.9257 42.6547 34.8416 42.8669C34.7575 43.0754 34.6276 43.2623 34.4614 43.4136C34.2844 43.5768 34.0755 43.7017 33.848 43.7804C33.58 43.8727 33.298 43.9178 33.0146 43.9139H30.3477V43.147H30.348ZM31.6816 40.1933H32.9685C33.2949 40.2134 33.6168 40.1085 33.8686 39.8999C33.9799 39.7996 34.0676 39.6757 34.1252 39.5374C34.1829 39.3991 34.2091 39.2496 34.202 39.0999V39.0399C34.2068 38.8943 34.1773 38.7497 34.1159 38.6176C34.0545 38.4855 33.963 38.3698 33.8486 38.2796C33.5881 38.0836 33.2675 37.9845 32.9418 37.9996H31.6816V40.1933ZM31.6816 43.147H32.9418C33.2675 43.162 33.5882 43.063 33.8486 42.8669C33.9642 42.7764 34.0565 42.6596 34.1179 42.5263C34.1794 42.393 34.2082 42.247 34.202 42.1003V42.0402C34.2088 41.8896 34.1825 41.7393 34.1249 41.5999C34.0673 41.4605 33.9798 41.3355 33.8686 41.2336C33.6178 41.0225 33.2958 40.9152 32.9685 40.9335H31.6816V43.1473V43.147ZM37.6156 37.2864V41.6738C37.5847 42.1106 37.7179 42.5434 37.9891 42.8873C38.295 43.1537 38.6869 43.3004 39.0926 43.3004C39.4982 43.3004 39.8902 43.1537 40.1961 42.8873C40.4672 42.5433 40.6003 42.1106 40.5696 41.6738V37.2864H41.3629V41.6738C41.3851 41.9929 41.3429 42.3132 41.2386 42.6156C41.1344 42.918 40.9703 43.1963 40.7562 43.4339C40.2897 43.8272 39.6992 44.0428 39.0891 44.0428C38.479 44.0428 37.8885 43.8272 37.4221 43.4339C37.2076 43.1965 37.0433 42.9182 36.9391 42.6158C36.8348 42.3133 36.7927 41.9929 36.8153 41.6738V37.2864H37.6156ZM47.7905 43.9072H47.0172V41.6935C47.0258 41.5573 46.9856 41.4225 46.9037 41.3134C46.8505 41.2639 46.7872 41.2264 46.7183 41.2034C46.6493 41.1805 46.5762 41.1725 46.5039 41.1802H44.4237V43.9072H43.6303V37.2864H45.9906C46.295 37.2784 46.5982 37.3282 46.884 37.4332C47.1192 37.5169 47.3332 37.6512 47.5108 37.8267C47.6759 37.9868 47.8054 38.1799 47.8909 38.3934C47.9741 38.606 48.0168 38.8321 48.0177 39.0602V39.3469C48.015 39.6045 47.9462 39.8571 47.8178 40.0804C47.6668 40.3415 47.4317 40.5436 47.151 40.6538V40.7673C47.3226 40.7858 47.4815 40.8664 47.5979 40.9939C47.7126 41.1369 47.7698 41.3176 47.758 41.5005L47.7914 43.9075L47.7905 43.9072ZM44.4567 40.4399H45.9302C46.2873 40.4684 46.6426 40.3666 46.9304 40.1532C47.0443 40.0451 47.1326 39.913 47.1891 39.7665C47.2456 39.62 47.2689 39.4628 47.2572 39.3062V39.1463C47.2634 38.9954 47.2375 38.8448 47.1812 38.7046C47.1248 38.5644 47.0394 38.4377 46.9304 38.333C46.6469 38.1096 46.2902 38.0002 45.9302 38.0263H44.4234L44.4567 40.4399ZM54.3513 43.9075H53.5513V41.6938C53.5599 41.5576 53.5197 41.4228 53.4378 41.3137C53.3846 41.2642 53.3213 41.2267 53.2523 41.2037C53.1834 41.1808 53.1103 41.1728 53.038 41.1805H50.9778V43.9075H50.1844V37.2867H52.5514C52.8536 37.2793 53.1544 37.3292 53.4381 37.4335C53.6733 37.5172 53.8871 37.6516 54.0649 37.827C54.23 37.9871 54.3595 38.1802 54.445 38.3937C54.5282 38.6063 54.5709 38.8324 54.5719 39.0605V39.3472C54.5691 39.6048 54.5003 39.8574 54.3719 40.0807C54.2208 40.3417 53.9858 40.5438 53.7051 40.6541V40.7676C53.8767 40.7861 54.0356 40.8667 54.152 40.9942C54.2667 41.1371 54.324 41.3179 54.3119 41.5008L54.3519 43.9078L54.3513 43.9075ZM51.0175 40.4402H52.491C52.8482 40.47 53.204 40.368 53.4912 40.1536C53.605 40.0454 53.6934 39.9133 53.7499 39.7668C53.8064 39.6203 53.8297 39.4631 53.818 39.3065V39.1467C53.8242 38.9957 53.7983 38.8451 53.7419 38.7049C53.6856 38.5647 53.6002 38.438 53.4912 38.3333C53.2083 38.1088 52.8511 37.9993 52.491 38.0266H50.9775L51.0175 40.4402ZM56.5984 37.2864H60.7989V38.0199H59.0921V43.1473H60.7989V43.8875H56.5984V43.1473H58.2985V38.0199H56.5984V37.2864ZM62.726 37.2864H67.3934V38.0199H65.4664V43.9075H64.6664V38.0199H62.7393L62.726 37.2864ZM69.187 39.8599C69.1429 39.1409 69.3608 38.4304 69.8004 37.8597C70.2561 37.4077 70.872 37.1541 71.5138 37.1541C72.1557 37.1541 72.7716 37.4077 73.2273 37.8597C73.6668 38.4304 73.8847 39.1409 73.8407 39.8599V41.3334C73.8872 42.0526 73.669 42.764 73.2273 43.3335C72.7675 43.7777 72.1531 44.0259 71.5138 44.0259C70.8745 44.0259 70.2602 43.7777 69.8004 43.3335C69.3587 42.764 69.1405 42.0526 69.187 41.3334V39.8599ZM71.5141 43.3005C71.734 43.3141 71.9538 43.2731 72.1539 43.1811C72.354 43.0892 72.5283 42.9492 72.6612 42.7735C72.9479 42.3279 73.0835 41.8019 73.048 41.2733V39.9397C73.0732 39.4226 72.9381 38.9103 72.6612 38.4729C72.456 38.2062 72.1646 38.0191 71.8367 37.9436C71.5088 37.8681 71.1648 37.9089 70.8637 38.0591C70.6641 38.1584 70.4899 38.3023 70.3546 38.4795C70.0777 38.917 69.9426 39.4292 69.9678 39.9463V41.28C69.9324 41.8086 70.068 42.3346 70.3546 42.7802C70.4896 42.9564 70.6664 43.0963 70.869 43.1871C71.0716 43.2779 71.2937 43.3167 71.5151 43.3002L71.5141 43.3005Z" fill="#111111"/>
</g>
<g clip-path="url(#clip1_4578_10369)">
<path d="M13.943 27.8586H7.35547V53.2572H13.943V27.8586Z" fill="#A9A9A9"/>
<path d="M15.3537 27.8587C14.1702 27.8558 13.0008 28.1157 11.9298 28.6195C10.8589 29.1233 9.91304 29.8585 9.16058 30.772C8.40812 31.6856 7.86778 32.7547 7.57851 33.9024C7.28925 35.05 7.25827 36.2475 7.48782 37.4086C7.79668 38.9615 8.55917 40.3879 9.67884 41.5074C10.7985 42.6269 12.225 43.3891 13.778 43.6977C15.3312 44.0064 16.941 43.8483 18.4045 43.2435C19.868 42.6386 21.1197 41.614 22.0017 40.2989C22.6597 39.3164 23.0914 38.2001 23.2657 37.0305C23.4399 35.8609 23.3523 34.6673 23.0093 33.5356C22.6662 32.404 22.0763 31.3627 21.282 30.4867C20.4876 29.6107 19.5088 28.922 18.416 28.4703C17.4452 28.0678 16.4046 27.8607 15.3537 27.8608V27.8587ZM15.3537 37.0784C15.1421 37.0788 14.934 37.0243 14.7497 36.9202C14.5654 36.8162 14.4112 36.6662 14.3022 36.4848C14.1932 36.3034 14.133 36.0968 14.1277 35.8853C14.1223 35.6737 14.1718 35.4643 14.2715 35.2776C14.3711 35.0909 14.5175 34.9333 14.6962 34.82C14.875 34.7067 15.0801 34.6417 15.2915 34.6313C15.5028 34.6209 15.7133 34.6655 15.9023 34.7607C16.0913 34.8559 16.2524 34.9985 16.3699 35.1746C16.4927 35.3589 16.5633 35.573 16.5741 35.7942C16.585 36.0154 16.5356 36.2354 16.4314 36.4308C16.3271 36.6263 16.1719 36.7898 15.9821 36.904C15.7924 37.0182 15.5752 37.0788 15.3537 37.0794V37.0784Z" fill="#414141"/>
<path d="M15.3537 37.2652C14.1702 37.2623 13.0008 37.5222 11.9298 38.026C10.8589 38.5298 9.91304 39.2649 9.16058 40.1785C8.40812 41.0921 7.86778 42.1612 7.57851 43.3089C7.28925 44.4565 7.25827 45.654 7.48782 46.8151C7.79668 48.368 8.55917 49.7944 9.67884 50.9139C10.7985 52.0334 12.225 52.7956 13.778 53.1042C15.3312 53.4129 16.941 53.2548 18.4045 52.65C19.868 52.0451 21.1197 51.0205 22.0017 49.7054C22.6597 48.7229 23.0914 47.6066 23.2657 46.437C23.4399 45.2674 23.3523 44.0738 23.0093 42.9421C22.6662 41.8105 22.0763 40.7692 21.282 39.8932C20.4876 39.0172 19.5088 38.3285 18.416 37.8768C17.4452 37.4743 16.4046 37.2672 15.3537 37.2673V37.2652ZM15.3537 46.4838C15.1116 46.4838 14.8748 46.4127 14.6731 46.2789C14.4714 46.1451 14.3142 45.954 14.2218 45.7299C14.152 45.5628 14.1202 45.3821 14.1288 45.2012C14.1374 45.0202 14.1861 44.8434 14.2715 44.6836C14.3569 44.5238 14.4768 44.385 14.6225 44.2773C14.7681 44.1695 14.936 44.0956 15.1138 44.0608C15.3708 44.0105 15.6373 44.0439 15.874 44.1562C16.1107 44.2684 16.3051 44.4536 16.4289 44.6844C16.5526 44.9153 16.5992 45.1798 16.5616 45.439C16.524 45.6983 16.4044 45.9387 16.2202 46.1249C15.9907 46.3546 15.6784 46.4837 15.3537 46.4838Z" fill="#A9A9A9"/>
<path d="M8.88477 40.5578C9.62652 39.5373 10.5993 38.707 11.7236 38.1347C12.8479 37.5624 14.0918 37.2644 15.3533 37.2651C16.6147 37.2653 17.8583 37.5636 18.9824 38.1359C20.1066 38.7081 21.0795 39.538 21.8219 40.5578C21.0801 41.5783 20.1073 42.4086 18.983 42.9809C17.8587 43.5532 16.6149 43.8512 15.3533 43.8505C14.0919 43.8504 12.8484 43.552 11.7242 42.9798C10.6001 42.4076 9.62712 41.5777 8.88477 40.5578Z" fill="#A9A9A9"/>
<path d="M13.9423 43.7253C12.1001 43.3866 10.4341 42.415 9.23528 40.9773C8.03709 39.5402 7.38086 37.7284 7.38086 35.8573C7.38086 33.9862 8.03709 32.1744 9.23528 30.7372C10.4353 29.2997 12.1005 28.3275 13.9423 27.9893V43.7253Z" fill="#111111"/>
<path d="M13.9423 53.1328C12.1001 52.7941 10.4341 51.8225 9.23528 50.3848C8.03709 48.9477 7.38086 47.1359 7.38086 45.2648C7.38086 43.3937 8.03709 41.5818 9.23528 40.1447C10.4353 38.7071 12.1005 37.7349 13.9423 37.3967V53.1328Z" fill="#242424"/>
<path d="M13.9411 37.3887C11.9099 37.7528 10.0982 38.888 8.88477 40.5571C10.0987 42.2257 11.9102 43.3609 13.9411 43.7256V37.3887Z" fill="#676767"/>
</g>
<defs>
<clipPath id="clip0_4578_10369">
<rect width="43.686" height="7.281" fill="white" transform="translate(30.3145 36.96)"/>
</clipPath>
<clipPath id="clip1_4578_10369">
<rect width="15.9272" height="25.4835" fill="white" transform="translate(7.33398 27.8586)"/>
</clipPath>
</defs>
</svg>
