<svg width="81" height="27" viewBox="0 0 81 27" fill="none" xmlns="http://www.w3.org/2000/svg">
<g id="63a3deb83e3a40171e4cc453_oort logo 1">
<path id="Vector" d="M5.14258 13.6489C5.14258 12.9819 5.26505 12.3715 5.50997 11.8176C5.7549 11.2637 6.0978 10.7889 6.53868 10.3933C6.98332 9.99384 7.51463 9.68484 8.13261 9.46626C8.75435 9.24776 9.442 9.13843 10.1957 9.13843C10.9455 9.13843 11.6313 9.24776 12.2531 9.46626C12.8748 9.68484 13.4062 9.99384 13.847 10.3933C14.2917 10.7889 14.6364 11.2637 14.8813 11.8176C15.1263 12.3715 15.2488 12.9819 15.2488 13.6489C15.2488 14.3197 15.1263 14.9358 14.8813 15.4972C14.6364 16.0549 14.2917 16.5353 13.847 16.9385C13.4062 17.3417 12.8748 17.6563 12.2531 17.8824C11.6313 18.1048 10.9455 18.2159 10.1957 18.2159C9.442 18.2159 8.75435 18.1048 8.13261 17.8824C7.51463 17.6563 6.98332 17.3417 6.53868 16.9385C6.0978 16.5353 5.7549 16.0549 5.50997 15.4972C5.26505 14.9358 5.14258 14.3197 5.14258 13.6489ZM6.93434 13.6489C6.93434 14.1048 7.01535 14.5156 7.17738 14.8811C7.34318 15.2466 7.57115 15.5593 7.8613 15.8193C8.15522 16.0756 8.5 16.2734 8.89566 16.4128C9.29509 16.5523 9.72842 16.622 10.1957 16.622C10.6629 16.622 11.0943 16.5523 11.49 16.4128C11.8894 16.2734 12.2343 16.0756 12.5244 15.8193C12.8145 15.5593 13.0425 15.2466 13.2083 14.8811C13.3741 14.5156 13.457 14.1048 13.457 13.6489C13.457 13.193 13.3741 12.7841 13.2083 12.4224C13.0425 12.0607 12.8145 11.7554 12.5244 11.5068C12.2343 11.2543 11.8894 11.0621 11.49 10.9302C11.0943 10.7983 10.6629 10.7323 10.1957 10.7323C9.72842 10.7323 9.29509 10.7983 8.89566 10.9302C8.5 11.0621 8.15522 11.2543 7.8613 11.5068C7.57115 11.7554 7.34318 12.0607 7.17738 12.4224C7.01535 12.7841 6.93434 13.193 6.93434 13.6489Z" fill="#111111"/>
<path id="Vector_2" fill-rule="evenodd" clip-rule="evenodd" d="M8.13424 9.46619C7.51626 9.68478 6.98495 9.99378 6.54031 10.3932C6.09944 10.7889 5.75654 11.2636 5.5116 11.8175C5.26668 12.3714 5.14421 12.9819 5.14421 13.6489C5.14421 14.3196 5.26668 14.9357 5.5116 15.4971C5.75654 16.0549 6.09944 16.5353 6.54031 16.9384C6.98495 17.3416 7.51626 17.6563 8.13424 17.8824C8.75599 18.1047 9.44364 18.2159 10.1973 18.2159C10.9471 18.2159 11.633 18.1047 12.2547 17.8824C12.8765 17.6563 13.4078 17.3416 13.8486 16.9384C14.2933 16.5353 14.6381 16.0549 14.883 15.4971C15.128 14.9357 15.2504 14.3196 15.2504 13.6489C15.2504 12.9819 15.128 12.3714 14.883 11.8175C14.6381 11.2636 14.2933 10.7889 13.8486 10.3932C13.4078 9.99378 12.8765 9.68478 12.2547 9.46619C11.633 9.24769 10.9471 9.13836 10.1973 9.13836C9.44364 9.13836 8.75599 9.24769 8.13424 9.46619ZM14.0206 10.2015C13.552 9.77711 12.9903 9.45186 12.3401 9.22328C11.6874 8.99386 10.9723 8.88086 10.1973 8.88086C9.41872 8.88086 8.70166 8.99378 8.04885 9.22328L8.04839 9.22344C7.40172 9.45211 6.84039 9.77753 6.36833 10.2015M14.0206 10.2015C14.4929 10.6219 14.8591 11.1268 15.1185 11.7134C15.3793 12.3033 15.5079 12.9497 15.5079 13.6489C15.5079 14.3516 15.3794 15.0032 15.1191 15.6001L15.1187 15.6007C14.8596 16.1909 14.4936 16.7011 14.0219 17.1289C13.5537 17.557 12.9926 17.888 12.3427 18.1244L12.3421 18.1246L12.3414 18.1249C11.6883 18.3584 10.9727 18.4734 10.1973 18.4734C9.41822 18.4734 8.70074 18.3584 8.04754 18.1249L8.04665 18.1245L8.04577 18.1242C7.39961 17.8878 6.83887 17.5568 6.36734 17.1292L6.36694 17.1289L6.36654 17.1284C5.89869 16.7006 5.5349 16.1905 5.27584 15.6007L5.27559 15.6001C5.0152 15.0032 4.88672 14.3516 4.88672 13.6489C4.88672 12.9497 5.01527 12.3033 5.27611 11.7134C5.53542 11.1269 5.89966 10.6222 6.36824 10.2016M12.5261 11.5067C12.2359 11.2542 11.8911 11.062 11.4916 10.9301C11.096 10.7983 10.6646 10.7323 10.1973 10.7323C9.73005 10.7323 9.29672 10.7983 8.89729 10.9301C8.50164 11.062 8.15685 11.2542 7.86294 11.5067C7.57279 11.7554 7.34481 12.0606 7.17901 12.4224C7.01699 12.784 6.93597 13.1929 6.93597 13.6489C6.93597 14.1048 7.01699 14.5155 7.17901 14.881C7.34481 15.2465 7.57279 15.5593 7.86294 15.8193C8.15685 16.0755 8.50164 16.2734 8.89729 16.4128C9.29672 16.5522 9.73005 16.6219 10.1973 16.6219C10.6646 16.6219 11.096 16.5522 11.4916 16.4128C11.8911 16.2734 12.2359 16.0755 12.5261 15.8193C12.8161 15.5593 13.0441 15.2465 13.21 14.881C13.3757 14.5155 13.4586 14.1048 13.4586 13.6489C13.4586 13.1929 13.3757 12.784 13.21 12.4224C13.0441 12.0606 12.8161 11.7554 12.5261 11.5067ZM12.3549 15.6269C12.6173 15.3916 12.8241 15.1084 12.9755 14.7747C13.1241 14.4469 13.2011 14.0731 13.2011 13.6489C13.2011 13.2245 13.1241 12.8531 12.9759 12.5296C12.825 12.2003 12.6191 11.9256 12.3585 11.7022L12.3577 11.7015L12.357 11.7009C12.095 11.4729 11.781 11.2968 11.411 11.1746L11.4102 11.1744C11.0438 11.0523 10.6401 10.9898 10.1973 10.9898C9.75464 10.9898 9.34897 11.0522 8.97838 11.1745C8.61211 11.2966 8.29733 11.4729 8.03071 11.7019L8.0305 11.7022C7.77009 11.9254 7.56444 12.1998 7.41355 12.5286C7.26871 12.8524 7.19345 13.2242 7.19345 13.6489C7.19345 14.0734 7.2687 14.4476 7.41395 14.7757C7.56518 15.1087 7.77158 15.3914 8.03346 15.6264C8.30064 15.859 8.61592 16.0406 8.98242 16.1698C9.3518 16.2987 9.75605 16.3644 10.1973 16.3644C10.6387 16.3644 11.0409 16.2986 11.4061 16.1699L11.4068 16.1697C11.7773 16.0404 12.0921 15.8588 12.3549 15.6269Z" fill="#111111"/>
<path id="Vector_3" d="M19.0918 13.6489C19.0918 12.9819 19.2143 12.3715 19.4592 11.8176C19.7041 11.2637 20.047 10.7889 20.488 10.3933C20.9325 9.99384 21.4639 9.68484 22.0819 9.46626C22.7036 9.24776 23.3913 9.13843 24.1449 9.13843C24.8948 9.13843 25.5805 9.24776 26.2023 9.46626C26.824 9.68484 27.3554 9.99384 27.7962 10.3933C28.2409 10.7889 28.5857 11.2637 28.8306 11.8176C29.0755 12.3715 29.198 12.9819 29.198 13.6489C29.198 14.3197 29.0755 14.9358 28.8306 15.4972C28.5857 16.0549 28.2409 16.5353 27.7962 16.9385C27.3554 17.3417 26.824 17.6563 26.2023 17.8824C25.5805 18.1048 24.8948 18.2159 24.1449 18.2159C23.3913 18.2159 22.7036 18.1048 22.0819 17.8824C21.4639 17.6563 20.9325 17.3417 20.488 16.9385C20.047 16.5353 19.7041 16.0549 19.4592 15.4972C19.2143 14.9358 19.0918 14.3197 19.0918 13.6489ZM20.8835 13.6489C20.8835 14.1048 20.9646 14.5156 21.1266 14.8811C21.2925 15.2466 21.5204 15.5593 21.8105 15.8193C22.1045 16.0756 22.4492 16.2734 22.8449 16.4128C23.2443 16.5523 23.6776 16.622 24.1449 16.622C24.6121 16.622 25.0436 16.5523 25.4393 16.4128C25.8387 16.2734 26.1835 16.0756 26.4736 15.8193C26.7638 15.5593 26.9917 15.2466 27.1575 14.8811C27.3234 14.5156 27.4062 14.1048 27.4062 13.6489C27.4062 13.193 27.3234 12.7841 27.1575 12.4224C26.9917 12.0607 26.7638 11.7554 26.4736 11.5068C26.1835 11.2543 25.8387 11.0621 25.4393 10.9302C25.0436 10.7983 24.6121 10.7323 24.1449 10.7323C23.6776 10.7323 23.2443 10.7983 22.8449 10.9302C22.4492 11.0621 22.1045 11.2543 21.8105 11.5068C21.5204 11.7554 21.2925 12.0607 21.1266 12.4224C20.9646 12.7841 20.8835 13.193 20.8835 13.6489Z" fill="#111111"/>
<path id="Vector_4" fill-rule="evenodd" clip-rule="evenodd" d="M22.0816 9.46619C21.4636 9.68478 20.9322 9.99378 20.4877 10.3932C20.0467 10.7889 19.7038 11.2636 19.4589 11.8175C19.214 12.3714 19.0915 12.9819 19.0915 13.6489C19.0915 14.3196 19.214 14.9357 19.4589 15.4971C19.7038 16.0549 20.0467 16.5353 20.4877 16.9384C20.9322 17.3416 21.4636 17.6563 22.0816 17.8824C22.7033 18.1047 23.391 18.2159 24.1446 18.2159C24.8945 18.2159 25.5802 18.1047 26.202 17.8824C26.8237 17.6563 27.3551 17.3416 27.7959 16.9384C28.2406 16.5353 28.5854 16.0549 28.8303 15.4971C29.0752 14.9357 29.1977 14.3196 29.1977 13.6489C29.1977 12.9819 29.0752 12.3714 28.8303 11.8175C28.5854 11.2636 28.2406 10.7889 27.7959 10.3932C27.3551 9.99378 26.8237 9.68478 26.202 9.46619C25.5802 9.24769 24.8945 9.13836 24.1446 9.13836C23.391 9.13836 22.7033 9.24769 22.0816 9.46619ZM27.9679 10.2015C27.4992 9.77711 26.9376 9.45186 26.2874 9.22328C25.6347 8.99386 24.9196 8.88086 24.1446 8.88086C23.366 8.88086 22.6489 8.99378 21.9962 9.22328L21.9957 9.22344C21.349 9.45211 20.7877 9.77753 20.3156 10.2015M27.9679 10.2015C28.4402 10.6219 28.8064 11.1268 29.0657 11.7134C29.3266 12.3033 29.4552 12.9497 29.4552 13.6489C29.4552 14.3516 29.3267 15.0032 29.0663 15.6001L29.066 15.6007C28.8068 16.1909 28.4409 16.7011 27.9692 17.1289C27.501 17.557 26.9398 17.888 26.29 18.1244L26.2893 18.1246L26.2887 18.1249C25.6357 18.3584 24.92 18.4734 24.1446 18.4734C23.3655 18.4734 22.648 18.3584 21.9948 18.1249L21.9939 18.1245L21.9931 18.1242C21.3469 17.8878 20.7862 17.5568 20.3147 17.1292L20.3142 17.1289L20.3138 17.1284C19.846 16.7006 19.4822 16.1905 19.2232 15.6007L19.2229 15.6001C18.9625 15.0032 18.834 14.3516 18.834 13.6489C18.834 12.9497 18.9626 12.3033 19.2234 11.7134C19.4827 11.1269 19.8469 10.6222 20.3155 10.2016M25.3533 16.1699L25.3541 16.1697C25.7246 16.0404 26.0394 15.8588 26.3022 15.6269C26.5646 15.3916 26.7713 15.1084 26.9227 14.7747C27.0714 14.4469 27.1484 14.0731 27.1484 13.6489C27.1484 13.2245 27.0714 12.8531 26.9232 12.5296C26.7722 12.2003 26.5664 11.9256 26.3057 11.7022L26.305 11.7015L26.3042 11.7009C26.0422 11.4729 25.7282 11.2968 25.3582 11.1746L25.3575 11.1744C24.9911 11.0523 24.5874 10.9898 24.1446 10.9898C23.7019 10.9898 23.2962 11.0522 22.9257 11.1745C22.5594 11.2966 22.2446 11.4729 21.978 11.7019L21.9777 11.7022C21.7173 11.9254 21.5117 12.1998 21.3608 12.5286C21.216 12.8524 21.1407 13.2242 21.1407 13.6489C21.1407 14.0734 21.216 14.4476 21.3612 14.7757C21.5125 15.1087 21.7188 15.3914 21.9807 15.6264C22.2479 15.8589 22.5632 16.0406 22.9297 16.1698C23.2991 16.2987 23.7033 16.3644 24.1446 16.3644C24.586 16.3644 24.9882 16.2986 25.3533 16.1699ZM22.8446 16.4128C22.4489 16.2734 22.1042 16.0755 21.8102 15.8193C21.5201 15.5593 21.2922 15.2465 21.1263 14.881C20.9643 14.5155 20.8832 14.1048 20.8832 13.6489C20.8832 13.1929 20.9643 12.784 21.1263 12.4224C21.2922 12.0606 21.5201 11.7554 21.8102 11.5067C22.1042 11.2542 22.4489 11.062 22.8446 10.9301C23.244 10.7983 23.6773 10.7323 24.1446 10.7323C24.6118 10.7323 25.0433 10.7983 25.439 10.9301C25.8384 11.062 26.1832 11.2542 26.4733 11.5067C26.7635 11.7554 26.9914 12.0606 27.1572 12.4224C27.3231 12.784 27.4059 13.1929 27.4059 13.6489C27.4059 14.1048 27.3231 14.5155 27.1572 14.881C26.9914 15.2465 26.7635 15.5593 26.4733 15.8193C26.1832 16.0755 25.8384 16.2734 25.439 16.4128C25.0433 16.5522 24.6118 16.6219 24.1446 16.6219C23.6773 16.6219 23.244 16.5522 22.8446 16.4128Z" fill="#111111"/>
<path id="Vector_5" d="M33.5898 10.2408C33.5898 9.70804 34.0218 9.27612 34.5545 9.27612H38.0668C38.7427 9.27612 39.3283 9.34746 39.8238 9.49012C40.3194 9.62904 40.7305 9.83179 41.0572 10.0984C41.3838 10.3649 41.6259 10.6896 41.7836 11.0725C41.9451 11.4555 42.0258 11.8891 42.0258 12.3735C42.0258 12.7 41.9863 13.0117 41.9075 13.3083C41.8287 13.6011 41.7067 13.8714 41.5414 14.1192C41.38 14.367 41.1754 14.5885 40.9277 14.7837C40.6798 14.9752 40.3889 15.1347 40.0548 15.2624L41.9694 18.0781H40.5618C40.0763 18.0781 39.6233 17.8347 39.3553 17.43L38.1288 15.5777H38.0781L35.375 15.5721V16.6311C35.375 17.4303 34.7272 18.0781 33.9281 18.0781H33.5898V10.2408ZM38.1119 14.0291C38.4498 14.0291 38.7445 13.9897 38.9961 13.9108C39.2513 13.832 39.4634 13.7212 39.6324 13.5785C39.8051 13.4359 39.9328 13.2632 40.0153 13.0605C40.1017 12.854 40.1448 12.625 40.1448 12.3735C40.1448 11.8816 39.9759 11.5025 39.638 11.2359C39.3002 10.9656 38.7914 10.8305 38.1119 10.8305H35.375V14.0291H38.1119Z" fill="#111111"/>
<path id="Vector_6" fill-rule="evenodd" clip-rule="evenodd" d="M38.0797 15.5777L35.3767 15.5721V16.6311C35.3767 17.4303 34.7288 18.0781 33.9297 18.0781H33.5915V10.2408C33.5915 9.70801 34.0234 9.27609 34.5561 9.27609H38.0685C38.7443 9.27609 39.33 9.34743 39.8255 9.49009C40.3211 9.62901 40.7322 9.83176 41.0588 10.0983C41.3854 10.3648 41.6276 10.6896 41.7852 11.0725C41.9467 11.4555 42.0274 11.8891 42.0274 12.3734C42.0274 12.7 41.988 13.0117 41.9092 13.3083C41.8303 13.6011 41.7083 13.8713 41.5431 14.1192C41.3817 14.3669 41.1771 14.5884 40.9293 14.7837C40.7434 14.9273 40.5332 15.053 40.2987 15.1608C40.2207 15.1966 40.1398 15.2304 40.0564 15.2623L41.9711 18.0781H40.5634C40.078 18.0781 39.6249 17.8347 39.357 17.4299L38.1305 15.5777H38.0797ZM37.992 15.835L35.6342 15.8301V16.6311C35.6342 17.5724 34.8711 18.3356 33.9297 18.3356H33.334V10.2408C33.334 9.56584 33.8812 9.01868 34.5561 9.01868H38.0685C38.761 9.01868 39.3715 9.09159 39.8959 9.24243C40.4178 9.38884 40.8624 9.60568 41.2217 9.89884C41.5805 10.1917 41.8487 10.5508 42.023 10.9735C42.1995 11.3927 42.2849 11.8608 42.2849 12.3734C42.2849 12.7209 42.2429 13.0548 42.158 13.3744L42.1578 13.3752C42.072 13.6941 41.9387 13.9897 41.7582 14.2608C41.5805 14.5332 41.3567 14.7748 41.0887 14.9859L41.0877 14.9867L41.0867 14.9874C40.8946 15.1359 40.6805 15.2653 40.4454 15.3764L42.4576 18.3356H40.5634C39.9917 18.3356 39.458 18.0488 39.1422 17.5721L37.992 15.835ZM38.9212 13.6649L38.9217 13.6648C39.1507 13.5941 39.3303 13.498 39.4679 13.3818L39.469 13.3809L39.4701 13.38C39.6107 13.2638 39.7124 13.1257 39.7786 12.9633L39.779 12.9622L39.7794 12.9611C39.8511 12.7898 39.8891 12.5951 39.8891 12.3734C39.8891 11.9477 39.7468 11.6483 39.4802 11.438L39.4795 11.4375L39.4788 11.4369C39.2062 11.2188 38.766 11.0879 38.1136 11.0879H35.6342V13.7716H38.1136C38.4323 13.7716 38.7 13.7343 38.9207 13.6651L38.9212 13.6649ZM35.3767 14.0291V10.8304H38.1136C38.7931 10.8304 39.3018 10.9656 39.6397 11.2358C39.9776 11.5024 40.1465 11.8816 40.1465 12.3734C40.1465 12.6249 40.1033 12.8539 40.017 13.0604C39.9344 13.2632 39.8067 13.4358 39.6341 13.5785C39.4651 13.7212 39.253 13.8319 38.9977 13.9108C38.7462 13.9897 38.4515 14.0291 38.1136 14.0291H35.3767Z" fill="#111111"/>
<path id="Vector_7" d="M48.9106 10.8203H47.0486C46.2494 10.8203 45.6016 10.1725 45.6016 9.37334V9.24292H52.5905C53.3896 9.24292 54.0375 9.89075 54.0375 10.6899V10.8203H50.7285V16.6645C50.7285 17.4636 50.0806 18.1114 49.2815 18.1114H48.9106V10.8203Z" fill="#111111"/>
<path id="Vector_8" fill-rule="evenodd" clip-rule="evenodd" d="M45.6067 9.48404C45.6632 10.2315 46.2876 10.8203 47.0495 10.8203H48.9115V18.1114H49.2824C50.0816 18.1114 50.7294 17.4635 50.7294 16.6645V10.8203H54.0384V10.6899C54.0384 10.6526 54.037 10.6156 54.0342 10.5791C53.9777 9.83171 53.3533 9.24288 52.5914 9.24288H45.6025V9.37329C45.6025 9.41054 45.6039 9.44746 45.6067 9.48404ZM50.9706 11.0614H54.2796V10.6899C54.2796 9.75754 53.5237 9.00171 52.5914 9.00171H45.3613V9.37329C45.3613 10.3056 46.1172 11.0614 47.0495 11.0614H48.6703V18.3525H49.2825C50.2148 18.3525 50.9706 17.5967 50.9706 16.6644V11.0614Z" fill="#111111"/>
<path id="Vector_9" d="M65.9737 7.22138C64.6141 7.1073 63.2534 7.42619 62.086 8.13242C60.9186 8.83867 60.0045 9.896 59.4746 11.1533C58.9446 12.4105 58.8259 13.8031 59.1354 15.1319C59.4449 16.4607 60.1668 17.6575 61.1977 18.5512C62.2287 19.4448 63.5159 19.9895 64.8752 20.1072C66.2344 20.2249 67.5961 19.9097 68.7654 19.2066C69.9346 18.5035 70.8515 17.4486 71.3849 16.1928C71.9182 14.9369 72.0406 13.5447 71.7347 12.215" stroke="#676767" stroke-width="2.13637" stroke-linecap="round" stroke-linejoin="round"/>
<path id="Vector_10" d="M71.7135 8.05037C71.7135 7.225 71.0444 6.55591 70.2191 6.55591C69.3937 6.55591 68.7246 7.225 68.7246 8.05037C68.7246 8.87575 69.3937 9.54484 70.2191 9.54484C71.0444 9.54484 71.7135 8.87575 71.7135 8.05037Z" fill="#111111"/>
<path id="Vector_11" d="M74.882 6.98219H74.3937V8.24219H74.0637V6.98219H73.582V6.74219H74.882V6.98219ZM75.4987 6.74219L75.9087 7.82552L76.317 6.74219H76.7487V8.24219H76.4154V7.82552L76.452 7.11552L76.0204 8.24219H75.7954L75.3654 7.11719L75.3987 7.82552V8.24219H75.0704V6.74219H75.4987Z" fill="#111111"/>
</g>
</svg>
