<svg width="81" height="81" viewBox="0 0 81 81" fill="none" xmlns="http://www.w3.org/2000/svg">
<rect x="0.333984" y="0.658691" width="80" height="80" rx="4" fill="white"/>
<path d="M28.7351 34.5577L30.5214 30.5254H7L11.4827 40.6061H21.6222L18.7605 47.0295L16.7996 42.6278H12.3831L15.9734 50.6867H21.548L27.8351 36.5738H14.1028L13.2044 34.5577H28.7351Z" fill="#111111"/>
<path d="M37.6369 35.0347C37.3892 34.8343 37.1164 34.6714 36.8184 34.5464C36.5205 34.421 36.2221 34.3085 35.9245 34.2081C35.6266 34.1077 35.3537 34.0036 35.106 33.8948C34.8584 33.7863 34.6589 33.6569 34.5081 33.5065C34.3569 33.3561 34.2815 33.1601 34.2815 32.9177C34.2815 32.6339 34.3946 32.4169 34.6216 32.2665C34.8482 32.1161 35.1588 32.0411 35.5532 32.0411C35.8974 32.0411 36.2059 32.1081 36.4787 32.2415C36.7515 32.3754 37.0179 32.5839 37.2781 32.8677L38.4116 31.7403C38.1011 31.3814 37.7022 31.0891 37.2153 30.8637C36.7284 30.6383 36.1828 30.5254 35.5783 30.5254C35.0075 30.5254 34.4955 30.6258 34.0423 30.8262C33.5891 31.0266 33.2319 31.3145 32.9721 31.6903C32.7118 32.0661 32.5817 32.5214 32.5817 33.0557C32.5817 33.5065 32.6571 33.8803 32.8083 34.1766C32.9595 34.473 33.1585 34.7153 33.4062 34.9028C33.6539 35.0907 33.9268 35.2472 34.2247 35.3726C34.5227 35.498 34.8207 35.6085 35.1186 35.7045C35.4166 35.8004 35.6894 35.9069 35.9371 36.0238C36.1848 36.1408 36.3843 36.2827 36.5351 36.4496C36.6863 36.6166 36.7617 36.8339 36.7617 37.1008C36.7617 37.4097 36.6295 37.6521 36.3652 37.8275C36.1009 38.0029 35.7462 38.0904 35.301 38.0904C34.8057 38.0904 34.3861 37.9964 34.0419 37.8085C33.6977 37.6206 33.3953 37.3557 33.1354 37.0133L32.002 38.1408C32.413 38.6251 32.8727 38.9884 33.3807 39.2303C33.8887 39.4722 34.4992 39.5936 35.2127 39.5936C36.2201 39.5936 37.0134 39.3601 37.5927 38.8924C38.172 38.4246 38.4615 37.7819 38.4615 36.9637C38.4615 36.5045 38.3861 36.1182 38.2349 35.8053C38.0837 35.492 37.8842 35.2355 37.6369 35.0351V35.0347Z" fill="#111111"/>
<path d="M44.259 35.8225L41.0171 30.6636H39.8086V39.4685H41.521V34.2249L43.674 37.6648H44.8326L46.9987 34.2051V39.4685H48.6985V30.6636H47.4896L44.259 35.8225Z" fill="#111111"/>
<path d="M53.4208 30.6636L49.8574 39.4685H51.6456L52.2772 37.8277H55.9205L56.5436 39.4685H58.3695L54.8186 30.6636H53.4208ZM52.8269 36.3999L54.1112 33.0648L55.3781 36.3999H52.8269Z" fill="#111111"/>
<path d="M64.3753 35.4669C64.8115 35.254 65.1496 34.9576 65.3892 34.5778C65.6283 34.198 65.7479 33.7492 65.7479 33.2314C65.7479 32.7137 65.6283 32.2879 65.3892 31.904C65.15 31.5201 64.8139 31.2173 64.3818 30.9959C63.9492 30.775 63.4477 30.6641 62.8769 30.6641H59.4141V39.469H61.1265V35.7867H61.424L64.2492 39.469H66.3268L63.3667 35.756C63.7368 35.7105 64.0729 35.6145 64.3749 35.4669H64.3753ZM61.1265 32.054H62.7257C63.1453 32.054 63.4708 32.1689 63.7015 32.3984C63.9322 32.6282 64.0477 32.9141 64.0477 33.2564C64.0477 33.6322 63.9322 33.9266 63.7015 34.1395C63.4704 34.3524 63.1453 34.4589 62.7257 34.4589H61.1265V32.054Z" fill="#111111"/>
<path d="M73.6691 30.6636H66.3027V32.1789H69.1235V39.4685H70.8484V32.1789H73.6691V30.6636Z" fill="#111111"/>
<path d="M38.5499 41.7441L36.1905 47.926L33.853 41.7441H32.002L35.49 50.5491H36.8501L40.3758 41.7441H38.5499Z" fill="#111111"/>
<path d="M43.2841 41.7441L39.7207 50.5491H41.5089L42.1405 48.9083H45.7838L46.4069 50.5491H48.2328L44.6819 41.7441H43.2841ZM42.6902 47.4805L43.9745 44.1454L45.2414 47.4805H42.6902Z" fill="#111111"/>
<path d="M50.9897 41.7441H49.2773V50.5491H50.5365H50.9897H55.0445V49.0337H50.9897V41.7441Z" fill="#111111"/>
<path d="M63.0852 42.9151C62.6697 42.5018 62.1848 42.1804 61.6306 41.9506C61.0765 41.7211 60.472 41.6062 59.8173 41.6062C59.1626 41.6062 58.5707 41.7211 58.0166 41.9506C57.4624 42.1804 56.9775 42.5018 56.562 42.9151C56.1465 43.3284 55.8234 43.8086 55.5923 44.3554C55.3612 44.9026 55.2461 45.4933 55.2461 46.1276C55.2461 46.7619 55.3637 47.3571 55.5988 47.9123C55.8335 48.4675 56.159 48.9518 56.5746 49.3651C56.9901 49.7784 57.477 50.1022 58.0352 50.3357C58.5934 50.5696 59.1958 50.6865 59.842 50.6865C60.4882 50.6865 61.0866 50.5696 61.6363 50.3357C62.186 50.1022 62.6689 49.7784 63.0844 49.3651C63.4999 48.9518 63.825 48.4696 64.0602 47.9188C64.2953 47.3675 64.4129 46.7748 64.4129 46.1401C64.4129 45.5054 64.2953 44.9127 64.0602 44.3615C63.825 43.8103 63.4999 43.328 63.0844 42.9147L63.0852 42.9151ZM62.2918 47.6808C62.0527 48.1236 61.7231 48.47 61.3035 48.7204C60.8835 48.9708 60.3885 49.0962 59.8177 49.0962C59.4062 49.0962 59.0264 49.0252 58.6782 48.8833C58.3299 48.7413 58.0316 48.5409 57.7843 48.2821C57.5366 48.0232 57.3436 47.7103 57.205 47.3425C57.0663 46.9752 56.997 46.5704 56.997 46.1276C56.997 45.5433 57.1166 45.0296 57.3558 44.5873C57.5949 44.1449 57.9266 43.8002 58.3506 43.5538C58.7742 43.3074 59.2635 43.1844 59.8177 43.1844C60.2458 43.1844 60.6318 43.2554 60.9763 43.3973C61.3205 43.5393 61.6185 43.7417 61.8702 44.0046C62.122 44.2675 62.3149 44.5788 62.4495 44.9377C62.5837 45.297 62.651 45.6933 62.651 46.1276C62.651 46.7208 62.5314 47.2381 62.2922 47.6808H62.2918Z" fill="#111111"/>
<path d="M70.6086 50.5491H72.6862L69.7264 46.8361C70.0966 46.7906 70.4326 46.6946 70.7346 46.547C71.1709 46.3341 71.509 46.0377 71.7485 45.6579C71.9877 45.278 72.1073 44.8292 72.1073 44.3115C72.1073 43.7938 71.9877 43.3679 71.7485 42.9841C71.5094 42.6002 71.1733 42.2974 70.7411 42.076C70.3086 41.855 69.8071 41.7441 69.2363 41.7441H65.7734V50.5491H67.4858V46.8668H67.7834L70.6086 50.5491ZM67.4858 43.1345H69.0851C69.5047 43.1345 69.8302 43.2494 70.0609 43.4788C70.2915 43.7087 70.4071 43.9946 70.4071 44.3369C70.4071 44.7127 70.2915 45.0071 70.0609 45.22C69.8298 45.4329 69.5047 45.5393 69.0851 45.5393H67.4858V43.1345Z" fill="#111111"/>
</svg>
