<svg width="49" height="49" viewBox="0 0 49 49" fill="none" xmlns="http://www.w3.org/2000/svg">
<g id="Iconography / Brand Logos">
<path id="Vector" d="M24.4887 4.93359C20.533 4.93359 16.6662 6.10657 13.3773 8.3042C10.0883 10.5018 7.52482 13.6254 6.01107 17.2799C4.49731 20.9344 4.10125 24.9558 4.87295 28.8354C5.64466 32.715 7.54947 36.2787 10.3465 39.0757C13.1436 41.8728 16.7072 43.7776 20.5869 44.5493C24.4665 45.321 28.4878 44.9249 32.1423 43.4112C35.7968 41.8974 38.9204 39.334 41.118 36.045C43.3157 32.756 44.4887 28.8892 44.4887 24.9336C44.4889 22.3071 43.9717 19.7063 42.9667 17.2797C41.9617 14.8531 40.4885 12.6482 38.6313 10.791C36.7741 8.93376 34.5692 7.46058 32.1426 6.45556C29.716 5.45054 27.1152 4.93338 24.4887 4.93359V4.93359ZM30.8477 35.2385C30.7728 35.4252 30.6589 35.5937 30.5136 35.7327C30.3683 35.8718 30.195 35.9782 30.0052 36.0447C29.8154 36.1113 29.6136 36.1365 29.4133 36.1187C29.2129 36.1009 29.0187 36.0405 28.8437 35.9415L23.4143 31.7228L19.9297 34.9376C19.8488 34.9973 19.7543 35.0358 19.6547 35.0494C19.555 35.063 19.4536 35.0513 19.3597 35.0155L20.0277 29.0386L20.0491 29.0555L20.0627 28.9375C20.0627 28.9375 29.8327 20.0425 30.2307 19.6635C30.6337 19.2855 30.5007 19.2035 30.5007 19.2035C30.5237 18.7425 29.7777 19.2035 29.7777 19.2035L16.8327 27.5316L11.4417 25.6956C11.4417 25.6956 10.6137 25.3986 10.5357 24.7456C10.4537 24.0976 11.4687 23.7456 11.4687 23.7456L32.9027 15.2306C32.9027 15.2306 34.6647 14.4455 34.6647 15.7456L30.8477 35.2385Z" fill="white"/>
</g>
</svg>
