<svg width="49" height="49" viewBox="0 0 49 49" fill="none" xmlns="http://www.w3.org/2000/svg">
<g id="Iconography / Brand Logos">
<path id="Vector" d="M38.3838 11.9799C35.7945 10.7685 33.026 9.88805 30.1315 9.38672C29.776 10.0294 29.3607 10.8938 29.0744 11.5815C25.9975 11.1187 22.9489 11.1187 19.9286 11.5815C19.6423 10.8938 19.2176 10.0294 18.8589 9.38672C15.9613 9.88805 13.1896 10.7717 10.6003 11.9864C5.37774 19.8784 3.96198 27.5743 4.66986 35.161C8.13375 37.7478 11.4907 39.3192 14.791 40.3474C15.6058 39.226 16.3326 38.0338 16.9586 36.7774C15.7663 36.3243 14.6242 35.7652 13.5451 35.1161C13.8314 34.904 14.1114 34.6823 14.382 34.4541C20.9637 37.5325 28.1148 37.5325 34.6179 34.4541C34.8916 34.6823 35.1716 34.904 35.4547 35.1161C34.3725 35.7684 33.2273 36.3275 32.0349 36.7806C32.661 38.0338 33.3846 39.2292 34.2026 40.3506C37.5061 39.3224 40.8661 37.751 44.33 35.161C45.1606 26.3661 42.9111 18.7408 38.3838 11.9799ZM17.8553 30.4953C15.8795 30.4953 14.2593 28.6508 14.2593 26.4047C14.2593 24.1585 15.8449 22.3109 17.8553 22.3109C19.8657 22.3109 21.4859 24.1553 21.4513 26.4047C21.4545 28.6508 19.8657 30.4953 17.8553 30.4953ZM31.1446 30.4953C29.1688 30.4953 27.5485 28.6508 27.5485 26.4047C27.5485 24.1585 29.1342 22.3109 31.1446 22.3109C33.1549 22.3109 34.7752 24.1553 34.7406 26.4047C34.7406 28.6508 33.1549 30.4953 31.1446 30.4953Z" fill="white"/>
</g>
</svg>
