<svg width="65" height="65" viewBox="0 0 65 65" fill="none" xmlns="http://www.w3.org/2000/svg">
<circle cx="32.334" cy="32.6582" r="32" fill="url(#paint0_linear_5300_15373)"/>
<path d="M38.334 23.3418C37.5383 23.3418 36.7753 23.6579 36.2127 24.2205C35.6501 24.7831 35.334 25.5461 35.334 26.3418V38.3418C35.334 39.1374 35.6501 39.9005 36.2127 40.4631C36.7753 41.0257 37.5383 41.3418 38.334 41.3418C39.1296 41.3418 39.8927 41.0257 40.4553 40.4631C41.0179 39.9005 41.334 39.1374 41.334 38.3418C41.334 37.5461 41.0179 36.7831 40.4553 36.2205C39.8927 35.6579 39.1296 35.3418 38.334 35.3418H26.334C25.5383 35.3418 24.7753 35.6579 24.2127 36.2205C23.6501 36.7831 23.334 37.5461 23.334 38.3418C23.334 39.1374 23.6501 39.9005 24.2127 40.4631C24.7753 41.0257 25.5383 41.3418 26.334 41.3418C27.1296 41.3418 27.8927 41.0257 28.4553 40.4631C29.0179 39.9005 29.334 39.1374 29.334 38.3418V26.3418C29.334 25.5461 29.0179 24.7831 28.4553 24.2205C27.8927 23.6579 27.1296 23.3418 26.334 23.3418C25.5383 23.3418 24.7753 23.6579 24.2127 24.2205C23.6501 24.7831 23.334 25.5461 23.334 26.3418C23.334 27.1374 23.6501 27.9005 24.2127 28.4631C24.7753 29.0257 25.5383 29.3418 26.334 29.3418H38.334C39.1296 29.3418 39.8927 29.0257 40.4553 28.4631C41.0179 27.9005 41.334 27.1374 41.334 26.3418C41.334 25.5461 41.0179 24.7831 40.4553 24.2205C39.8927 23.6579 39.1296 23.3418 38.334 23.3418Z" stroke="#111111" stroke-width="2" stroke-linecap="round" stroke-linejoin="round"/>
<defs>
<linearGradient id="paint0_linear_5300_15373" x1="32.334" y1="-89.6459" x2="32.334" y2="194.987" gradientUnits="userSpaceOnUse">
<stop offset="0.236262" stop-color="#00D1FF"/>
<stop offset="0.518799" stop-color="#00E1AD"/>
</linearGradient>
</defs>
</svg>
